<?xml version="1.0" encoding="UTF-8"?><svg id="a" xmlns="http://www.w3.org/2000/svg" viewBox="0 0 260 56"><defs><style>.b{fill:#fff;stroke-width:0px;}</style></defs><path class="b" d="M9.9986,37.6632h15.1928v5.2919H1.9504v-3.8076l15.1487-21.2557H1.9216v-5.2919h23.2393v3.811l-15.1622,21.2523ZM49.5739,26.3765c.5434,1.4469.8151,3.1418.8151,5.0778v1.7322h-15.5019v.017c0,1.1243.2089,2.0991.6301,2.9176.4195.822,1.0139,1.4537,1.7849,1.8987s1.6847.6657,2.7427.6657c.7014,0,1.3433-.0984,1.9258-.2955.5842-.197,1.0818-.4925,1.4979-.8899.4144-.394.7303-.8797.9476-1.4503l5.8404.3838c-.2972,1.4028-.9018,2.6255-1.8154,3.6683-.9137,1.0428-2.0906,1.8511-3.5273,2.4319-1.4385.5774-3.0959.8661-4.9726.8661-2.3419,0-4.3561-.4755-6.0408-1.43-1.6847-.9544-2.9805-2.3063-3.8907-4.0623-.9086-1.7526-1.362-3.8314-1.362-6.2327,0-2.3402.4534-4.3951,1.362-6.1647.9103-1.7696,2.1925-3.1486,3.8466-4.1336,1.6558-.9884,3.5986-1.4843,5.8318-1.4843,1.503,0,2.9024.2411,4.2032.7201,1.2992.4789,2.4354,1.199,3.4084,2.1568.9731.9578,1.7306,2.1602,2.274,3.6072ZM44.4467,29.2737c0-.9069-.1987-1.7119-.5927-2.4149-.3957-.6997-.9409-1.2534-1.6388-1.6508-.6964-.4008-1.503-.6012-2.4235-.6012-.9578,0-1.8053.2208-2.5406.6589-.7371.4382-1.3127,1.0292-1.7271,1.7628-.3818.679-.5853,1.4304-.6228,2.2451h9.5455ZM71.7772,20.9318c-1.1769-.6929-2.5543-1.0394-4.1353-1.0394-1.6898,0-3.1265.3872-4.3137,1.165-1.1854.7744-2.0294,1.824-2.5338,3.1486h-.2667v-4.0181h-6.017v22.7672h6.3125v-13.1617c.0102-.9782.1953-1.8138.557-2.5135.36-.6963.8644-1.2261,1.5115-1.593.647-.3635,1.396-.5469,2.2451-.5469,1.2653,0,2.257.394,2.9788,1.1786.7217.7846,1.0767,1.8749,1.0682,3.2675v13.3689h6.3125v-14.4965c0-1.7662-.326-3.2913-.9782-4.5718-.6521-1.2805-1.5658-2.2655-2.741-2.955ZM112.7277,30.7037c.6318,1.0835.9493,2.3708.9493,3.8619,0,1.61-.399,3.0467-1.1938,4.3068s-1.9683,2.2553-3.5206,2.9856c-1.5505.7302-3.4628,1.0971-5.735,1.0971h-12.9698V12.6h12.1546c2.2332,0,4.0945.3329,5.5873.9952,1.4911.6623,2.6136,1.576,3.3643,2.7478.7507,1.1718,1.126,2.5168,1.126,4.0385,0,1.1854-.2361,2.2247-.7115,3.1214-.4739.8933-1.1226,1.6236-1.9479,2.1942-.8254.5672-1.7662.968-2.8243,1.2057v.2955c1.1566.051,2.2401.377,3.2539.9782,1.0122.6046,1.8359,1.4469,2.4676,2.527ZM96.6756,25.3032h4.7586c.8797,0,1.6626-.1562,2.3487-.4688.6861-.3091,1.2296-.7507,1.6304-1.3246.4008-.574.6012-1.2601.6012-2.0617,0-1.0971-.3889-1.9802-1.165-2.6527-.7744-.6725-1.8749-1.0054-3.2963-1.0054h-4.8775v7.5132ZM107.0504,33.9304c0-.8423-.2021-1.5828-.6063-2.2248-.4059-.6419-.9816-1.1446-1.7271-1.5115-.7455-.3668-1.6338-.5502-2.6612-.5502h-5.3802v8.0634h5.2324c1.7883,0,3.0925-.343,3.9128-1.0291.8203-.6861,1.2296-1.6032,1.2296-2.7478ZM129.5492,19.8618c-1.2754,0-2.4014.3635-3.3796,1.0903s-1.6745,1.7968-2.0889,3.2097h-.2377v-3.9739h-6.1206v22.7672h6.3125v-12.8798c0-.9273.2106-1.7493.6301-2.4591.4211-.7133.9935-1.267,1.7203-1.6677.7252-.4008,1.554-.6012,2.4829-.6012.433,0,.9136.0339,1.4367.1053.5231.0679.9341.1461,1.2296.2344v-5.601c-.2768-.0679-.5978-.1223-.9629-.163-.3652-.0408-.7065-.0612-1.0224-.0612ZM154.9079,25.4866c.9086,1.7662,1.3638,3.8245,1.3638,6.1749,0,2.3334-.4551,4.3782-1.3638,6.1443-.9086,1.7628-2.2009,3.1351-3.8754,4.1201-1.6745.9816-3.6632,1.4741-5.9661,1.4741-2.3012,0-4.2899-.4926-5.9644-1.4741-1.6762-.985-2.9669-2.3572-3.8772-4.1201-.9086-1.7662-1.362-3.8109-1.362-6.1443,0-2.3504.4534-4.4088,1.362-6.1749.9103-1.7628,2.201-3.1351,3.8772-4.1201,1.6745-.9816,3.6631-1.4741,5.9644-1.4741,2.3029,0,4.2916.4925,5.9661,1.4741,1.6745.985,2.9669,2.3572,3.8754,4.1201ZM149.8538,31.6173c0-1.3246-.18-2.5067-.54-3.5426-.3618-1.0393-.8916-1.8579-1.593-2.4591-.7031-.6046-1.5777-.9069-2.6238-.9069-1.058,0-1.9446.3023-2.6613.9069-.7167.6012-1.255,1.4198-1.6151,2.4591-.36,1.0359-.5417,2.218-.5417,3.5426s.1817,2.5033.5417,3.5427c.36,1.0359.8984,1.8545,1.6151,2.4523.7167.5978,1.6032.8967,2.6613.8967,1.0461,0,1.9207-.2989,2.6238-.8967.7014-.5978,1.2312-1.4163,1.593-2.4523.36-1.0394.54-2.218.54-3.5427ZM182.6816,35.3977h-.1919l-3.7345-15.2098h-6.2701l-3.675,15.2981h-.2072l-3.529-15.2981h-6.3873l6.1953,22.7672h6.6692l3.9128-14.3165h.2819l3.9128,14.3165h6.6844l6.1801-22.7672h-6.3719l-3.4696,15.2098ZM208.7536,29.7357l-4.1218-.8322c-1.0563-.2276-1.8019-.5265-2.2366-.9035-.4348-.3736-.6521-.8356-.6521-1.379,0-.6793.3345-1.2261,1.0071-1.6371.6725-.4109,1.4979-.6147,2.4761-.6147.7302,0,1.3603.1223,1.8885.3634.5281.2412.9561.5638,1.2822.9647.3261.3974.5384.8457.6369,1.3383l5.7809-.3533c-.2769-2.0956-1.2432-3.7498-2.8973-4.9658-1.6558-1.2159-3.9196-1.824-6.7965-1.824-1.9462,0-3.6428.2887-5.0898.8594-1.4486.574-2.5695,1.3892-3.3643,2.4455-.7965,1.0598-1.1939,2.3198-1.1939,3.7804,0,1.6982.5417,3.0977,1.6235,4.1947,1.0818,1.0971,2.7343,1.8681,4.9573,2.3131l3.9417.7845c.9884.197,1.7204.4824,2.1942.8525.4738.3702.7167.8423.7269,1.4164-.0102.6793-.3533,1.2363-1.0309,1.6643-.6776.4314-1.5692.6454-2.6748.6454-1.1259,0-2.0515-.2378-2.7715-.7167-.7218-.4789-1.1769-1.1786-1.3637-2.0991l-6.2106.3261c.3057,2.1738,1.3518,3.8925,3.135,5.1526,1.7832,1.2567,4.1812,1.8885,7.1956,1.8885,1.9768,0,3.7227-.3125,5.2392-.9409s2.7122-1.5047,3.5868-2.6323c.8746-1.1243,1.3127-2.4354,1.3127-3.9265,0-1.6405-.5452-2.9652-1.6304-3.9739-1.0886-1.0054-2.7376-1.7391-4.9504-2.1908ZM239.3294,26.3765c.5435,1.4469.8152,3.1418.8152,5.0778v1.7322h-15.5019v.017c0,1.1243.2089,2.0991.6301,2.9176.4194.822,1.0139,1.4537,1.7849,1.8987.7711.4449,1.6847.6657,2.7427.6657.7014,0,1.3433-.0984,1.9258-.2955.5842-.197,1.0818-.4925,1.4979-.8899.4144-.394.7303-.8797.9477-1.4503l5.8403.3838c-.2972,1.4028-.9017,2.6255-1.8154,3.6683-.9137,1.0428-2.0906,1.8511-3.5273,2.4319-1.4384.5774-3.0959.8661-4.9725.8661-2.3419,0-4.3561-.4755-6.0408-1.43-1.6847-.9544-2.9805-2.3063-3.8908-4.0623-.9086-1.7526-1.362-3.8314-1.362-6.2327,0-2.3402.4534-4.3951,1.362-6.1647.9103-1.7696,2.1925-3.1486,3.8466-4.1336,1.6558-.9884,3.5987-1.4843,5.8319-1.4843,1.503,0,2.9023.2411,4.2032.7201,1.2992.4789,2.4353,1.199,3.4084,2.1568.9731.9578,1.7305,2.1602,2.274,3.6072ZM234.2023,29.2737c0-.9069-.1987-1.7119-.5927-2.4149-.3957-.6997-.9409-1.2534-1.6389-1.6508-.6963-.4008-1.503-.6012-2.4235-.6012-.9578,0-1.8052.2208-2.5406.6589-.7371.4382-1.3128,1.0292-1.7272,1.7628-.3817.679-.5852,1.4304-.6227,2.2451h9.5455ZM257.1155,19.923c-.3651-.0408-.7065-.0612-1.0223-.0612-1.2755,0-2.4014.3635-3.3796,1.0903s-1.6745,1.7968-2.0889,3.2097h-.2377v-3.9739h-6.1206v22.7672h6.3125v-12.8798c0-.9273.2106-1.7493.6301-2.4591.4212-.7133.9935-1.267,1.7203-1.6677.7252-.4008,1.554-.6012,2.4829-.6012.433,0,.9137.0339,1.4368.1053.5231.0679.934.1461,1.2296.2344v-5.601c-.2769-.0679-.5978-.1223-.963-.163Z"/></svg>