<svg xmlns="http://www.w3.org/2000/svg" width="80" height="56">
  <polygon fill="context-fill #20123a" points="26.2482 13.468 26.2482 9.6633 3.0262 9.6633 3.0262 14.9495 18.1924 14.9495 3.055 36.1877 3.055 39.9942 26.2787 39.9942 26.2787 34.7063 11.0972 34.7063 26.2482 13.468"/><path fill="context-fill #20123a" d="M48.7982,19.8217c-.9724-.9572-2.1077-1.675-3.4059-2.1536-1.2999-.4785-2.6982-.7195-4.2001-.7195-2.2316,0-4.173.4938-5.8276,1.4815-1.6529.9877-2.9341,2.3657-3.8438,4.1323-.9079,1.7683-1.361,3.8217-1.361,6.1619,0,2.3979.4531,4.4751,1.361,6.2264.9096,1.7531,2.2044,3.1056,3.8879,4.0593,1.6835.9521,3.6961,1.4289,6.0363,1.4289,1.8752,0,3.5315-.2885,4.9689-.8671,1.4357-.577,2.6117-1.3865,3.5247-2.4285.913-1.042,1.5172-2.2638,1.8141-3.6656l-5.8361-.3852c-.2172.5736-.5328,1.0573-.9469,1.4509-.4158.3954-.913.6924-1.4968.8893-.5821.1968-1.2236.2969-1.9244.2969-1.0573,0-1.9703-.2223-2.7407-.6669-.7704-.4446-1.3644-1.0759-1.7836-1.8956-.4208-.8196-.6296-1.7921-.6296-2.9189v-.0135h15.4904v-1.7327c0-1.9363-.2715-3.6265-.8146-5.0724-.543-1.4476-1.2999-2.649-2.2723-3.6078ZM36.4088,26.3247c.0375-.8157.2407-1.5665.6223-2.2435.4141-.7365.9893-1.3237,1.7258-1.7632.7348-.4395,1.5817-.6584,2.5388-.6584.9198,0,1.7259.1985,2.4216.5991.6975.4005,1.2422.9503,1.6376,1.6512.3937.7009.5923,1.507.5923,2.4149h-9.5385Z"/><path fill="context-fill #20123a" d="M75.9964,20.94c-.6517-1.2778-1.5646-2.2621-2.739-2.9545-1.1761-.6907-2.5524-1.0369-4.1323-1.0369-1.6885,0-3.1242.3887-4.3104,1.1625-1.1846.7756-2.028,1.8243-2.532,3.148h-.2664v-4.0135h-6.0126v22.7486h6.3079v-13.1519c.0102-.9775.1951-1.8141.5566-2.5099.3598-.6958.8638-1.227,1.5104-1.5918.6465-.3649,1.395-.5482,2.2435-.5482,1.2643,0,2.2553.392,2.9766,1.1777.7213.784,1.0759,1.8735,1.0674,3.2651v13.3589h6.3078v-14.4841c0-1.7683-.3258-3.2905-.9775-4.5701Z"/>
</svg>