<?xml version="1.0" encoding="UTF-8"?>
<svg id="Layer_1" data-name="Layer 1" xmlns="http://www.w3.org/2000/svg" version="1.1" viewBox="0 0 260 56">
  <defs>
    <style>
      .cls-1 {
        fill="context-fill #20123a"
      }
    </style>
  </defs>
  <path class="cls-1" d="M10.7,34.7h15.2v5.3H2.7v-3.8l15.1-21.2H2.6v-5.3h23.2v3.8l-15.2,21.2ZM50.7,23.4c.5,1.4.8,3.1.8,5.1v1.7h-15.5c0,1.1.2,2.1.6,2.9.4.8,1,1.5,1.8,1.9.8.4,1.7.7,2.7.7s1.3,0,1.9-.3c.6-.2,1.1-.5,1.5-.9.4-.4.7-.9.9-1.5l5.8.4c-.3,1.4-.9,2.6-1.8,3.7-.9,1-2.1,1.9-3.5,2.4-1.4.6-3.1.9-5,.9s-4.4-.5-6-1.4c-1.7-1-3-2.3-3.9-4.1-.9-1.8-1.4-3.8-1.4-6.2s.5-4.4,1.4-6.2c.9-1.8,2.2-3.1,3.8-4.1,1.7-1,3.6-1.5,5.8-1.5s2.9.2,4.2.7c1.3.5,2.4,1.2,3.4,2.2,1,1,1.7,2.2,2.3,3.6ZM45.5,26.3c0-.9-.2-1.7-.6-2.4-.4-.7-.9-1.3-1.6-1.7-.7-.4-1.5-.6-2.4-.6s-1.8.2-2.5.7c-.7.4-1.3,1-1.7,1.8-.4.7-.6,1.4-.6,2.2h9.5ZM72.8,18c-1.2-.7-2.6-1-4.1-1s-3.1.4-4.3,1.2c-1.2.8-2,1.8-2.5,3.1h-.3v-4h-6v22.7h6.3v-13.2c0-1,.2-1.8.6-2.5.4-.7.9-1.2,1.5-1.6.6-.4,1.4-.5,2.2-.5,1.3,0,2.3.4,3,1.2.7.8,1.1,1.9,1.1,3.3v13.4h6.3v-14.5c0-1.8-.3-3.3-1-4.6-.7-1.3-1.6-2.3-2.7-3ZM113.8,27.8c.6,1.1.9,2.4.9,3.9s-.4,3-1.2,4.3c-.8,1.3-2,2.3-3.5,3-1.6.7-3.5,1.1-5.7,1.1h-13V9.7h12.1c2.2,0,4.1.3,5.6,1,1.5.7,2.6,1.6,3.4,2.7.8,1.2,1.1,2.5,1.1,4s-.2,2.2-.7,3.1c-.5.9-1.1,1.6-1.9,2.2-.8.6-1.8,1-2.8,1.2v.3c1.2,0,2.2.4,3.3,1,1,.6,1.8,1.4,2.5,2.5ZM97.7,22.4h4.8c.9,0,1.7-.2,2.3-.5.7-.3,1.2-.8,1.6-1.3.4-.6.6-1.3.6-2.1s-.4-2-1.2-2.7c-.8-.7-1.9-1-3.3-1h-4.9v7.5ZM108.1,31c0-.8-.2-1.6-.6-2.2-.4-.6-1-1.1-1.7-1.5-.7-.4-1.6-.5-2.7-.5h-5.4v8.1h5.2c1.8,0,3.1-.3,3.9-1,.8-.7,1.2-1.6,1.2-2.7ZM130.6,16.9c-1.3,0-2.4.4-3.4,1.1-1,.7-1.7,1.8-2.1,3.2h-.2v-4h-6.1v22.7h6.3v-12.9c0-.9.2-1.7.6-2.5.4-.7,1-1.3,1.7-1.7.7-.4,1.6-.6,2.5-.6s.9,0,1.4.1c.5,0,.9.1,1.2.2v-5.6c-.3,0-.6-.1-1-.2s-.7,0-1,0ZM154.9,22.5c.9,1.8,1.4,3.8,1.4,6.2s-.5,4.4-1.4,6.1c-.9,1.8-2.2,3.1-3.9,4.1-1.7,1-3.7,1.5-6,1.5s-4.3-.5-6-1.5c-1.7-1-3-2.4-3.9-4.1-.9-1.8-1.4-3.8-1.4-6.1s.5-4.4,1.4-6.2c.9-1.8,2.2-3.1,3.9-4.1,1.7-1,3.7-1.5,6-1.5s4.3.5,6,1.5c1.7,1,3,2.4,3.9,4.1ZM149.8,28.7c0-1.3-.2-2.5-.5-3.5-.4-1-.9-1.9-1.6-2.5-.7-.6-1.6-.9-2.6-.9s-1.9.3-2.7.9c-.7.6-1.3,1.4-1.6,2.5-.4,1-.5,2.2-.5,3.5s.2,2.5.5,3.5c.4,1,.9,1.9,1.6,2.5.7.6,1.6.9,2.7.9s1.9-.3,2.6-.9c.7-.6,1.2-1.4,1.6-2.5.4-1,.5-2.2.5-3.5ZM182,32.4h-.2l-3.7-15.2h-6.3l-3.7,15.3h-.2l-3.5-15.3h-6.4l6.2,22.7h6.7l3.9-14.3h.3l3.9,14.3h6.7l6.2-22.7h-6.4l-3.5,15.2ZM208.1,26.8l-4.1-.8c-1.1-.2-1.8-.5-2.2-.9-.4-.4-.7-.8-.7-1.4s.3-1.2,1-1.6c.7-.4,1.5-.6,2.5-.6s1.4.1,1.9.4c.5.2,1,.6,1.3,1,.3.4.5.8.6,1.3l5.8-.4c-.3-2.1-1.2-3.7-2.9-5-1.7-1.2-3.9-1.8-6.8-1.8s-3.6.3-5.1.9c-1.4.6-2.6,1.4-3.4,2.4-.8,1.1-1.2,2.3-1.2,3.8s.5,3.1,1.6,4.2c1.1,1.1,2.7,1.9,5,2.3l3.9.8c1,.2,1.7.5,2.2.9.5.4.7.8.7,1.4,0,.7-.4,1.2-1,1.7-.7.4-1.6.6-2.7.6s-2-.2-2.8-.7c-.7-.5-1.2-1.2-1.4-2.1l-6.2.3c.3,2.2,1.4,3.9,3.1,5.1,1.8,1.3,4.2,1.9,7.2,1.9s3.7-.3,5.2-.9c1.5-.6,2.7-1.5,3.6-2.6.9-1.1,1.3-2.4,1.3-3.9s-.5-3-1.6-4c-1.1-1-2.7-1.7-4.9-2.2ZM238.6,23.4c.5,1.4.8,3.1.8,5.1v1.7h-15.5c0,1.1.2,2.1.6,2.9.4.8,1,1.5,1.8,1.9.8.4,1.7.7,2.7.7s1.3,0,1.9-.3c.6-.2,1.1-.5,1.5-.9.4-.4.7-.9.9-1.5l5.8.4c-.3,1.4-.9,2.6-1.8,3.7-.9,1-2.1,1.9-3.5,2.4-1.4.6-3.1.9-5,.9s-4.4-.5-6-1.4c-1.7-1-3-2.3-3.9-4.1-.9-1.8-1.4-3.8-1.4-6.2s.5-4.4,1.4-6.2c.9-1.8,2.2-3.1,3.8-4.1,1.7-1,3.6-1.5,5.8-1.5s2.9.2,4.2.7c1.3.5,2.4,1.2,3.4,2.2,1,1,1.7,2.2,2.3,3.6ZM233.5,26.3c0-.9-.2-1.7-.6-2.4-.4-.7-.9-1.3-1.6-1.7-.7-.4-1.5-.6-2.4-.6s-1.8.2-2.5.7c-.7.4-1.3,1-1.7,1.8-.4.7-.6,1.4-.6,2.2h9.5ZM256.4,17c-.4,0-.7,0-1,0-1.3,0-2.4.4-3.4,1.1-1,.7-1.7,1.8-2.1,3.2h-.2v-4h-6.1v22.7h6.3v-12.9c0-.9.2-1.7.6-2.5.4-.7,1-1.3,1.7-1.7.7-.4,1.6-.6,2.5-.6s.9,0,1.4.1c.5,0,.9.1,1.2.2v-5.6c-.3,0-.6-.1-1-.2Z"/>
</svg>