#filter dumbComments emptyLines substitution
# This Source Code Form is subject to the terms of the Mozilla Public
# License, v. 2.0. If a copy of the MPL was not distributed with this
# file, You can obtain one at http://mozilla.org/MPL/2.0/.
<?xml version="1.0" encoding="UTF-8" standalone="no"?>
<svg 
   x="0px"
   y="0px"
   width="18px"
   height="18px"
   viewBox="0 0 24 24"
   version="1.1"
   id="svg1"
   xmlns="http://www.w3.org/2000/svg"
   xmlns:svg="http://www.w3.org/2000/svg">
   <defs
     id="defs1" />
   <g
     stroke-linecap="round"
     stroke-width="1.5"
     fill="none"
     stroke="context-fill"
     stroke-opacity="context-fill-opacity"
     stroke-linejoin="round"
     class="nc-icon-wrapper"
     id="g2">
     <path d="m15 12-9.373 9.373a1 1 0 0 1-3.001-3L12 9"/>
     <path d="m18 15 4-4"/>
     <path d="m21.5 11.5-1.914-1.914A2 2 0 0 1 19 8.172v-.344a2 2 0 0 0-.586-1.414l-1.657-1.657A6 6 0 0 0 12.516 3H9l1.243 1.243A6 6 0 0 1 12 8.485V10l2 2h1.172a2 2 0 0 1 1.414.586L18.5 14.5"/>
  </g>
</svg>