#filter dumbComments emptyLines substitution
# This Source Code Form is subject to the terms of the Mozilla Public
# License, v. 2.0. If a copy of the MPL was not distributed with this
# file, You can obtain one at http://mozilla.org/MPL/2.0/.
<svg xmlns="http://www.w3.org/2000/svg" width="18" height="18" fill="context-fill" fill-opacity="context-fill-opacity" viewBox="0 0 18 18"><path d="m9.026 1.501.019.001a1 1 0 0 1 .114.016q.038.009.074.022a.75.75 0 0 1 .297.18l2.25 2.25a.75.75 0 0 1-1.06 1.06l-.97-.97v4.19h4.19l-.97-.97a.75.75 0 1 1 1.06-1.06l2.25 2.25a.8.8 0 0 1 .118.16q.025.04.044.083a.75.75 0 0 1-.078.715 1 1 0 0 1-.084.102l-2.25 2.25a.75.75 0 0 1-1.06-1.06l.97-.97H9.75v4.19l.97-.97a.75.75 0 1 1 1.06 1.06l-2.25 2.25a.8.8 0 0 1-.244.162q-.048.02-.098.03-.02.008-.04.012l-.016.003a.8.8 0 0 1-.265 0l-.016-.003-.04-.011q-.05-.012-.098-.03-.044-.02-.083-.045a.8.8 0 0 1-.16-.118l-2.25-2.25a.75.75 0 1 1 1.06-1.06l.97.97V9.75H4.06l.97.97a.75.75 0 0 1-1.06 1.06L1.72 9.53a.75.75 0 0 1-.165-.812l.004-.01q.018-.04.042-.078a.8.8 0 0 1 .119-.16l2.25-2.25a.75.75 0 1 1 1.06 1.06l-.97.97h4.19V4.06l-.97.97a.75.75 0 1 1-1.06-1.06l2.25-2.25.056-.052q.016-.012.033-.022a.8.8 0 0 1 .255-.12q.04-.011.08-.018l.011-.002A1 1 0 0 1 9 1.5z"/></svg>
