#filter dumbComments emptyLines substitution
<!-- This Source Code Form is subject to the terms of the Mozilla Public
   - License, v. 2.0. If a copy of the MPL was not distributed with this
   - file, You can obtain one at http://mozilla.org/MPL/2.0/. -->
<svg xmlns="http://www.w3.org/2000/svg" width="1008" height="28" fill="none"><svg width="28" height="28" viewBox="0 0 128 128"><g class="zen-downloads-circle-translate"><circle cx="64" cy="64" r="47.5" fill="context-fill" class="zen-downloads-bg"/><circle cx="64" cy="64" r="47.5" fill="context-fill" class="zen-downloads-gradient" style="mix-blend-mode:overlay;opacity:.1"/><circle cx="64" cy="64" r="47.5" stroke="context-stroke" stroke-width="7.1" class="zen-downloads-border"/></g><path stroke="context-stroke" stroke-linecap="round" stroke-linejoin="round" stroke-width="7.1" d="M64 45v38M50 69l14 14 14-14" class="zen-downloads-arrow"/></svg><svg width="28" height="28" x="28" viewBox="0 0 128 128"><g class="zen-downloads-circle-translate" transform="translate(0 .131)"><circle cx="64" cy="64" r="47.5" fill="context-fill" class="zen-downloads-bg"/><circle cx="64" cy="64" r="47.5" fill="context-fill" class="zen-downloads-gradient" style="mix-blend-mode:overlay;opacity:.1"/><circle cx="64" cy="64" r="47.5" stroke="context-stroke" stroke-width="7.1" class="zen-downloads-border"/></g><path stroke="context-stroke" stroke-linecap="round" stroke-linejoin="round" stroke-width="7.1" d="M64 45.651v37.645m-14-14 14 14 14-14" class="zen-downloads-arrow"/></svg><svg width="28" height="28" x="56" viewBox="0 0 128 128"><g class="zen-downloads-circle-translate" transform="translate(0 .473)"><circle cx="64" cy="64" r="47.5" fill="context-fill" class="zen-downloads-bg"/><circle cx="64" cy="64" r="47.5" fill="context-fill" class="zen-downloads-gradient" style="mix-blend-mode:overlay;opacity:.1"/><circle cx="64" cy="64" r="47.5" stroke="context-stroke" stroke-width="7.1" class="zen-downloads-border"/></g><path stroke="context-stroke" stroke-linecap="round" stroke-linejoin="round" stroke-width="7.1" d="M64 47.381v36.701m-14-14 14 14 14-14" class="zen-downloads-arrow"/></svg><svg width="28" height="28" x="84" viewBox="0 0 128 128"><g class="zen-downloads-circle-translate" transform="translate(0 .955)"><circle cx="64" cy="64" r="47.5" fill="context-fill" class="zen-downloads-bg"/><circle cx="64" cy="64" r="47.5" fill="context-fill" class="zen-downloads-gradient" style="mix-blend-mode:overlay;opacity:.1"/><circle cx="64" cy="64" r="47.5" stroke="context-stroke" stroke-width="7.1" class="zen-downloads-border"/></g><path stroke="context-stroke" stroke-linecap="round" stroke-linejoin="round" stroke-width="7.1" d="M64 49.893v35.331m-14-14 14 14 14-14" class="zen-downloads-arrow"/></svg><svg width="28" height="28" x="112" viewBox="0 0 128 128"><g class="zen-downloads-circle-translate" transform="translate(0 1.517)"><circle cx="64" cy="64" r="47.5" fill="context-fill" class="zen-downloads-bg"/><circle cx="64" cy="64" r="47.5" fill="context-fill" class="zen-downloads-gradient" style="mix-blend-mode:overlay;opacity:.1"/><circle cx="64" cy="64" r="47.5" stroke="context-stroke" stroke-width="7.1" class="zen-downloads-border"/></g><path stroke="context-stroke" stroke-linecap="round" stroke-linejoin="round" stroke-width="7.1" d="M64 52.92V86.6m-14-14 14 14 14-14" class="zen-downloads-arrow"/></svg><svg width="28" height="28" x="140" viewBox="0 0 128 128"><g class="zen-downloads-circle-translate" transform="translate(0 2.103)"><circle cx="64" cy="64" r="47.5" fill="context-fill" class="zen-downloads-bg"/><circle cx="64" cy="64" r="47.5" fill="context-fill" class="zen-downloads-gradient" style="mix-blend-mode:overlay;opacity:.1"/><circle cx="64" cy="64" r="47.5" stroke="context-stroke" stroke-width="7.1" class="zen-downloads-border"/></g><path stroke="context-stroke" stroke-linecap="round" stroke-linejoin="round" stroke-width="7.1" d="M64 56.22V88.1m-14-14 14 14 14-14" class="zen-downloads-arrow"/></svg><svg width="28" height="28" x="168" viewBox="0 0 128 128"><g class="zen-downloads-circle-translate" transform="translate(0 2.656)"><circle cx="64" cy="64" r="47.5" fill="context-fill" class="zen-downloads-bg"/><circle cx="64" cy="64" r="47.5" fill="context-fill" class="zen-downloads-gradient" style="mix-blend-mode:overlay;opacity:.1"/><circle cx="64" cy="64" r="47.5" stroke="context-stroke" stroke-width="7.1" class="zen-downloads-border"/></g><path stroke="context-stroke" stroke-linecap="round" stroke-linejoin="round" stroke-width="7.1" d="M64 59.551v30.063m-14-14 14 14 14-14" class="zen-downloads-arrow"/></svg><svg width="28" height="28" x="196" viewBox="0 0 128 128"><g class="zen-downloads-circle-translate" transform="translate(0 3.119)"><circle cx="64" cy="64" r="47.5" fill="context-fill" class="zen-downloads-bg"/><circle cx="64" cy="64" r="47.5" fill="context-fill" class="zen-downloads-gradient" style="mix-blend-mode:overlay;opacity:.1"/><circle cx="64" cy="64" r="47.5" stroke="context-stroke" stroke-width="7.1" class="zen-downloads-border"/></g><path stroke="context-stroke" stroke-linecap="round" stroke-linejoin="round" stroke-width="7.1" d="M64 62.668v28.363m-14-14 14 14 14-14" class="zen-downloads-arrow"/></svg><svg width="28" height="28" x="224" viewBox="0 0 128 128"><g class="zen-downloads-circle-translate" transform="translate(0 3.425)"><circle cx="64" cy="64" r="47.5" fill="context-fill" class="zen-downloads-bg"/><circle cx="64" cy="64" r="47.5" fill="context-fill" class="zen-downloads-gradient" style="mix-blend-mode:overlay;opacity:.1"/><circle cx="64" cy="64" r="47.5" stroke="context-stroke" stroke-width="7.1" class="zen-downloads-border"/></g><path stroke="context-stroke" stroke-linecap="round" stroke-linejoin="round" stroke-width="7.1" d="M64 65.306V92.23m-14-14 14 14 14-14" class="zen-downloads-arrow"/></svg><svg width="28" height="28" x="252" viewBox="0 0 128 128"><g class="zen-downloads-circle-translate" transform="translate(0 3.496)"><circle cx="64" cy="64" r="47.5" fill="context-fill" class="zen-downloads-bg"/><circle cx="64" cy="64" r="47.5" fill="context-fill" class="zen-downloads-gradient" style="mix-blend-mode:overlay;opacity:.1"/><circle cx="64" cy="64" r="47.5" stroke="context-stroke" stroke-width="7.1" class="zen-downloads-border"/></g><path stroke="context-stroke" stroke-linecap="round" stroke-linejoin="round" stroke-width="7.1" d="M64 67.164v25.911m-14-14 14 14 14-14" class="zen-downloads-arrow"/></svg><svg width="28" height="28" x="280" viewBox="0 0 128 128"><g class="zen-downloads-circle-translate" transform="translate(0 3.233)"><circle cx="64" cy="64" r="47.5" fill="context-fill" class="zen-downloads-bg"/><circle cx="64" cy="64" r="47.5" fill="context-fill" class="zen-downloads-gradient" style="mix-blend-mode:overlay;opacity:.1"/><circle cx="64" cy="64" r="47.5" stroke="context-stroke" stroke-width="7.1" class="zen-downloads-border"/></g><path stroke="context-stroke" stroke-linecap="round" stroke-linejoin="round" stroke-width="7.1" d="M64 67.881V93.4m-14-14 14 14 14-14" class="zen-downloads-arrow"/></svg><svg width="28" height="28" x="308" viewBox="0 0 128 128"><g class="zen-downloads-circle-translate" transform="translate(0 2.501)"><circle cx="64" cy="64" r="47.5" fill="context-fill" class="zen-downloads-bg"/><circle cx="64" cy="64" r="47.5" fill="context-fill" class="zen-downloads-gradient" style="mix-blend-mode:overlay;opacity:.1"/><circle cx="64" cy="64" r="47.5" stroke="context-stroke" stroke-width="7.1" class="zen-downloads-border"/></g><path stroke="context-stroke" stroke-linecap="round" stroke-linejoin="round" stroke-width="7.1" d="M64 67.001V93M50 79l14 14 14-14" class="zen-downloads-arrow"/></svg><svg width="28" height="28" x="336" viewBox="0 0 128 128"><g class="zen-downloads-circle-translate" transform="translate(0 .423)"><circle cx="64" cy="64" r="47.5" fill="context-fill" class="zen-downloads-bg"/><circle cx="64" cy="64" r="47.5" fill="context-fill" class="zen-downloads-gradient" style="mix-blend-mode:overlay;opacity:.1"/><circle cx="64" cy="64" r="47.5" stroke="context-stroke" stroke-width="7.1" class="zen-downloads-border"/></g><path stroke="context-stroke" stroke-linecap="round" stroke-linejoin="round" stroke-width="7.1" d="M64 64.36v26.965m-14-14 14 14 14-14" class="zen-downloads-arrow"/></svg><svg width="28" height="28" x="364" viewBox="0 0 128 128"><g class="zen-downloads-circle-translate" transform="translate(0 -2.757)"><circle cx="64" cy="64" r="47.5" fill="context-fill" class="zen-downloads-bg"/><circle cx="64" cy="64" r="47.5" fill="context-fill" class="zen-downloads-gradient" style="mix-blend-mode:overlay;opacity:.1"/><circle cx="64" cy="64" r="47.5" stroke="context-stroke" stroke-width="7.1" class="zen-downloads-border"/></g><path stroke="context-stroke" stroke-linecap="round" stroke-linejoin="round" stroke-width="7.1" d="M64 59.804v28.63m-14-14 14 14 14-14" class="zen-downloads-arrow"/></svg><svg width="28" height="28" x="392" viewBox="0 0 128 128"><g class="zen-downloads-circle-translate" transform="translate(0 -5.733)"><circle cx="64" cy="64" r="47.5" fill="context-fill" class="zen-downloads-bg"/><circle cx="64" cy="64" r="47.5" fill="context-fill" class="zen-downloads-gradient" style="mix-blend-mode:overlay;opacity:.1"/><circle cx="64" cy="64" r="47.5" stroke="context-stroke" stroke-width="7.1" class="zen-downloads-border"/></g><path stroke="context-stroke" stroke-linecap="round" stroke-linejoin="round" stroke-width="7.1" d="M64 53.148v31.063m-14-14 14 14 14-14" class="zen-downloads-arrow"/></svg><svg width="28" height="28" x="420" viewBox="0 0 128 128"><g class="zen-downloads-circle-translate" transform="translate(0 -8.006)"><circle cx="64" cy="64" r="47.5" fill="context-fill" class="zen-downloads-bg"/><circle cx="64" cy="64" r="47.5" fill="context-fill" class="zen-downloads-gradient" style="mix-blend-mode:overlay;opacity:.1"/><circle cx="64" cy="64" r="47.5" stroke="context-stroke" stroke-width="7.1" class="zen-downloads-border"/></g><path stroke="context-stroke" stroke-linecap="round" stroke-linejoin="round" stroke-width="7.1" d="M64 45.834v33.737m-14-14 14 14 14-14" class="zen-downloads-arrow"/></svg><svg width="28" height="28" x="448" viewBox="0 0 128 128"><g class="zen-downloads-circle-translate" transform="translate(0 -9.597)"><circle cx="64" cy="64" r="47.5" fill="context-fill" class="zen-downloads-bg"/><circle cx="64" cy="64" r="47.5" fill="context-fill" class="zen-downloads-gradient" style="mix-blend-mode:overlay;opacity:.1"/><circle cx="64" cy="64" r="47.5" stroke="context-stroke" stroke-width="7.1" class="zen-downloads-border"/></g><path stroke="context-stroke" stroke-linecap="round" stroke-linejoin="round" stroke-width="7.1" d="M64 40.139v35.818m-14-14 14 14 14-14" class="zen-downloads-arrow"/></svg><svg width="28" height="28" x="476" viewBox="0 0 128 128"><g class="zen-downloads-circle-translate" transform="translate(0 -10.631)"><circle cx="64" cy="64" r="47.5" fill="context-fill" class="zen-downloads-bg"/><circle cx="64" cy="64" r="47.5" fill="context-fill" class="zen-downloads-gradient" style="mix-blend-mode:overlay;opacity:.1"/><circle cx="64" cy="64" r="47.5" stroke="context-stroke" stroke-width="7.1" class="zen-downloads-border"/></g><path stroke="context-stroke" stroke-linecap="round" stroke-linejoin="round" stroke-width="7.1" d="M64 36.618v37.105m-14-14 14 14 14-14" class="zen-downloads-arrow"/></svg><svg width="28" height="28" x="504" viewBox="0 0 128 128"><g class="zen-downloads-circle-translate" transform="translate(0 -11.223)"><circle cx="64" cy="64" r="47.5" fill="context-fill" class="zen-downloads-bg"/><circle cx="64" cy="64" r="47.5" fill="context-fill" class="zen-downloads-gradient" style="mix-blend-mode:overlay;opacity:.1"/><circle cx="64" cy="64" r="47.5" stroke="context-stroke" stroke-width="7.1" class="zen-downloads-border"/></g><path stroke="context-stroke" stroke-linecap="round" stroke-linejoin="round" stroke-width="7.1" d="M64 34.794v37.772m-14-14 14 14 14-14" class="zen-downloads-arrow"/></svg><svg width="28" height="28" x="532" viewBox="0 0 128 128"><g class="zen-downloads-circle-translate" transform="translate(0 -11.46)"><circle cx="64" cy="64" r="47.5" fill="context-fill" class="zen-downloads-bg"/><circle cx="64" cy="64" r="47.5" fill="context-fill" class="zen-downloads-gradient" style="mix-blend-mode:overlay;opacity:.1"/><circle cx="64" cy="64" r="47.5" stroke="context-stroke" stroke-width="7.1" class="zen-downloads-border"/></g><path stroke="context-stroke" stroke-linecap="round" stroke-linejoin="round" stroke-width="7.1" d="M64 34.17v38m-14-14 14 14 14-14" class="zen-downloads-arrow"/></svg><svg width="28" height="28" x="560" viewBox="0 0 128 128"><g class="zen-downloads-circle-translate" transform="translate(0 -11.413)"><circle cx="64" cy="64" r="47.5" fill="context-fill" class="zen-downloads-bg"/><circle cx="64" cy="64" r="47.5" fill="context-fill" class="zen-downloads-gradient" style="mix-blend-mode:overlay;opacity:.1"/><circle cx="64" cy="64" r="47.5" stroke="context-stroke" stroke-width="7.1" class="zen-downloads-border"/></g><path stroke="context-stroke" stroke-linecap="round" stroke-linejoin="round" stroke-width="7.1" d="M64 34.246v38m-14-14 14 14 14-14" class="zen-downloads-arrow"/></svg><svg width="28" height="28" x="588" viewBox="0 0 128 128"><g class="zen-downloads-circle-translate" transform="translate(0 -11.089)"><circle cx="64" cy="64" r="47.5" fill="context-fill" class="zen-downloads-bg"/><circle cx="64" cy="64" r="47.5" fill="context-fill" class="zen-downloads-gradient" style="mix-blend-mode:overlay;opacity:.1"/><circle cx="64" cy="64" r="47.5" stroke="context-stroke" stroke-width="7.1" class="zen-downloads-border"/></g><path stroke="context-stroke" stroke-linecap="round" stroke-linejoin="round" stroke-width="7.1" d="M64 34.602v38m-14-14 14 14 14-14" class="zen-downloads-arrow"/></svg><svg width="28" height="28" x="616" viewBox="0 0 128 128"><g class="zen-downloads-circle-translate" transform="translate(0 -10.494)"><circle cx="64" cy="64" r="47.5" fill="context-fill" class="zen-downloads-bg"/><circle cx="64" cy="64" r="47.5" fill="context-fill" class="zen-downloads-gradient" style="mix-blend-mode:overlay;opacity:.1"/><circle cx="64" cy="64" r="47.5" stroke="context-stroke" stroke-width="7.1" class="zen-downloads-border"/></g><path stroke="context-stroke" stroke-linecap="round" stroke-linejoin="round" stroke-width="7.1" d="M64 35.219v38m-14-14 14 14 14-14" class="zen-downloads-arrow"/></svg><svg width="28" height="28" x="644" viewBox="0 0 128 128"><g class="zen-downloads-circle-translate" transform="translate(0 -9.636)"><circle cx="64" cy="64" r="47.5" fill="context-fill" class="zen-downloads-bg"/><circle cx="64" cy="64" r="47.5" fill="context-fill" class="zen-downloads-gradient" style="mix-blend-mode:overlay;opacity:.1"/><circle cx="64" cy="64" r="47.5" stroke="context-stroke" stroke-width="7.1" class="zen-downloads-border"/></g><path stroke="context-stroke" stroke-linecap="round" stroke-linejoin="round" stroke-width="7.1" d="M64 36.078v38m-14-14 14 14 14-14" class="zen-downloads-arrow"/></svg><svg width="28" height="28" x="672" viewBox="0 0 128 128"><g class="zen-downloads-circle-translate" transform="translate(0 -8.527)"><circle cx="64" cy="64" r="47.5" fill="context-fill" class="zen-downloads-bg"/><circle cx="64" cy="64" r="47.5" fill="context-fill" class="zen-downloads-gradient" style="mix-blend-mode:overlay;opacity:.1"/><circle cx="64" cy="64" r="47.5" stroke="context-stroke" stroke-width="7.1" class="zen-downloads-border"/></g><path stroke="context-stroke" stroke-linecap="round" stroke-linejoin="round" stroke-width="7.1" d="M64 37.156v38m-14-14 14 14 14-14" class="zen-downloads-arrow"/></svg><svg width="28" height="28" x="700" viewBox="0 0 128 128"><g class="zen-downloads-circle-translate" transform="translate(0 -7.186)"><circle cx="64" cy="64" r="47.5" fill="context-fill" class="zen-downloads-bg"/><circle cx="64" cy="64" r="47.5" fill="context-fill" class="zen-downloads-gradient" style="mix-blend-mode:overlay;opacity:.1"/><circle cx="64" cy="64" r="47.5" stroke="context-stroke" stroke-width="7.1" class="zen-downloads-border"/></g><path stroke="context-stroke" stroke-linecap="round" stroke-linejoin="round" stroke-width="7.1" d="M64 38.43v38m-14-14 14 14 14-14" class="zen-downloads-arrow"/></svg><svg width="28" height="28" x="728" viewBox="0 0 128 128"><g class="zen-downloads-circle-translate" transform="translate(0 -5.639)"><circle cx="64" cy="64" r="47.5" fill="context-fill" class="zen-downloads-bg"/><circle cx="64" cy="64" r="47.5" fill="context-fill" class="zen-downloads-gradient" style="mix-blend-mode:overlay;opacity:.1"/><circle cx="64" cy="64" r="47.5" stroke="context-stroke" stroke-width="7.1" class="zen-downloads-border"/></g><path stroke="context-stroke" stroke-linecap="round" stroke-linejoin="round" stroke-width="7.1" d="M64 39.867v38m-14-14 14 14 14-14" class="zen-downloads-arrow"/></svg><svg width="28" height="28" x="756" viewBox="0 0 128 128"><g class="zen-downloads-circle-translate" transform="translate(0 -3.928)"><circle cx="64" cy="64" r="47.5" fill="context-fill" class="zen-downloads-bg"/><circle cx="64" cy="64" r="47.5" fill="context-fill" class="zen-downloads-gradient" style="mix-blend-mode:overlay;opacity:.1"/><circle cx="64" cy="64" r="47.5" stroke="context-stroke" stroke-width="7.1" class="zen-downloads-border"/></g><path stroke="context-stroke" stroke-linecap="round" stroke-linejoin="round" stroke-width="7.1" d="M64 41.425v38m-14-14 14 14 14-14" class="zen-downloads-arrow"/></svg><svg width="28" height="28" x="784" viewBox="0 0 128 128"><g class="zen-downloads-circle-translate" transform="translate(0 -2.132)"><circle cx="64" cy="64" r="47.5" fill="context-fill" class="zen-downloads-bg"/><circle cx="64" cy="64" r="47.5" fill="context-fill" class="zen-downloads-gradient" style="mix-blend-mode:overlay;opacity:.1"/><circle cx="64" cy="64" r="47.5" stroke="context-stroke" stroke-width="7.1" class="zen-downloads-border"/></g><path stroke="context-stroke" stroke-linecap="round" stroke-linejoin="round" stroke-width="7.1" d="M64 43.033v38m-14-14 14 14 14-14" class="zen-downloads-arrow"/></svg><svg width="28" height="28" x="812" viewBox="0 0 128 128"><g class="zen-downloads-circle-translate" transform="translate(0 -.407)"><circle cx="64" cy="64" r="47.5" fill="context-fill" class="zen-downloads-bg"/><circle cx="64" cy="64" r="47.5" fill="context-fill" class="zen-downloads-gradient" style="mix-blend-mode:overlay;opacity:.1"/><circle cx="64" cy="64" r="47.5" stroke="context-stroke" stroke-width="7.1" class="zen-downloads-border"/></g><path stroke="context-stroke" stroke-linecap="round" stroke-linejoin="round" stroke-width="7.1" d="M64 44.559v38m-14-14 14 14 14-14" class="zen-downloads-arrow"/></svg><svg width="28" height="28" x="840" viewBox="0 0 128 128"><g class="zen-downloads-circle-translate" transform="translate(0 .851)"><circle cx="64" cy="64" r="47.5" fill="context-fill" class="zen-downloads-bg"/><circle cx="64" cy="64" r="47.5" fill="context-fill" class="zen-downloads-gradient" style="mix-blend-mode:overlay;opacity:.1"/><circle cx="64" cy="64" r="47.5" stroke="context-stroke" stroke-width="7.1" class="zen-downloads-border"/></g><path stroke="context-stroke" stroke-linecap="round" stroke-linejoin="round" stroke-width="7.1" d="M64 45.661v38m-14-14 14 14 14-14" class="zen-downloads-arrow"/></svg><svg width="28" height="28" x="868" viewBox="0 0 128 128"><g class="zen-downloads-circle-translate" transform="translate(0 .99)"><circle cx="64" cy="64" r="47.5" fill="context-fill" class="zen-downloads-bg"/><circle cx="64" cy="64" r="47.5" fill="context-fill" class="zen-downloads-gradient" style="mix-blend-mode:overlay;opacity:.1"/><circle cx="64" cy="64" r="47.5" stroke="context-stroke" stroke-width="7.1" class="zen-downloads-border"/></g><path stroke="context-stroke" stroke-linecap="round" stroke-linejoin="round" stroke-width="7.1" d="M64 45.846v38m-14-14 14 14 14-14" class="zen-downloads-arrow"/></svg><svg width="28" height="28" x="896" viewBox="0 0 128 128"><g class="zen-downloads-circle-translate" transform="translate(0 .823)"><circle cx="64" cy="64" r="47.5" fill="context-fill" class="zen-downloads-bg"/><circle cx="64" cy="64" r="47.5" fill="context-fill" class="zen-downloads-gradient" style="mix-blend-mode:overlay;opacity:.1"/><circle cx="64" cy="64" r="47.5" stroke="context-stroke" stroke-width="7.1" class="zen-downloads-border"/></g><path stroke="context-stroke" stroke-linecap="round" stroke-linejoin="round" stroke-width="7.1" d="M64 45.718v38m-14-14 14 14 14-14" class="zen-downloads-arrow"/></svg><svg width="28" height="28" x="924" viewBox="0 0 128 128"><g class="zen-downloads-circle-translate" transform="translate(0 .566)"><circle cx="64" cy="64" r="47.5" fill="context-fill" class="zen-downloads-bg"/><circle cx="64" cy="64" r="47.5" fill="context-fill" class="zen-downloads-gradient" style="mix-blend-mode:overlay;opacity:.1"/><circle cx="64" cy="64" r="47.5" stroke="context-stroke" stroke-width="7.1" class="zen-downloads-border"/></g><path stroke="context-stroke" stroke-linecap="round" stroke-linejoin="round" stroke-width="7.1" d="M64 45.496v38m-14-14 14 14 14-14" class="zen-downloads-arrow"/></svg><svg width="28" height="28" x="952" viewBox="0 0 128 128"><g class="zen-downloads-circle-translate" transform="translate(0 .271)"><circle cx="64" cy="64" r="47.5" fill="context-fill" class="zen-downloads-bg"/><circle cx="64" cy="64" r="47.5" fill="context-fill" class="zen-downloads-gradient" style="mix-blend-mode:overlay;opacity:.1"/><circle cx="64" cy="64" r="47.5" stroke="context-stroke" stroke-width="7.1" class="zen-downloads-border"/></g><path stroke="context-stroke" stroke-linecap="round" stroke-linejoin="round" stroke-width="7.1" d="M64 45.236v38m-14-14 14 14 14-14" class="zen-downloads-arrow"/></svg><svg width="28" height="28" x="980" viewBox="0 0 128 128"><g class="zen-downloads-circle-translate"><circle cx="64" cy="64" r="47.5" fill="context-fill" class="zen-downloads-bg"/><circle cx="64" cy="64" r="47.5" fill="context-fill" class="zen-downloads-gradient" style="mix-blend-mode:overlay;opacity:.1"/><circle cx="64" cy="64" r="47.5" stroke="context-stroke" stroke-width="7.1" class="zen-downloads-border"/></g><path stroke="context-stroke" stroke-linecap="round" stroke-linejoin="round" stroke-width="7.1" d="M64 45v38M50 69l14 14 14-14" class="zen-downloads-arrow"/></svg></svg>
