<svg width="16" height="16" xmlns="http://www.w3.org/2000/svg" fill="context-fill" fill-opacity="context-fill-opacity">
  <defs><clipPath id="a"><path d="M2.1 0 16 13.9V0zM0 .7V16h15.3z"/></clipPath></defs>
  <path clip-path="url(#a)" d="M12.94.182c-.08.004-.162.017-.242.043l-7 2.188a1 1 0 0 0-.701.955V11.5a2.5 2.5 0 1 0 1 2V6.368l7-2.188V9.5a2.5 2.5 0 1 0 1 2V1.18c0-.59-.5-1.032-1.057-.998zm.057.998v1.953l-7 2.188V3.368l7-2.188zm-1.5 8.82a1.5 1.5 0 1 1 0 3 1.5 1.5 0 0 1 0-3zm-8 2a1.5 1.5 0 1 1 0 3 1.5 1.5 0 0 1 0-3z"/>
  <path d="M.5 0a.5.5 0 0 0-.354.146.5.5 0 0 0 0 .707l15 15a.5.5 0 0 0 .707 0 .5.5 0 0 0 0-.707l-15-15A.5.5 0 0 0 .499 0z"/>
</svg>
