<svg width="16" height="16" xmlns="http://www.w3.org/2000/svg" fill="context-fill" fill-opacity="context-fill-opacity">
  <path d="M8.002.3a.99.99 0 0 0-.898.557L5.174 4.77l-4.316.627a1 1 0 0 0-.555 1.705l3.123 3.045-.736 4.3A1 1 0 0 0 4.14 15.5l3.862-2.029 3.859 2.03a1 1 0 0 0 1.45-1.056l-.736-4.299 3.123-3.045a1 1 0 0 0-.554-1.705l-4.316-.627L8.898.857A.987.987 0 0 0 8 .301zm0 1 1.93 3.91c.146.296.426.5.752.548l4.318.629-3.125 3.043c-.236.23-.343.562-.287.886l.738 4.3-3.86-2.03a1.002 1.002 0 0 0-.932 0l-3.86 2.03.737-4.3a1.003 1.003 0 0 0-.287-.886L1.003 6.387l4.316-.63a.998.998 0 0 0 .752-.546z"/>
</svg>
