<svg width="16" height="16" xmlns="http://www.w3.org/2000/svg" fill="context-fill" fill-opacity="context-fill-opacity">
  <path d="M2 0C.901 0 0 .901 0 2v1.5a.5.5 0 0 0 .5.5.5.5 0 0 0 .5-.5V2c0-.558.442-1 1-1h1.5A.5.5 0 0 0 4 .5a.5.5 0 0 0-.5-.5H2zm10.5 0a.5.5 0 0 0-.5.5.5.5 0 0 0 .5.5H14c.558 0 1 .442 1 1v1.5a.5.5 0 0 0 .5.5.5.5 0 0 0 .5-.5V2c0-1.099-.901-2-2-2h-1.5zm-8 2A2.508 2.508 0 0 0 2 4.5v7C2 12.875 3.125 14 4.5 14h7c1.375 0 2.5-1.125 2.5-2.5v-7C14 3.125 12.875 2 11.5 2h-7zm0 1H7v1.5C7 5.323 7.677 6 8.5 6H13v5.5c0 .834-.666 1.5-1.5 1.5h-7c-.834 0-1.5-.666-1.5-1.5v-7C3 3.666 3.666 3 4.5 3zM8 3h3.5c.834 0 1.5.666 1.5 1.5V5H8.5a.493.493 0 0 1-.5-.5V3zM.5 12a.5.5 0 0 0-.5.5V14c0 1.099.901 2 2 2h1.5a.5.5 0 0 0 .5-.5.5.5 0 0 0-.5-.5H2c-.558 0-1-.442-1-1v-1.5a.5.5 0 0 0-.5-.5zm15 0a.5.5 0 0 0-.5.5V14c0 .558-.442 1-1 1h-1.5a.5.5 0 0 0-.5.5.5.5 0 0 0 .5.5H14c1.099 0 2-.901 2-2v-1.5a.5.5 0 0 0-.5-.5z"/>
</svg>
