<svg width="16" height="16" xmlns="http://www.w3.org/2000/svg" fill="context-fill" fill-opacity="context-fill-opacity">
  <path d="M8 0C4.692 0 2 2.692 2 6v3.4l-.928 2.229c-.265.636.225 1.371.914 1.371H5.5c0 1.375 1.125 2.5 2.5 2.5s2.5-1.125 2.5-2.5h3.514c.69 0 1.18-.735.914-1.371L14.001 9.4V6c0-3.308-2.692-6-6-6zm0 1c2.767 0 5 2.233 5 5v3.5a.5.5 0 0 0 .04.191l.96 2.31H2l.96-2.31A.5.5 0 0 0 3 9.5V6c0-2.767 2.233-5 5-5zM6.5 13h3c0 .834-.666 1.5-1.5 1.5s-1.5-.666-1.5-1.5z" style="-inkscape-stroke:none;color:#000;stroke-linecap:round;stroke-linejoin:round"/>
</svg>
