<svg width="16" height="16" xmlns="http://www.w3.org/2000/svg" fill="context-fill" fill-opacity="context-fill-opacity">
  <path d="M11.5 0a4.5 4.5 0 0 0-4.418 5.36L.656 12.016a2.358 2.358 0 0 0 3.375 3.294l6.365-6.447a4.5 4.5 0 0 0 5.207-6.215.503.503 0 0 0-.81-.149L12.5 4.793 11.207 3.5 13.5 1.207A.5.5 0 0 0 13.353.4 4.49 4.49 0 0 0 11.499 0zm0 1c.247 0 .487.026.719.074l-2.072 2.072a.5.5 0 0 0 0 .707l2 2a.5.5 0 0 0 .707 0l2.072-2.072a3.5 3.5 0 0 1-4.52 4.045.502.502 0 0 0-.514.123L3.32 14.61a1.358 1.358 0 0 1-1.943-1.896L7.99 5.859a.498.498 0 0 0 .123-.473A3.5 3.5 0 0 1 11.5.999z"/>
</svg>
