<svg width="20" height="20" viewBox="0 0 20 20" fill="none" xmlns="http://www.w3.org/2000/svg">
    <path d="M6.5 6C7.32843 6 8 5.32843 8 4.5C8 3.67157 7.32843 3 6.5 3C5.67157 3 5 3.67157 5 4.5C5 5.32843 5.67157 6 6.5 6ZM6.5 11C7.32843 11 8 10.3284 8 9.5C8 8.67157 7.32843 8 6.5 8C5.67157 8 5 8.67157 5 9.5C5 10.3284 5.67157 11 6.5 11ZM8 14.5C8 15.3284 7.32843 16 6.5 16C5.67157 16 5 15.3284 5 14.5C5 13.6716 5.67157 13 6.5 13C7.32843 13 8 13.6716 8 14.5ZM13.5 6C14.3284 6 15 5.32843 15 4.5C15 3.67157 14.3284 3 13.5 3C12.6716 3 12 3.67157 12 4.5C12 5.32843 12.6716 6 13.5 6ZM15 9.5C15 10.3284 14.3284 11 13.5 11C12.6716 11 12 10.3284 12 9.5C12 8.67157 12.6716 8 13.5 8C14.3284 8 15 8.67157 15 9.5ZM13.5 16C14.3284 16 15 15.3284 15 14.5C15 13.6716 14.3284 13 13.5 13C12.6716 13 12 13.6716 12 14.5C12 15.3284 12.6716 16 13.5 16Z" fill="currentColor"/>
</svg>
