<svg width="16" height="16" xmlns="http://www.w3.org/2000/svg" fill="context-fill" fill-opacity="context-fill-opacity">
  <path d="M8 .5A2.5 2.5 0 0 0 5.5 3H1a.5.5 0 0 0-.5.5l.008.09A.5.5 0 0 0 1 4h.553L2.85 14.229A2 2 0 0 0 4.836 16h6.328a2 2 0 0 0 1.986-1.771L14.445 4H15a.5.5 0 0 0 0-1h-4.5A2.5 2.5 0 0 0 8 .5zm0 1A1.5 1.5 0 0 1 9.5 3h-3A1.5 1.5 0 0 1 8 1.5zM2.56 4h10.877l-1.28 10.116a.998.998 0 0 1-.993.884H4.836a.998.998 0 0 1-.992-.884zM6.5 6.5c-.276 0-.5.196-.5.438v5.124l.008.078c.042.204.247.36.492.36.276 0 .5-.196.5-.438V6.938l-.008-.079C6.95 6.655 6.745 6.5 6.5 6.5zm3 0c-.276 0-.5.196-.5.438v5.124l.008.078c.042.204.247.36.492.36.276 0 .5-.196.5-.438V6.938l-.008-.079C9.95 6.655 9.745 6.5 9.5 6.5z"/>
</svg>
