<svg width="16" height="16" xmlns="http://www.w3.org/2000/svg" fill="context-fill" fill-opacity="context-fill-opacity">
  <path d="M6.5 0a1.5 1.5 0 0 0-1.414 1H3.5A1.5 1.5 0 0 0 2 2.5v12A1.5 1.5 0 0 0 3.5 16h3a.5.5 0 0 0 0-1h-3a.5.5 0 0 1-.5-.5v-12a.5.5 0 0 1 .5-.5h1.586A1.5 1.5 0 0 0 6.5 3h3a1.5 1.5 0 0 0 1.414-1H12.5a.5.5 0 0 1 .5.5v1a.5.5 0 0 0 1 0v-1A1.5 1.5 0 0 0 12.5 1h-1.586A1.5 1.5 0 0 0 9.5 0h-3zm0 1h3a.5.5 0 0 1 0 1h-3a.5.5 0 0 1 0-1zm3 4A1.5 1.5 0 0 0 8 6.5v8A1.5 1.5 0 0 0 9.5 16h5a1.5 1.5 0 0 0 1.5-1.5v-8A1.5 1.5 0 0 0 14.5 5h-5zm0 1h5a.5.5 0 0 1 .5.5v8a.5.5 0 0 1-.5.5h-5a.5.5 0 0 1-.5-.5v-8a.5.5 0 0 1 .5-.5z"/>
</svg>
