<svg width="16" height="16" xmlns="http://www.w3.org/2000/svg" fill="context-fill" fill-opacity="context-fill-opacity">
  <defs><clipPath id="a"><path d="M2.1 0 16 13.9V0zM0 .7V16h15.3z"/></clipPath></defs>
  <path clip-path="url(#a)" d="m8.25 0-.154.006a2.249 2.249 0 0 0-2.074 1.939L6.014 2H3.502l-.145.006A1.5 1.5 0 0 0 2.002 3.5v2.264l-.058.006A2.25 2.25 0 0 0 0 8.001l.006.155a2.249 2.249 0 0 0 1.939 2.074l.056.005v2.266l.006.145A1.5 1.5 0 0 0 3.502 14h2.014l.006.055a2.25 2.25 0 0 0 2.23 1.943l.154-.006a2.25 2.25 0 0 0 2.074-1.94L9.986 14h2.516a1.5 1.5 0 0 0 1.5-1.5L14 9.247l-1.75.002-.123-.006A1.246 1.246 0 0 1 11 8l.006-.123A1.246 1.246 0 0 1 12.25 6.75L14 6.747l.002-3.246-.008-.144a1.499 1.499 0 0 0-1.492-1.355h-2.018l-.004-.057A2.252 2.252 0 0 0 8.25 0zm0 1c.69 0 1.25.56 1.25 1.25V3l3.002.002.09.008a.5.5 0 0 1 .41.492v2.246l-.752.002a2.25 2.25 0 0 0-2.242 2.066L10 7.98c0 1.194.903 2.167 2.066 2.262l.164.008.772-.002v2.254a.5.5 0 0 1-.5.5L9 13l.002.752a1.25 1.25 0 0 1-2.5-.002L6.5 13l-2.998.002a.5.5 0 0 1-.5-.5L3 9.25l-.752.002a1.249 1.249 0 1 1 .002-2.5L3 6.75l.002-3.248a.5.5 0 0 1 .5-.5L7 3v-.75C7 1.56 7.56 1 8.25 1z"/>
  <path d="M.5 0a.5.5 0 0 0-.354.146.5.5 0 0 0 0 .707l15 15a.5.5 0 0 0 .707 0 .5.5 0 0 0 0-.707l-15-15A.5.5 0 0 0 .499 0z"/>
</svg>
