<svg xmlns="http://www.w3.org/2000/svg" xmlns:xlink="http://www.w3.org/1999/xlink" viewBox="0 0 80.04 79.86"><defs><style>.cls-1{fill:url(#radial-gradient);}.cls-2,.cls-8,.cls-9{isolation:isolate;}.cls-2{opacity:0.67;fill:url(#radial-gradient-2);}.cls-3{fill:url(#radial-gradient-3);}.cls-4{fill:url(#radial-gradient-4);}.cls-5{fill:url(#radial-gradient-5);}.cls-6{fill:url(#radial-gradient-6);}.cls-7{fill:url(#radial-gradient-7);}.cls-8,.cls-9{opacity:0.53;}.cls-8{fill:url(#radial-gradient-8);}.cls-9{fill:url(#radial-gradient-9);}.cls-10{fill:url(#radial-gradient-10);}.cls-11{fill:url(#linear-gradient);}.cls-12{fill:url(#linear-gradient-2);}.cls-13{fill:url(#linear-gradient-3);}</style><radialGradient id="radial-gradient" cx="-1136.61" cy="-313.39" r="0.9" gradientTransform="translate(91030.51 25039.82) scale(80.02 79.86)" gradientUnits="userSpaceOnUse"><stop offset="0" stop-color="#fff36e"/><stop offset="0.5" stop-color="#fc4055"/><stop offset="1" stop-color="#e31587"/></radialGradient><radialGradient id="radial-gradient-2" cx="-1137.47" cy="-313.36" r="0.7" gradientTransform="translate(91030.51 25039.82) scale(80.02 79.86)" gradientUnits="userSpaceOnUse"><stop offset="0" stop-color="#c60084"/><stop offset="1" stop-color="#fc4055" stop-opacity="0"/></radialGradient><radialGradient id="radial-gradient-3" cx="-1136.47" cy="-313.46" r="1.33" gradientTransform="translate(91030.51 25039.82) scale(80.02 79.86)" gradientUnits="userSpaceOnUse"><stop offset="0" stop-color="#ffde67" stop-opacity="0.6"/><stop offset="0.66" stop-color="#fc4055" stop-opacity="0"/></radialGradient><radialGradient id="radial-gradient-4" cx="-1137.13" cy="-313.03" r="1.75" gradientTransform="translate(91030.51 25039.82) scale(80.02 79.86)" gradientUnits="userSpaceOnUse"><stop offset="0.15" stop-color="#810220"/><stop offset="0.27" stop-color="#fc4055" stop-opacity="0"/></radialGradient><radialGradient id="radial-gradient-5" cx="-1137.04" cy="-312.99" r="1.6" gradientTransform="translate(91030.51 25039.82) scale(80.02 79.86)" gradientUnits="userSpaceOnUse"><stop offset="0.12" stop-color="#810220"/><stop offset="0.3" stop-color="#fc4055" stop-opacity="0"/></radialGradient><radialGradient id="radial-gradient-6" cx="-1134.98" cy="-312.47" r="1.11" gradientTransform="translate(81308.57 22427.9) scale(71.58 71.75)" gradientUnits="userSpaceOnUse"><stop offset="0" stop-color="#ff9640"/><stop offset="0.8" stop-color="#fc4055"/></radialGradient><radialGradient id="radial-gradient-7" cx="-1134.97" cy="-312.4" r="1.13" gradientTransform="translate(81308.57 22427.9) scale(71.58 71.75)" gradientUnits="userSpaceOnUse"><stop offset="0.09" stop-color="#ffde67"/><stop offset="0.82" stop-color="#ff9640" stop-opacity="0"/></radialGradient><radialGradient id="radial-gradient-8" cx="-1135.25" cy="-312.09" r="0.54" gradientTransform="translate(81308.57 22427.9) scale(71.58 71.75)" gradientUnits="userSpaceOnUse"><stop offset="0.36" stop-color="#fc4055"/><stop offset="0.59" stop-color="#ff9640" stop-opacity="0"/></radialGradient><radialGradient id="radial-gradient-9" cx="-1135.35" cy="-312.06" r="0.54" gradientTransform="translate(81308.57 22427.9) scale(71.58 71.75)" gradientUnits="userSpaceOnUse"><stop offset="0.22" stop-color="#fc4055" stop-opacity="0.8"/><stop offset="0.47" stop-color="#ff9640" stop-opacity="0"/></radialGradient><radialGradient id="radial-gradient-10" cx="-1130.08" cy="-310.02" r="1.7" gradientTransform="translate(62665.27 17519.34) scale(55.38 56.5)" gradientUnits="userSpaceOnUse"><stop offset="0.05" stop-color="#fff36e"/><stop offset="0.55" stop-color="#ff9640"/><stop offset="0.7" stop-color="#ff9640"/></radialGradient><linearGradient id="linear-gradient" x1="-1130.5" y1="-308.51" x2="-1130.21" y2="-307.69" gradientTransform="translate(61830.19 15468.97) scale(54.66 50.14)" gradientUnits="userSpaceOnUse"><stop offset="0" stop-color="#b833e1"/><stop offset="0.37" stop-color="#9059ff"/><stop offset="1" stop-color="#0090ed"/></linearGradient><linearGradient id="linear-gradient-2" x1="-1130.17" y1="-307.9" x2="-1130.7" y2="-308.51" gradientTransform="translate(61830.19 15468.97) scale(54.66 50.14)" gradientUnits="userSpaceOnUse"><stop offset="0" stop-color="#592acb" stop-opacity="0.5"/><stop offset="0.24" stop-color="#722291" stop-opacity="0"/></linearGradient><linearGradient id="linear-gradient-3" x1="-1136.85" y1="-312.43" x2="-1137.39" y2="-311.53" gradientTransform="translate(91030.19 22256.38) scale(80.02 71.19)" gradientUnits="userSpaceOnUse"><stop offset="0" stop-color="#fff36e" stop-opacity="0.8"/><stop offset="0.09" stop-color="#fff36e" stop-opacity="0.7"/><stop offset="0.75" stop-color="#fff36e" stop-opacity="0"/></linearGradient></defs><g id="Layer_2" data-name="Layer 2"><g id="katman_1" data-name="katman 1"><path class="cls-1" d="M72,15.7A39.45,39.45,0,0,0,41.61,0c-9.29-.19-15.7,2.6-19.33,4.85C27.14,2,34.17.44,40.32.52c15.83.2,32.83,11,35.36,30.41,2.9,22.31-12.64,40.92-34.49,41C17.14,72,2.52,50.68,6.34,31.56a20.18,20.18,0,0,1,.41-2.79,38,38,0,0,1,4.19-14c-2.77,1.43-6.29,6-8,10.16A41.37,41.37,0,0,0,.31,45.09c.06.52.11,1,.18,1.55A40.07,40.07,0,1,0,72,15.7Z"/><path class="cls-2" d="M72,15.7A39.45,39.45,0,0,0,41.61,0c-9.29-.19-15.7,2.6-19.33,4.85C27.14,2,34.17.44,40.32.52c15.83.2,32.83,11,35.36,30.41,2.9,22.31-12.64,40.92-34.49,41C17.14,72,2.52,50.68,6.34,31.56a20.18,20.18,0,0,1,.41-2.79,38,38,0,0,1,4.19-14c-2.77,1.43-6.29,6-8,10.16A41.37,41.37,0,0,0,.31,45.09c.06.52.11,1,.18,1.55A40.07,40.07,0,1,0,72,15.7Z"/><path class="cls-3" d="M72,15.7A39.45,39.45,0,0,0,41.61,0c-9.29-.19-15.7,2.6-19.33,4.85C27.14,2,34.17.44,40.32.52c15.83.2,32.83,11,35.36,30.41,2.9,22.31-12.64,40.92-34.49,41C17.14,72,2.52,50.68,6.34,31.56a20.18,20.18,0,0,1,.41-2.79,38,38,0,0,1,4.19-14c-2.77,1.43-6.29,6-8,10.16A41.37,41.37,0,0,0,.31,45.09c.06.52.11,1,.18,1.55A40.07,40.07,0,1,0,72,15.7Z"/><path class="cls-4" d="M72,15.7A39.45,39.45,0,0,0,41.61,0c-9.29-.19-15.7,2.6-19.33,4.85C27.14,2,34.17.44,40.32.52c15.83.2,32.83,11,35.36,30.41,2.9,22.31-12.64,40.92-34.49,41C17.14,72,2.52,50.68,6.34,31.56a20.18,20.18,0,0,1,.41-2.79,38,38,0,0,1,4.19-14c-2.77,1.43-6.29,6-8,10.16A41.37,41.37,0,0,0,.31,45.09c.06.52.11,1,.18,1.55A40.07,40.07,0,1,0,72,15.7Z"/><path class="cls-5" d="M72,15.7A39.45,39.45,0,0,0,41.61,0c-9.29-.19-15.7,2.6-19.33,4.85C27.14,2,34.17.44,40.32.52c15.83.2,32.83,11,35.36,30.41,2.9,22.31-12.64,40.92-34.49,41C17.14,72,2.52,50.68,6.34,31.56a20.18,20.18,0,0,1,.41-2.79,38,38,0,0,1,4.19-14c-2.77,1.43-6.29,6-8,10.16A41.37,41.37,0,0,0,.31,45.09c.06.52.11,1,.18,1.55A40.07,40.07,0,1,0,72,15.7Z"/><path class="cls-6" d="M76.66,29.83C74.41,9.52,56.3.39,40.33.53c-6.15,0-13.18,1.52-18,4.34a19.52,19.52,0,0,0-3.56,2.7c.13-.11.51-.42,1.15-.86l.06,0,.06,0a26.68,26.68,0,0,1,7.69-3.57A43.16,43.16,0,0,1,40.87,1.52a33.26,33.26,0,0,1,31.25,32c.37,13.21-10.44,23.74-22.9,24.35-9.06.44-17.6-3.94-21.77-12.71a21.35,21.35,0,0,1-2-6.33c-2-13.35,7-24.74,15.21-27.55C36.26,7.4,25.15,7.66,16.88,13.74c-6,4.38-9.82,11-11.1,19a33,33,0,0,0,2.34,18A35.29,35.29,0,0,0,38.21,72.18c1,.08,2,.11,3,.11C67.65,72.27,79.13,52.18,76.66,29.83Z"/><path class="cls-7" d="M76.66,29.83C74.41,9.52,56.3.39,40.33.53c-6.15,0-13.18,1.52-18,4.34a19.52,19.52,0,0,0-3.56,2.7c.13-.11.51-.42,1.15-.86l.06,0,.06,0a26.68,26.68,0,0,1,7.69-3.57A43.16,43.16,0,0,1,40.87,1.52a33.26,33.26,0,0,1,31.25,32c.37,13.21-10.44,23.74-22.9,24.35-9.06.44-17.6-3.94-21.77-12.71a21.35,21.35,0,0,1-2-6.33c-2-13.35,7-24.74,15.21-27.55C36.26,7.4,25.15,7.66,16.88,13.74c-6,4.38-9.82,11-11.1,19a33,33,0,0,0,2.34,18A35.29,35.29,0,0,0,38.21,72.18c1,.08,2,.11,3,.11C67.65,72.27,79.13,52.18,76.66,29.83Z"/><path class="cls-8" d="M76.66,29.83C74.41,9.52,56.3.39,40.33.53c-6.15,0-13.18,1.52-18,4.34a19.52,19.52,0,0,0-3.56,2.7c.13-.11.51-.42,1.15-.86l.06,0,.06,0a26.68,26.68,0,0,1,7.69-3.57A43.16,43.16,0,0,1,40.87,1.52a33.26,33.26,0,0,1,31.25,32c.37,13.21-10.44,23.74-22.9,24.35-9.06.44-17.6-3.94-21.77-12.71a21.35,21.35,0,0,1-2-6.33c-2-13.35,7-24.74,15.21-27.55C36.26,7.4,25.15,7.66,16.88,13.74c-6,4.38-9.82,11-11.1,19a33,33,0,0,0,2.34,18A35.29,35.29,0,0,0,38.21,72.18c1,.08,2,.11,3,.11C67.65,72.27,79.13,52.18,76.66,29.83Z"/><path class="cls-9" d="M76.66,29.83C74.41,9.52,56.3.39,40.33.53c-6.15,0-13.18,1.52-18,4.34a19.52,19.52,0,0,0-3.56,2.7c.13-.11.51-.42,1.15-.86l.06,0,.06,0a26.68,26.68,0,0,1,7.69-3.57A43.16,43.16,0,0,1,40.87,1.52a33.26,33.26,0,0,1,31.25,32c.37,13.21-10.44,23.74-22.9,24.35-9.06.44-17.6-3.94-21.77-12.71a21.35,21.35,0,0,1-2-6.33c-2-13.35,7-24.74,15.21-27.55C36.26,7.4,25.15,7.66,16.88,13.74c-6,4.38-9.82,11-11.1,19a33,33,0,0,0,2.34,18A35.29,35.29,0,0,0,38.21,72.18c1,.08,2,.11,3,.11C67.65,72.27,79.13,52.18,76.66,29.83Z"/><path class="cls-10" d="M49.22,57.84c17.1-1,24.42-15.2,24.88-25.24C74.82,16.91,65.5,0,40.87,1.5A43.44,43.44,0,0,0,27.69,3.05,29,29,0,0,0,20,6.62l-.06,0-.06,0c-.38.27-.76.55-1.12.84a33.47,33.47,0,0,1,21-3.94C53.88,5.46,66.81,16.46,66.81,31c0,11.17-8.63,19.7-18.74,19.09-15-.9-18.8-16.3-11-23-2.11-.45-6.06.43-8.82,4.56-2.47,3.7-2.33,9.41-.81,13.46A22.11,22.11,0,0,0,49.22,57.84Z"/><path class="cls-11" d="M72.05,18.73a22.42,22.42,0,0,0-4.88-8.14A30.29,30.29,0,0,0,58.08,4.1,40.67,40.67,0,0,0,49.14.93,39.88,39.88,0,0,0,32.57.83C26.89,2,21.89,4.49,18.73,7.56a32.23,32.23,0,0,1,8-3.2,33.57,33.57,0,0,1,31.17,8.1,27.2,27.2,0,0,1,4.33,5.3c4.9,8,4.43,18,.62,23.87C60.05,46,54,50.13,48.31,50.08A23.62,23.62,0,0,0,70,39.21C74,33,74.14,25.06,72.05,18.73Z"/><path class="cls-12" d="M72.05,18.73a22.42,22.42,0,0,0-4.88-8.14A30.29,30.29,0,0,0,58.08,4.1,40.67,40.67,0,0,0,49.14.93,39.88,39.88,0,0,0,32.57.83C26.89,2,21.89,4.49,18.73,7.56a32.23,32.23,0,0,1,8-3.2,33.57,33.57,0,0,1,31.17,8.1,27.2,27.2,0,0,1,4.33,5.3c4.9,8,4.43,18,.62,23.87C60.05,46,54,50.13,48.31,50.08A23.62,23.62,0,0,0,70,39.21C74,33,74.14,25.06,72.05,18.73Z"/><path class="cls-13" d="M72,15.7a39.82,39.82,0,0,0-3.48-4,31.54,31.54,0,0,0-3.18-2.93,24,24,0,0,1,1.85,1.79A22.5,22.5,0,0,1,72,18.72C74.13,25.05,74,33,70,39.19A23.54,23.54,0,0,1,49.14,50.08c-.36,0-.72,0-1.09,0-15-.9-18.8-16.3-11-22.95-2.11-.45-6.07.43-8.82,4.56-2.47,3.7-2.33,9.41-.81,13.46a21.35,21.35,0,0,1-2-6.33c-2-13.35,7-24.74,15.21-27.55-4.44-3.87-15.55-3.61-23.82,2.47A27.88,27.88,0,0,0,6.77,28.31a38.62,38.62,0,0,1,4.16-13.55c-2.77,1.43-6.29,6-8,10.16A41.36,41.36,0,0,0,.3,45.1c.06.52.11,1,.18,1.55A40.07,40.07,0,1,0,72,15.7Z"/></g></g></svg>