<svg width="16" height="16" xmlns="http://www.w3.org/2000/svg" fill="context-fill" fill-opacity="context-fill-opacity">
  <path d="M10.39 0C8.948.788 7.987 2.025 7.767 3.66c-1.017.162-1.768.781-1.768.781s.72-.44 1.736-.511a4.04 4.04 0 0 1 3.789 2.034s-.758-.62-1.928-.468c1.315.68 1.872 2.002 1.701 3.369-.17 1.367-1.183 2.435-2.354 2.723-1.171.287-2.333.099-3.229-.61-.896-.708-1.251-1.533-1.305-2.254.213-.533.541-.812 1.1-1.092.558-.279 1.422-.283 1.572-.283s.8-.507.95-.894c-.726-.363-1.292-.65-1.696-.934-.404-.283-.492-.534-1.012-.898-.307-1.006-.021-1.955-.021-1.955s-1.043.437-1.93 1.49c0 0-.342-.338-.28-2.006-.427.155-1.366 1.004-1.947 1.92a7.277 7.277 0 0 0-.798 1.723A8.296 8.296 0 0 0-.003 8a8 8 0 0 0 16 0c0-2.256-.93-4.252-2.188-5.002 0 0 .542.932.813 2.43-.4-1.04-1.235-2.166-1.877-2.844-.643-.678-2.068-1.88-2.357-2.584z"/>
</svg>
