<svg width="16" height="16" xmlns="http://www.w3.org/2000/svg" fill="context-fill" fill-opacity="context-fill-opacity">
  <path d="M8.5 1a.5.5 0 0 0-.5.5l.008.09A.5.5 0 0 0 8.5 2h4.793L2.003 13.29V8.497l-.008-.09a.5.5 0 0 0-.992.09l.002 6.018v.008a.507.507 0 0 0 .01.08l.006.023.029.082.04.075.03.037.06.06.055.04.077.04.103.03.068.007h6.02l.09-.007a.5.5 0 0 0 .41-.493l-.007-.09a.5.5 0 0 0-.493-.41H2.708l11.29-11.29v4.795l.008.09a.5.5 0 0 0 .992-.09v-6l-.002-.044-.013-.084-.031-.083-.041-.074-.03-.037-.06-.06-.055-.04-.076-.04-.063-.02-.086-.016zM1.002 14.53v.018l.004.03z"/>
</svg>
