<svg width="16" height="16" xmlns="http://www.w3.org/2000/svg" fill="context-fill" fill-opacity="context-fill-opacity">
  <path d="M8 0a8 8 0 1 0 0 16A8 8 0 0 0 8 0zm0 1a7 7 0 1 1 0 14A7 7 0 0 1 8 1zm0 2.5A2.5 2.5 0 0 0 5.5 6a.5.5 0 0 0 1 0 1.5 1.5 0 1 1 2.525 1.094l-.117.102-.248.183a3.094 3.094 0 0 0-.355.323C7.792 8.247 7.5 8.989 7.5 10a.5.5 0 0 0 1 0c0-.758.197-1.253.535-1.613.05-.053.1-.103.156-.15l.086-.071.22-.164.153-.125A2.5 2.5 0 0 0 8 3.5zm0 8A.75.75 0 1 0 8 13a.75.75 0 0 0 0-1.5z"/>
</svg>
