<svg width="16" height="16" xmlns="http://www.w3.org/2000/svg" fill="context-fill" fill-opacity="context-fill-opacity">
  <path d="M8 0c-.359 0-.717.129-1.002.385l-5.5 4.94A1.5 1.5 0 0 0 1 6.442v7.055a1.5 1.5 0 0 0 1.5 1.5H5a1.5 1.5 0 0 0 1.5-1.5v-3.5a.5.5 0 0 1 .5-.5h2a.5.5 0 0 1 .5.5v3.5a1.5 1.5 0 0 0 1.5 1.5h2.5a1.5 1.5 0 0 0 1.5-1.5V6.44c0-.426-.181-.83-.498-1.115L9.002.385A1.496 1.496 0 0 0 8 0zm0 1a.5.5 0 0 1 .334.129l5.5 4.94c.105.096.166.23.166.372v7.055a.5.5 0 0 1-.5.5H11a.5.5 0 0 1-.5-.5v-3.5a1.5 1.5 0 0 0-1.5-1.5H7a1.5 1.5 0 0 0-1.5 1.5v3.5a.5.5 0 0 1-.5.5H2.5a.5.5 0 0 1-.5-.5V6.441c0-.142.06-.276.166-.371l5.5-4.941A.5.5 0 0 1 8 1z"/>
</svg>
