<svg width="16" height="16" xmlns="http://www.w3.org/2000/svg" fill="context-fill" fill-opacity="context-fill-opacity">
  <path d="M6.498 5.497a.998.998 0 1 0 0-1.995.998.998 0 0 0 0 1.995z"/>
  <path d="M3 4a3 3 0 0 1 3-3h6a3 3 0 0 1 3 3v6a3 3 0 0 1-3 3H6a3 3 0 0 1-3-3zm3-2a2 2 0 0 0-2 2v6c0 .37.101.718.277 1.016L7.79 7.502a1.71 1.71 0 0 1 2.418 0l3.514 3.514c.176-.298.277-.645.277-1.016V4a2 2 0 0 0-2-2zm7.016 9.723L9.502 8.209a.71.71 0 0 0-1.004 0l-3.514 3.514c.298.176.645.277 1.016.277h6c.37 0 .718-.101 1.016-.277z"/>
  <path d="M10 15c.888 0 1.687-.386 2.236-1H5.5A3.5 3.5 0 0 1 2 10.5V3.764C1.386 4.314 1 5.112 1 6v4.5A4.5 4.5 0 0 0 5.5 15z"/>
</svg>
