<svg width="16" height="16" xmlns="http://www.w3.org/2000/svg" fill="context-fill" fill-opacity="context-fill-opacity">
  <path d="M9.957.502a.501.501 0 0 0-.37.783l.06.069 1.656 1.656c-.1-.006-.201-.01-.303-.01H5l-.217.004a5 5 0 0 0-3.69 8.119.5.5 0 1 0 .8-.602A4 4 0 0 1 5 4h6.002l.143.002.14.008-1.637 1.636-.058.069a.503.503 0 0 0 0 .57l.058.069.069.058c.17.118.4.118.57 0l.069-.058 2.5-2.5.058-.069a.503.503 0 0 0 0-.57l-.058-.069-2.5-2.5-.069-.058a.502.502 0 0 0-.328-.086zm4.543 4.17a.5.5 0 0 0-.39.812A4 4 0 0 1 11 12H5l-.143-.002-.14-.008 1.637-1.636.058-.069a.501.501 0 0 0-.766-.639l-2.5 2.5-.058.069a.501.501 0 0 0 .058.639l2.5 2.5.069.058a.501.501 0 0 0 .639-.058l.058-.069a.501.501 0 0 0-.058-.639L4.697 12.99c.1.006.201.01.303.01h6l.217-.004a5 5 0 0 0 3.676-8.135l-.018-.021-.066-.063a.498.498 0 0 0-.309-.105z"/>
</svg>
