<!--
   - This Source Code Form is subject to the terms of the Mozilla Public
   - License, v. 2.0. If a copy of the MPL was not distributed with this
   - file, You can obtain one at http://mozilla.org/MPL/2.0/.
   -->
<svg width="16" height="16" xmlns="http://www.w3.org/2000/svg" fill="context-fill" fill-opacity="context-fill-opacity">
  <path d="M7 5.5a.5.5 0 0 0-1 0v5a.5.5 0 0 0 1 0zm3 0a.5.5 0 0 0-1 0v5a.5.5 0 0 0 1 0zM8 0a8 8 0 1 0 0 16A8 8 0 0 0 8 0zM1 8a7 7 0 1 1 14 0A7 7 0 0 1 1 8z"/>
</svg>
