<svg width="16" height="16" xmlns="http://www.w3.org/2000/svg" fill="context-fill" fill-opacity="context-fill-opacity">
  <defs><clipPath id="a"><path d="M2.1 0 16 13.9V0zM0 .7V16h15.3z"/></clipPath></defs>
  <path clip-path="url(#a)" d="M8 0a3 3 0 0 0-3 3v5a3 3 0 1 0 6 0V3a3 3 0 0 0-3-3zm0 1a2 2 0 0 1 2 2v5a2 2 0 1 1-4 0V3a2 2 0 0 1 2-2zM3 7.5a.5.5 0 0 0-.5.5 5.502 5.502 0 0 0 5 5.479V15.5a.5.5 0 0 0 1 0v-2.021A5.502 5.502 0 0 0 13.5 8a.5.5 0 0 0-1 0 4.5 4.5 0 0 1-9 0 .5.5 0 0 0-.5-.5z"/>
  <path d="M.5 0a.5.5 0 0 0-.354.146.5.5 0 0 0 0 .707l15 15a.5.5 0 0 0 .707 0 .5.5 0 0 0 0-.707l-15-15A.5.5 0 0 0 .499 0z"/>
</svg>
