<svg width="16" height="16" xmlns="http://www.w3.org/2000/svg" fill="context-fill" fill-opacity="context-fill-opacity">
  <path d="M10.5 0C7.424 0 5 2.424 5 5.5c0 .397.04.795.121 1.174.058.27-.007.505-.14.639l-4.542 4.54A1.5 1.5 0 0 0 0 12.916V14.5A1.5 1.5 0 0 0 1.5 16h2A1.5 1.5 0 0 0 5 14.5V14h1a1 1 0 0 0 1-1v-1h1a1 1 0 0 0 1-1v-.18c.493.134 1.007.18 1.5.18 3.076 0 5.5-2.424 5.5-5.5S13.576 0 10.5 0zm0 1C13.024 1 15 2.976 15 5.5S13.024 10 10.5 10c-.66 0-1.274-.096-1.777-.348A.5.5 0 0 0 8 10.1v.9H7a1 1 0 0 0-1 1v1H5a1 1 0 0 0-1 1v.5a.5.5 0 0 1-.5.5h-2a.5.5 0 0 1-.5-.5v-1.586a.5.5 0 0 1 .147-.354l4.54-4.54c.433-.433.523-1.044.413-1.556A4.626 4.626 0 0 1 6 5.5C6 2.976 7.976 1 10.5 1zM12 3a1 1 0 1 0 0 2 1 1 0 0 0 0-2z"/>
</svg>
