<svg width="16" height="16" xmlns="http://www.w3.org/2000/svg" fill="context-fill" fill-opacity="context-fill-opacity">
  <path d="M5.5 0a1.5 1.5 0 0 0-1.414 1H2.5A1.5 1.5 0 0 0 1 2.5v12A1.5 1.5 0 0 0 2.5 16h5.844a5.536 5.536 0 0 1-1.086-1H2.5a.5.5 0 0 1-.5-.5v-12a.5.5 0 0 1 .5-.5h1.586A1.5 1.5 0 0 0 5.5 3h3a1.5 1.5 0 0 0 1.414-1H11.5a.5.5 0 0 1 .5.5v3.525c.344.031.677.096 1 .188V2.5A1.5 1.5 0 0 0 11.5 1H9.914A1.5 1.5 0 0 0 8.5 0h-3zm0 1h3a.5.5 0 0 1 0 1h-3a.5.5 0 0 1 0-1zm6 6a4.5 4.5 0 1 0 0 9 4.5 4.5 0 0 0 0-9zm0 2c.128 0 .256.049.354.146l2 2a.502.502 0 0 1 .146.35v.008a.495.495 0 0 1-.145.348l-.001.002-2 2a.5.5 0 0 1-.708-.708L12.293 12H9.5a.5.5 0 0 1 0-1h2.793l-1.147-1.146A.5.5 0 0 1 11.5 9z"/>
</svg>
