<svg width="16" height="16" xmlns="http://www.w3.org/2000/svg" fill="context-fill" fill-opacity="context-fill-opacity">
  <path d="M4 2a3 3 0 0 0-3 3 3 3 0 0 0 3 3 3 3 0 0 0 3-3 3 3 0 0 0-3-3zm0 1a2 2 0 0 1 2 2 2 2 0 0 1-2 2 2 2 0 0 1-2-2 2 2 0 0 1 2-2zm3.87 1a4 4 0 0 1 .127 1h6.5a.5.5 0 0 0 .5-.5.5.5 0 0 0-.5-.5h-6.63zM12 8a3 3 0 0 0-3 3 3 3 0 0 0 3 3 3 3 0 0 0 3-3 3 3 0 0 0-3-3zm0 1a2 2 0 0 1 2 2 2 2 0 0 1-2 2 2 2 0 0 1-2-2 2 2 0 0 1 2-2zM1.5 11a.5.5 0 0 0-.5.5.5.5 0 0 0 .5.5h6.63a4 4 0 0 1-.135-1h-6.5z"/>
</svg>
