<svg width="16" height="16" xmlns="http://www.w3.org/2000/svg" fill="context-fill" fill-opacity="context-fill-opacity">
  <path d="M10.049 1.004a1.995 1.995 0 0 0-1.926 1.101l-1.73 3.46a1.503 1.503 0 0 1-.786.722l-3.59 1.436a.999.999 0 0 0-.333 1.634l2.609 2.612L1 15.262v.707h.707L5 12.676l2.61 2.61a1 1 0 0 0 1.636-.337l1.436-3.59a1.5 1.5 0 0 1 .722-.783l3.457-1.73a2 2 0 0 0 .522-3.203l-4.059-4.057a1.978 1.978 0 0 0-1.275-.582zm-.069.998c.23.015.456.11.637.291l4.059 4.057a1 1 0 0 1-.262 1.601l-3.457 1.73a2.498 2.498 0 0 0-1.203 1.307l-1.436 3.59L2.391 8.65l3.59-1.435a2.498 2.498 0 0 0 1.306-1.203l1.729-3.46a1 1 0 0 1 .964-.55z"/>
</svg>
