<svg width="16" height="16" xmlns="http://www.w3.org/2000/svg" fill="context-fill" fill-opacity="context-fill-opacity">
  <defs><clipPath id="a"><path d="M2.1 0 16 13.9V0zM0 .7V16h15.3z"/></clipPath></defs>
  <path clip-path="url(#a)" d="M8.5 1a.5.5 0 0 0-.5.5.5.5 0 0 0 .5.5h4.793L7.147 8.146a.5.5 0 0 0 0 .707.5.5 0 0 0 .707 0L14 2.707V7.5a.5.5 0 0 0 .5.5.5.5 0 0 0 .5-.5v-6a.5.5 0 0 0-.5-.5h-6zM4 2C2.347 2 1 3.347 1 5v7c0 1.653 1.347 3 3 3h7c1.653 0 3-1.347 3-3V9.5a.5.5 0 0 0-.5-.5.5.5 0 0 0-.5.5V12c0 1.117-.883 2-2 2H4c-1.117 0-2-.883-2-2V5c0-1.117.883-2 2-2h2.5a.5.5 0 0 0 .5-.5.5.5 0 0 0-.5-.5H4z" style="-inkscape-stroke:none;color:#000;paint-order:stroke markers fill"/>
  <path d="M.5 0a.5.5 0 0 0-.354.146.5.5 0 0 0 0 .707l15 15a.5.5 0 0 0 .707 0 .5.5 0 0 0 0-.707l-15-15A.5.5 0 0 0 .499 0z"/>
</svg>
