<svg width="16" height="16" xmlns="http://www.w3.org/2000/svg" fill="context-fill" fill-opacity="context-fill-opacity">
  <path d="M4.5 1A1.5 1.5 0 0 0 3 2.5V3h-.5A2.5 2.5 0 0 0 0 5.5v5A1.5 1.5 0 0 0 1.5 12H3v1.5A1.5 1.5 0 0 0 4.5 15h7a1.5 1.5 0 0 0 1.5-1.5V12h1.5a1.5 1.5 0 0 0 1.5-1.5v-5A2.5 2.5 0 0 0 13.5 3H13v-.5A1.5 1.5 0 0 0 11.5 1h-7zm0 1h7a.5.5 0 0 1 .5.5V3H4v-.5a.5.5 0 0 1 .5-.5zm-2 2h11A1.5 1.5 0 0 1 15 5.5v5a.5.5 0 0 1-.5.5H13V9.5A1.5 1.5 0 0 0 11.5 8h-7A1.5 1.5 0 0 0 3 9.5V11H1.5a.5.5 0 0 1-.5-.5v-5A1.5 1.5 0 0 1 2.5 4zm2 5h7a.5.5 0 0 1 .5.5v4a.5.5 0 0 1-.5.5h-7a.5.5 0 0 1-.5-.5v-4a.5.5 0 0 1 .5-.5z"/>
</svg>
