<svg width="16" height="16" xmlns="http://www.w3.org/2000/svg" fill="context-fill" fill-opacity="context-fill-opacity">
  <path d="M7.98 0a7.97 7.97 0 0 0-3.365.752 8.008 8.008 0 0 0-4.227 9.715 8.006 8.006 0 0 0 9.12 5.389 8.005 8.005 0 0 0 6.474-8.385.5.5 0 0 0-.531-.467.5.5 0 0 0-.467.533 6.994 6.994 0 0 1-5.664 7.338 6.994 6.994 0 0 1-7.98-4.717 6.993 6.993 0 0 1 3.696-8.5A6.996 6.996 0 0 1 13.745 4h-3.246a.5.5 0 0 0-.5.5.5.5 0 0 0 .5.5h4a.5.5 0 0 0 .5-.5v-4a.5.5 0 0 0-.5-.5.5.5 0 0 0-.5.5v2.215A8.014 8.014 0 0 0 7.979 0z"/>
</svg>