<svg width="16" height="16" xmlns="http://www.w3.org/2000/svg" fill="context-fill" fill-opacity="context-fill-opacity">
  <path d="M3 1a2 2 0 0 0-2 2v9.998a2 2 0 0 0 2 2h3.004a1.95 1.95 0 0 1 .054-.347l.162-.653H4v-4.5a.5.5 0 0 1 .5-.5h5.443l1-.999H4.5A1.5 1.5 0 0 0 3 9.5v4.5a1 1 0 0 1-1-1v-10a1 1 0 0 1 1-1h1v2.5A1.5 1.5 0 0 0 5.5 6h4A1.5 1.5 0 0 0 11 4.5V2h.378a1 1 0 0 1 .707.294l1.621 1.62a1 1 0 0 1 .293.708v1.382a2.88 2.88 0 0 1 1 .13V4.62a2 2 0 0 0-.586-1.414l-1.62-1.621A2 2 0 0 0 11.377 1zm2 1h5v2.5a.5.5 0 0 1-.5.5h-4a.5.5 0 0 1-.5-.5zm9.13 5c-.478 0-.957.18-1.322.546l-4.828 4.83a2.2 2.2 0 0 0-.578 1.02l-.375 1.499a.889.889 0 0 0 1.078 1.078l1.498-.375a2.2 2.2 0 0 0 1.021-.578l4.828-4.828A1.872 1.872 0 0 0 14.13 7z"/>
</svg>
