<svg width="16" height="16" xmlns="http://www.w3.org/2000/svg" fill="context-fill" fill-opacity="context-fill-opacity">
  <path d="M2 2a2 2 0 0 0-2 2v.5a.5.5 0 0 0 1 0V4a1 1 0 0 1 1-1h.5a.5.5 0 0 0 0-1H2zm2.5 0a.5.5 0 1 0 0 1H7a.5.5 0 0 0 0-1H4.5zM9 2a.5.5 0 1 0 0 1h2.5a.5.5 0 0 0 0-1H9zm4.5 0a.5.5 0 1 0 0 1h.5a1 1 0 0 1 1 1v.5a.5.5 0 0 0 1 0V4a2 2 0 0 0-2-2h-.5zM.5 6.004a.5.5 0 0 0-.5.5v2a.5.5 0 0 0 1 0v-2a.5.5 0 0 0-.5-.5zm15 0a.5.5 0 0 0-.5.5v2a.5.5 0 0 0 1 0v-2a.5.5 0 0 0-.5-.5zm-10 .004a.497.497 0 0 0-.42.775l2.318 3.48-1.238 1.854a2 2 0 1 0 .835.552L8 11.163l1.008 1.514a2 2 0 1 0 .832-.554l-1.238-1.86.002-.004-.602-.9-.002.002-2.086-3.127a.503.503 0 0 0-.414-.225zm5 0a.503.503 0 0 0-.414.225L8.604 8.456l.6.902 1.717-2.574a.497.497 0 0 0-.42-.776zm-9.996 4a.5.5 0 0 0-.5.5v.5a2 2 0 0 0 2 2h.25a.5.5 0 0 0 0-1h-.25a1 1 0 0 1-1-1v-.5a.5.5 0 0 0-.5-.5zm15 0a.5.5 0 0 0-.5.5v.5a1 1 0 0 1-1 1h-.252a.5.5 0 1 0 0 1h.252a2 2 0 0 0 2-2v-.5a.5.5 0 0 0-.5-.5zm-10 2.996a1 1 0 1 1 0 2 1 1 0 0 1 0-2zm5 0a1 1 0 1 1 0 2 1 1 0 0 1 0-2z"/>
</svg>
