<svg width="16" height="16" xmlns="http://www.w3.org/2000/svg" fill="context-fill" fill-opacity="context-fill-opacity">
  <path d="M3.5 0A1.5 1.5 0 0 0 2 1.5v3.916A4.963 4.963 0 0 1 3 5.1V1.5a.5.5 0 0 1 .5-.5H8v3.5A1.5 1.5 0 0 0 9.5 6H13v8.5c0 .276-.09.5-.365.5h-1.559c.064.38.048.699.028 1H12.5a1.5 1.5 0 0 0 1.5-1.5V5.414a1.5 1.5 0 0 0-.44-1.06L9.647.439A1.5 1.5 0 0 0 8.586 0H3.5zM9 1.207 12.793 5H9.5a.5.5 0 0 1-.5-.5V1.207zM4 6a4 4 0 1 0 2.453 7.16l2.692 2.692a.5.5 0 1 0 .707-.707L7.16 12.453A4 4 0 0 0 4 6zm0 1a3 3 0 1 1 0 6 3 3 0 0 1 0-6z"/>
</svg>
