<svg width="16" height="16" xmlns="http://www.w3.org/2000/svg" fill="context-fill" fill-opacity="context-fill-opacity">
  <path d="M2.5 1A1.5 1.5 0 0 0 1 2.5V4h1V2.5a.5.5 0 0 1 .5-.5h11a.5.5 0 0 1 .5.5v7a.5.5 0 0 1-.5.5H8v1h5.5A1.5 1.5 0 0 0 15 9.5v-7A1.5 1.5 0 0 0 13.5 1h-11zm-1 4A1.5 1.5 0 0 0 0 6.5v8A1.5 1.5 0 0 0 1.5 16h4A1.5 1.5 0 0 0 7 14.5v-8A1.5 1.5 0 0 0 5.5 5h-4zm0 1h4a.5.5 0 0 1 .5.5v8a.5.5 0 0 1-.5.5h-4a.5.5 0 0 1-.5-.5v-8a.5.5 0 0 1 .5-.5zM8 12v1h7.5a.5.5 0 0 0 0-1H8zm-5 1a.5.5 0 0 0 0 1h1a.5.5 0 0 0 0-1H3z"/>
</svg>
