<svg width="16" height="16" xmlns="http://www.w3.org/2000/svg" fill="context-fill" fill-opacity="context-fill-opacity">
  <path d="M8 0a8.02 8.02 0 0 0-1.672.174.474.474 0 0 0-.367.377L5.617 2.44a.942.942 0 0 1-1.242.717L2.57 2.512a.47.47 0 0 0-.508.127A7.998 7.998 0 0 0 .386 5.537a.47.47 0 0 0 .143.504l1.463 1.242a.94.94 0 0 1 0 1.433L.529 9.958a.471.471 0 0 0-.143.504 7.988 7.988 0 0 0 1.676 2.898.47.47 0 0 0 .508.127l1.805-.644a.941.941 0 0 1 1.242.717l.344 1.889c.034.187.18.337.367.377A8.022 8.022 0 0 0 8 15.999c.567 0 1.126-.057 1.672-.173a.472.472 0 0 0 .366-.377l.345-1.89a.942.942 0 0 1 1.242-.717l1.805.645a.47.47 0 0 0 .508-.127 7.998 7.998 0 0 0 1.676-2.898.47.47 0 0 0-.143-.504l-1.463-1.242a.94.94 0 0 1 0-1.433l1.463-1.242a.471.471 0 0 0 .143-.504 7.988 7.988 0 0 0-1.676-2.898.47.47 0 0 0-.508-.127l-1.805.645a.941.941 0 0 1-1.242-.717L10.037.55a.472.472 0 0 0-.365-.376A8.027 8.027 0 0 0 8 0zm0 .941c.395 0 .786.032 1.17.096l.285 1.572a1.88 1.88 0 0 0 2.486 1.434l1.502-.537c.5.605.897 1.289 1.172 2.025l-1.219 1.033a1.883 1.883 0 0 0 0 2.87l1.22 1.034a7.043 7.043 0 0 1-1.173 2.025l-1.502-.537a1.882 1.882 0 0 0-2.486 1.433l-.285 1.572a7.135 7.135 0 0 1-2.342 0l-.283-1.572a1.88 1.88 0 0 0-2.486-1.433l-1.502.537a7.054 7.054 0 0 1-1.172-2.025l1.219-1.033a1.883 1.883 0 0 0 0-2.871L1.384 5.53a7.046 7.046 0 0 1 1.173-2.025l1.502.537a1.882 1.882 0 0 0 2.486-1.434l.283-1.572A7.132 7.132 0 0 1 8 .941zm0 4.56A2.5 2.5 0 1 0 8 10.5a2.5 2.5 0 0 0 0-5zm0 1a1.5 1.5 0 1 1 0 3 1.5 1.5 0 0 1 0-3z"/>
</svg>
