<svg width="15" height="13" viewBox="0 0 15 11" fill="context-fill" fill-opacity="context-fill-opacity" xmlns="http://www.w3.org/2000/svg">
<path fill-rule="evenodd" clip-rule="evenodd" d="M6.13525 1.5824H12.7046C13.2569 1.5824 13.7046 2.03011 13.7046 2.5824V8.5824C13.7046 9.13468 13.2569 9.5824 12.7046 9.5824H6.13525V1.5824ZM5.13525 0.582397H6.13525H12.7046C13.8092 0.582397 14.7046 1.47783 14.7046 2.5824V8.5824C14.7046 9.68697 13.8092 10.5824 12.7046 10.5824L6.13525 10.5824H5.13525L2.70459 10.5824C1.60002 10.5824 0.70459 9.68697 0.70459 8.5824V2.5824C0.70459 1.47783 1.60002 0.582397 2.70459 0.582397H5.13525ZM5.13525 9.5824H2.70459C2.15231 9.5824 1.70459 9.13468 1.70459 8.5824V2.5824C1.70459 2.03011 2.15231 1.5824 2.70459 1.5824H5.13525V9.5824Z"/>
</svg>