<svg width="16" height="16" xmlns="http://www.w3.org/2000/svg" fill="context-fill" fill-opacity="context-fill-opacity">
  <path d="M14 1c1.099 0 2 .901 2 2v10c0 1.099-.901 2-2 2H2c-1.099 0-2-.901-2-2V3c0-1.099.901-2 2-2zm0 1H7v12h7c.558 0 1-.442 1-1V3c0-.558-.442-1-1-1zM6 2H2c-.558 0-1 .442-1 1v10c0 .558.442 1 1 1h4zM4.5 4a.5.5 0 0 1 .5.5.5.5 0 0 1-.5.5h-2a.5.5 0 0 1-.5-.5.5.5 0 0 1 .5-.5zm0 3a.5.5 0 0 1 .5.5.5.5 0 0 1-.5.5h-2a.5.5 0 0 1-.5-.5.5.5 0 0 1 .5-.5zm0 3a.5.5 0 0 1 .5.5.5.5 0 0 1-.5.5h-2a.5.5 0 0 1-.5-.5.5.5 0 0 1 .5-.5z"/>
</svg>
