<svg width="16" height="16" xmlns="http://www.w3.org/2000/svg" fill="context-fill" fill-opacity="context-fill-opacity">
  <path fill="context-stroke" d="M11.73 1.181 5.259 2.482l-.068.023A1.807 1.807 0 0 0 3.996 4.2v4.79c-1.645 0-3 1.354-3 3 0 1.644 1.355 3 3 3s3-1.356 3-3V8.17l4-.762v.582c-1.645 0-3 1.355-3 3s1.355 3 3 3 3-1.355 3-3V2.916c0-1.214-1.263-2.104-2.406-1.695z"/>
  <path d="M12 6.2v3.058a2 2 0 1 0 1 1.732V2.916a.8.8 0 0 0-1.069-.753l-6.4 1.285a.8.8 0 0 0-.53.753v6.056a2 2 0 1 0 1 1.732V7.343zm0-1.062L6 6.28V4.342L12 3.2zM11 9.99a1 1 0 1 1 0 2 1 1 0 0 1 0-2zm-7 1a1 1 0 1 1 0 2 1 1 0 0 1 0-2z"/>
</svg>
