<svg width="16" height="16" xmlns="http://www.w3.org/2000/svg" fill="context-fill" fill-opacity="context-fill-opacity">
  <path fill="context-stroke" d="M8.5 1c-.397 0-.78.158-1.061.44L4.878 4H3.499a2.511 2.511 0 0 0-2.5 2.5v3c0 1.372 1.128 2.5 2.5 2.5h1.379l2.561 2.561a1.537 1.537 0 0 0 1.635.325c.51-.212.925-.76.926-1.385v-1.695c.085.032.147.112.236.129-.22.504-.261 1.075.107 1.52l.003.003c.52.627 1.48.718 2.109.199v-.002S15 11.552 15 8c0-3.551-2.545-5.654-2.545-5.654l-.002-.004a1.501 1.501 0 0 0-1.092-.334h-.003c-.394.037-.758.229-1.012.533l-.003.004c-.367.444-.329 1.012-.112 1.516-.09.017-.147.098-.232.13V2.5a1.506 1.506 0 0 0-1.5-1.498z"/>
  <path d="M8.5 2a.5.5 0 0 0-.353.146L5.291 5.002H3.5C2.677 5 2 5.678 2 6.5v3c0 .822.678 1.5 1.5 1.5h1.793l2.854 2.854A.5.5 0 0 0 9 13.5v-11a.5.5 0 0 0-.309-.46A.5.5 0 0 0 8.5 2zm2.953 1.004a.5.5 0 0 0-.338.178.5.5 0 0 0 .067.703S13 5.39 13 8c0 2.61-1.818 4.115-1.818 4.115a.5.5 0 0 0-.067.703.5.5 0 0 0 .703.066S14 11.078 14 8c0-3.079-2.182-4.885-2.182-4.885a.5.5 0 0 0-.365-.111zM8 3.707v8.586l-2.146-2.146a.5.5 0 0 0-.353-.146h-2a.493.493 0 0 1-.5-.5v-3c0-.282.217-.5.5-.5h2a.5.5 0 0 0 .353-.147zm2.441 1.297a.5.5 0 0 0-.334.186.5.5 0 0 0 .082.703s.81.592.81 2.107-.81 2.107-.81 2.107a.5.5 0 0 0-.082.703.5.5 0 0 0 .703.082S12 9.904 12 7.999s-1.19-2.893-1.19-2.893a.5.5 0 0 0-.369-.104z"/>
</svg>
