<svg width="16" height="16" xmlns="http://www.w3.org/2000/svg" fill="context-fill" fill-opacity="context-fill-opacity">
  <path d="M8 0a8 8 0 1 0 0 16A8 8 0 0 0 8 0zm0 1a7 7 0 1 1 0 14A7 7 0 0 1 8 1zm.09 1a5.982 5.982 0 0 0-4.332 1.758 5.999 5.999 0 0 0 0 8.484.5.5 0 1 0 .707-.707 5 5 0 0 1 5.354-8.193.5.5 0 1 0 .363-.932A6.008 6.008 0 0 0 8.09 2zm3.68 1.699a.502.502 0 0 0-.32.11l-.176.138-.467.373c-.388.31-.91.727-1.443 1.158-.533.431-1.078.877-1.514 1.242-.218.182-.41.346-.56.479-.14.123-.27.243-.342.328a1.5 1.5 0 1 0 2.28 1.947c.073-.085.17-.231.27-.389.108-.17.239-.385.385-.629.292-.487.646-1.096.988-1.689.343-.594.675-1.176.92-1.607l.295-.52.11-.195a.501.501 0 0 0-.426-.746zM13.139 5.5a.5.5 0 0 0-.48.682 5.001 5.001 0 0 1-1.124 5.354.5.5 0 0 0 .707.707 6.003 6.003 0 0 0 1.35-6.424.502.502 0 0 0-.453-.319z"/>
</svg>
