<svg width="16" height="16" xmlns="http://www.w3.org/2000/svg" fill="context-fill" fill-opacity="context-fill-opacity">
  <path d="M3 1c-1.099 0-2 .9-2 2v3.174C1.313 6.064 1.648 6 2 6V3c0-.563.437-1 1-1h3v1.5C6 4.323 6.677 5 7.5 5H14v8c0 .563-.437 1-1 1h-3c0 .352-.064.687-.174 1H13c1.1 0 2-.9 2-2V3c0-1.099-.9-2-2-2zm4 1h6c.563 0 1 .437 1 1v1H7.5a.493.493 0 0 1-.5-.5z"/>
  <rect x=".5" y="7.5" width="8" height="8" rx="1.5" ry="1.5" fill="none" stroke="context-fill" stroke-opacity="context-fill-opacity" stroke-width="1.001"/>
  <path d="M3 9.867v3.265a.24.24 0 0 0 .365.205l2.442-1.492a.405.405 0 0 0 0-.69L3.365 9.661A.24.24 0 0 0 3 9.867z"/>
</svg>
