<!--
   - This Source Code Form is subject to the terms of the Mozilla Public
   - License, v. 2.0. If a copy of the MPL was not distributed with this
   - file, You can obtain one at http://mozilla.org/MPL/2.0/.
   -->
<svg width="150" height="236" viewBox="0 0 150 236" fill="none" xmlns="http://www.w3.org/2000/svg">
<g clip-path="url(#clip0_303_1450)">
<rect width="150" height="236" rx="8" fill="#1A171C"/>
<rect y="9" width="48" height="896" fill="#26222A"/>
<rect y="202" width="48" height="48" transform="rotate(-90 0 202)" fill="#1A171C"/>
<path fill-rule="evenodd" clip-rule="evenodd" d="M48 218C48 209.163 40.8366 202 32 202L48 202L48 218Z" fill="#1A171C"/>
<path fill-rule="evenodd" clip-rule="evenodd" d="M48 138C48 146.837 40.8366 154 32 154L48 154L48 138Z" fill="#1A171C"/>
<path d="M31 42L24 37L17 42V26C17 25.4696 17.2107 24.9609 17.5858 24.5858C17.9609 24.2107 18.4696 24 19 24H29C29.5304 24 30.0391 24.2107 30.4142 24.5858C30.7893 24.9609 31 25.4696 31 26V42Z" stroke="#F2F1F4" stroke-width="2" stroke-linecap="round" stroke-linejoin="round"/>
<path d="M24 91C29.5228 91 34 86.5228 34 81C34 75.4772 29.5228 71 24 71C18.4772 71 14 75.4772 14 81C14 86.5228 18.4772 91 24 91Z" stroke="#F2F1F4" stroke-width="2" stroke-linecap="round" stroke-linejoin="round"/>
<path d="M24 75V81L28 83" stroke="#F2F1F4" stroke-width="2" stroke-linecap="round" stroke-linejoin="round"/>
<path d="M29 118L33 122L29 126" stroke="#F2F1F4" stroke-width="2" stroke-linecap="round" stroke-linejoin="round"/>
<path d="M15 128V126C15 124.939 15.4214 123.922 16.1716 123.172C16.9217 122.421 17.9391 122 19 122H33" stroke="#F2F1F4" stroke-width="2" stroke-linecap="round" stroke-linejoin="round"/>
<path d="M19 140L15 136L19 132" stroke="#F2F1F4" stroke-width="2" stroke-linecap="round" stroke-linejoin="round"/>
<path d="M33 130V132C33 133.061 32.5786 134.078 31.8284 134.828C31.0783 135.579 30.0609 136 29 136H15" stroke="#F2F1F4" stroke-width="2" stroke-linecap="round" stroke-linejoin="round"/>
<path d="M33 180V184C33 184.53 32.7893 185.039 32.4142 185.414C32.0391 185.789 31.5304 186 31 186H17C16.4696 186 15.9609 185.789 15.5858 185.414C15.2107 185.039 15 184.53 15 184V180" stroke="#F2F1F4" stroke-width="2" stroke-linecap="round" stroke-linejoin="round"/>
<path d="M19 175L24 180L29 175" stroke="#F2F1F4" stroke-width="2" stroke-linecap="round" stroke-linejoin="round"/>
<path d="M24 180V168" stroke="#F2F1F4" stroke-width="2" stroke-linecap="round" stroke-linejoin="round"/>
<rect x="48" y="9" width="344" height="896" fill="#1A171C"/>
<rect width="276" height="56" transform="translate(64 69)" fill="#1A171C"/>
<rect x="72" y="77" width="260" height="40" rx="4" fill="#6829A3"/>
<path d="M94.6663 83.6667H83.9997C83.2924 83.6667 82.6142 83.9476 82.1141 84.4477C81.614 84.9478 81.333 85.6261 81.333 86.3333V107.667C81.333 108.374 81.614 109.052 82.1141 109.552C82.6142 110.052 83.2924 110.333 83.9997 110.333H99.9997C100.707 110.333 101.385 110.052 101.885 109.552C102.385 109.052 102.666 108.374 102.666 107.667V91.6667L94.6663 83.6667Z" stroke="#F2F1F4" stroke-width="2" stroke-linecap="round" stroke-linejoin="round"/>
<path d="M94.667 83.6667V91.6667H102.667" stroke="#F2F1F4" stroke-width="2" stroke-linecap="round" stroke-linejoin="round"/>
<path d="M97.3337 98.3333H86.667" stroke="#F2F1F4" stroke-width="2" stroke-linecap="round" stroke-linejoin="round"/>
<path d="M97.3337 103.667H86.667" stroke="#F2F1F4" stroke-width="2" stroke-linecap="round" stroke-linejoin="round"/>
<path d="M89.3337 93H88.0003H86.667" stroke="#F2F1F4" stroke-width="2" stroke-linecap="round" stroke-linejoin="round"/>
<path d="M117.233 94V83.8182H123.338V84.9119H118.466V88.3523H122.881V89.446H118.466V94H117.233ZM125.291 94V86.3636H126.464V94H125.291ZM125.887 85.0909C125.659 85.0909 125.461 85.013 125.296 84.8572C125.133 84.7015 125.052 84.5142 125.052 84.2955C125.052 84.0767 125.133 83.8894 125.296 83.7337C125.461 83.5779 125.659 83.5 125.887 83.5C126.116 83.5 126.311 83.5779 126.474 83.7337C126.64 83.8894 126.722 84.0767 126.722 84.2955C126.722 84.5142 126.64 84.7015 126.474 84.8572C126.311 85.013 126.116 85.0909 125.887 85.0909ZM129.786 83.8182V94H128.613V83.8182H129.786ZM135.137 94.1591C134.401 94.1591 133.766 93.9967 133.233 93.6719C132.702 93.3438 132.293 92.8864 132.005 92.2997C131.72 91.7098 131.577 91.0237 131.577 90.2415C131.577 89.4593 131.72 88.7699 132.005 88.1733C132.293 87.5734 132.694 87.1061 133.208 86.7713C133.725 86.4332 134.328 86.2642 135.018 86.2642C135.415 86.2642 135.808 86.3305 136.196 86.4631C136.584 86.5956 136.937 86.8111 137.255 87.1094C137.573 87.4044 137.827 87.7955 138.015 88.2827C138.204 88.7699 138.299 89.3698 138.299 90.0824V90.5795H132.412V89.5653H137.106C137.106 89.1345 137.019 88.75 136.847 88.4119C136.678 88.0739 136.436 87.8071 136.121 87.6115C135.81 87.416 135.442 87.3182 135.018 87.3182C134.55 87.3182 134.146 87.4342 133.805 87.6662C133.466 87.8949 133.206 88.1932 133.024 88.5611C132.842 88.929 132.751 89.3234 132.751 89.7443V90.4205C132.751 90.9972 132.85 91.486 133.049 91.8871C133.251 92.2848 133.531 92.5881 133.889 92.7969C134.247 93.0024 134.663 93.1051 135.137 93.1051C135.445 93.1051 135.724 93.062 135.972 92.9759C136.224 92.8864 136.441 92.7538 136.623 92.5781C136.806 92.3991 136.947 92.1771 137.046 91.9119L138.18 92.2301C138.06 92.6146 137.86 92.9527 137.578 93.2443C137.296 93.5327 136.948 93.758 136.534 93.9205C136.12 94.0795 135.654 94.1591 135.137 94.1591ZM147.581 83.8182V94H146.348V85.1108H146.288L143.802 86.7614V85.5085L146.348 83.8182H147.581Z" fill="white"/>
<path d="M119.31 101.727V109H118.429V102.651H118.386L116.611 103.83V102.935L118.429 101.727H119.31ZM121.597 109.057C121.421 109.057 121.271 108.994 121.146 108.869C121.02 108.743 120.957 108.593 120.957 108.418C120.957 108.242 121.02 108.092 121.146 107.967C121.271 107.841 121.421 107.778 121.597 107.778C121.772 107.778 121.922 107.841 122.048 107.967C122.173 108.092 122.236 108.242 122.236 108.418C122.236 108.534 122.206 108.64 122.147 108.737C122.09 108.834 122.013 108.912 121.916 108.972C121.821 109.028 121.715 109.057 121.597 109.057ZM123.806 109L127.059 102.565V102.509H123.309V101.727H127.968V102.551L124.73 109H123.806ZM129.292 109V108.361L131.692 105.733C131.974 105.425 132.206 105.158 132.388 104.93C132.571 104.701 132.706 104.485 132.793 104.284C132.883 104.08 132.928 103.867 132.928 103.645C132.928 103.389 132.867 103.168 132.744 102.981C132.623 102.794 132.457 102.649 132.246 102.548C132.036 102.446 131.799 102.395 131.536 102.395C131.257 102.395 131.013 102.453 130.805 102.569C130.599 102.683 130.439 102.842 130.325 103.048C130.214 103.254 130.158 103.496 130.158 103.773H129.32C129.32 103.347 129.419 102.973 129.615 102.651C129.812 102.329 130.079 102.078 130.418 101.898C130.759 101.718 131.141 101.628 131.565 101.628C131.991 101.628 132.368 101.718 132.697 101.898C133.027 102.078 133.285 102.32 133.472 102.626C133.659 102.931 133.752 103.271 133.752 103.645C133.752 103.912 133.704 104.174 133.607 104.43C133.512 104.683 133.346 104.966 133.109 105.278C132.875 105.589 132.549 105.967 132.133 106.415L130.499 108.162V108.219H133.88V109H129.292ZM135.474 101.727H136.526L138.997 107.764H139.082L141.554 101.727H142.605V109H141.781V103.474H141.71L139.438 109H138.642L136.369 103.474H136.298V109H135.474V101.727ZM144.371 109V101.727H146.914C147.42 101.727 147.838 101.815 148.167 101.99C148.496 102.163 148.741 102.396 148.902 102.69C149.063 102.981 149.144 103.304 149.144 103.659C149.144 103.972 149.088 104.23 148.977 104.433C148.868 104.637 148.723 104.798 148.544 104.916C148.366 105.035 148.173 105.122 147.965 105.179V105.25C148.187 105.264 148.411 105.342 148.636 105.484C148.861 105.626 149.049 105.83 149.2 106.095C149.352 106.36 149.428 106.685 149.428 107.068C149.428 107.433 149.345 107.761 149.179 108.052C149.013 108.343 148.752 108.574 148.394 108.744C148.037 108.915 147.572 109 146.999 109H144.371ZM145.252 108.219H146.999C147.574 108.219 147.982 108.107 148.224 107.885C148.468 107.66 148.59 107.388 148.59 107.068C148.59 106.822 148.527 106.595 148.401 106.386C148.276 106.176 148.097 106.008 147.865 105.882C147.633 105.754 147.359 105.69 147.041 105.69H145.252V108.219ZM145.252 104.923H146.885C147.15 104.923 147.389 104.871 147.602 104.767C147.818 104.663 147.988 104.516 148.114 104.327C148.242 104.137 148.306 103.915 148.306 103.659C148.306 103.339 148.194 103.068 147.972 102.846C147.749 102.621 147.396 102.509 146.914 102.509H145.252V104.923ZM156.699 104.973V105.754H153.517V104.973H156.699ZM163.188 111.159C162.783 111.159 162.435 111.107 162.143 111.003C161.852 110.901 161.61 110.766 161.415 110.598C161.224 110.432 161.071 110.255 160.957 110.065L161.625 109.597C161.701 109.696 161.797 109.81 161.913 109.938C162.029 110.068 162.187 110.18 162.388 110.275C162.592 110.372 162.858 110.42 163.188 110.42C163.628 110.42 163.991 110.314 164.278 110.101C164.564 109.888 164.707 109.554 164.707 109.099V107.991H164.636C164.575 108.091 164.487 108.214 164.374 108.361C164.262 108.505 164.101 108.634 163.891 108.748C163.682 108.859 163.401 108.915 163.045 108.915C162.605 108.915 162.21 108.811 161.859 108.602C161.511 108.394 161.236 108.091 161.032 107.693C160.831 107.295 160.73 106.812 160.73 106.244C160.73 105.686 160.828 105.199 161.025 104.785C161.221 104.368 161.495 104.046 161.845 103.819C162.196 103.589 162.6 103.474 163.06 103.474C163.415 103.474 163.696 103.534 163.905 103.652C164.116 103.768 164.277 103.901 164.388 104.05C164.501 104.196 164.589 104.317 164.651 104.412H164.736V103.545H165.545V109.156C165.545 109.625 165.439 110.006 165.226 110.3C165.015 110.596 164.731 110.812 164.374 110.95C164.018 111.089 163.623 111.159 163.188 111.159ZM163.159 108.162C163.495 108.162 163.779 108.085 164.011 107.931C164.243 107.777 164.42 107.556 164.54 107.267C164.661 106.978 164.722 106.633 164.722 106.23C164.722 105.837 164.662 105.49 164.544 105.19C164.426 104.889 164.25 104.653 164.018 104.483C163.786 104.312 163.5 104.227 163.159 104.227C162.804 104.227 162.508 104.317 162.271 104.497C162.037 104.677 161.861 104.919 161.742 105.222C161.626 105.525 161.568 105.861 161.568 106.23C161.568 106.609 161.627 106.944 161.746 107.235C161.866 107.524 162.044 107.751 162.278 107.917C162.515 108.08 162.809 108.162 163.159 108.162ZM167.08 109V103.545H167.918V109H167.08ZM167.506 102.636C167.342 102.636 167.201 102.581 167.083 102.469C166.967 102.358 166.909 102.224 166.909 102.068C166.909 101.912 166.967 101.778 167.083 101.667C167.201 101.556 167.342 101.5 167.506 101.5C167.669 101.5 167.809 101.556 167.925 101.667C168.043 101.778 168.102 101.912 168.102 102.068C168.102 102.224 168.043 102.358 167.925 102.469C167.809 102.581 167.669 102.636 167.506 102.636ZM171.825 103.545V104.256H168.998V103.545H171.825ZM169.822 102.239H170.66V107.438C170.66 107.674 170.694 107.852 170.763 107.97C170.834 108.086 170.924 108.164 171.033 108.205C171.144 108.242 171.261 108.261 171.384 108.261C171.477 108.261 171.552 108.257 171.612 108.247C171.671 108.235 171.718 108.226 171.754 108.219L171.924 108.972C171.867 108.993 171.788 109.014 171.686 109.036C171.584 109.059 171.455 109.071 171.299 109.071C171.062 109.071 170.83 109.02 170.603 108.918C170.378 108.817 170.191 108.661 170.042 108.453C169.895 108.245 169.822 107.982 169.822 107.665V102.239ZM174.041 105.719V109H173.203V101.727H174.041V104.398H174.112C174.24 104.116 174.431 103.892 174.687 103.727C174.945 103.558 175.288 103.474 175.717 103.474C176.088 103.474 176.414 103.549 176.693 103.698C176.973 103.845 177.189 104.071 177.343 104.376C177.499 104.679 177.578 105.065 177.578 105.534V109H176.74V105.591C176.74 105.158 176.627 104.823 176.402 104.586C176.18 104.347 175.871 104.227 175.475 104.227C175.201 104.227 174.954 104.285 174.737 104.401C174.521 104.517 174.351 104.687 174.225 104.909C174.102 105.132 174.041 105.402 174.041 105.719ZM182.548 106.77V103.545H183.386V109H182.548V108.077H182.491C182.364 108.354 182.165 108.589 181.895 108.783C181.625 108.975 181.284 109.071 180.872 109.071C180.531 109.071 180.228 108.996 179.963 108.847C179.698 108.696 179.49 108.469 179.338 108.165C179.187 107.86 179.111 107.475 179.111 107.011V103.545H179.949V106.955C179.949 107.352 180.06 107.67 180.283 107.906C180.508 108.143 180.794 108.261 181.142 108.261C181.35 108.261 181.562 108.208 181.778 108.102C181.996 107.995 182.178 107.832 182.325 107.612C182.474 107.391 182.548 107.111 182.548 106.77ZM185.035 109V101.727H185.873V104.412H185.944C186.006 104.317 186.091 104.196 186.2 104.05C186.311 103.901 186.47 103.768 186.676 103.652C186.884 103.534 187.166 103.474 187.521 103.474C187.98 103.474 188.385 103.589 188.735 103.819C189.086 104.049 189.359 104.374 189.556 104.795C189.752 105.217 189.85 105.714 189.85 106.287C189.85 106.865 189.752 107.365 189.556 107.789C189.359 108.21 189.087 108.537 188.739 108.769C188.391 108.999 187.99 109.114 187.535 109.114C187.185 109.114 186.904 109.056 186.693 108.94C186.483 108.821 186.32 108.687 186.207 108.538C186.093 108.387 186.006 108.261 185.944 108.162H185.845V109H185.035ZM185.859 106.273C185.859 106.685 185.919 107.048 186.04 107.363C186.161 107.675 186.337 107.92 186.569 108.098C186.801 108.273 187.085 108.361 187.421 108.361C187.772 108.361 188.064 108.268 188.298 108.084C188.535 107.897 188.713 107.646 188.831 107.331C188.952 107.014 189.012 106.661 189.012 106.273C189.012 105.889 188.953 105.544 188.835 105.236C188.719 104.926 188.542 104.681 188.306 104.501C188.071 104.318 187.776 104.227 187.421 104.227C187.08 104.227 186.794 104.314 186.562 104.487C186.33 104.657 186.155 104.896 186.036 105.204C185.918 105.509 185.859 105.866 185.859 106.273ZM191.743 109.057C191.568 109.057 191.418 108.994 191.292 108.869C191.167 108.743 191.104 108.593 191.104 108.418C191.104 108.242 191.167 108.092 191.292 107.967C191.418 107.841 191.568 107.778 191.743 107.778C191.918 107.778 192.069 107.841 192.194 107.967C192.32 108.092 192.382 108.242 192.382 108.418C192.382 108.534 192.353 108.64 192.294 108.737C192.237 108.834 192.16 108.912 192.063 108.972C191.968 109.028 191.861 109.057 191.743 109.057ZM196.102 109.114C195.591 109.114 195.15 108.993 194.781 108.751C194.412 108.51 194.128 108.177 193.929 107.754C193.73 107.33 193.631 106.846 193.631 106.301C193.631 105.747 193.732 105.258 193.936 104.835C194.142 104.408 194.428 104.076 194.795 103.837C195.165 103.595 195.595 103.474 196.088 103.474C196.471 103.474 196.817 103.545 197.125 103.688C197.433 103.83 197.685 104.028 197.881 104.284C198.078 104.54 198.2 104.838 198.247 105.179H197.409C197.345 104.93 197.203 104.71 196.983 104.518C196.765 104.324 196.471 104.227 196.102 104.227C195.775 104.227 195.489 104.312 195.243 104.483C194.999 104.651 194.808 104.889 194.671 105.197C194.536 105.502 194.469 105.861 194.469 106.273C194.469 106.694 194.535 107.061 194.667 107.374C194.802 107.686 194.992 107.929 195.236 108.102C195.482 108.274 195.771 108.361 196.102 108.361C196.32 108.361 196.518 108.323 196.695 108.247C196.873 108.171 197.023 108.062 197.146 107.92C197.269 107.778 197.357 107.608 197.409 107.409H198.247C198.2 107.731 198.082 108.021 197.895 108.279C197.711 108.535 197.466 108.738 197.16 108.89C196.857 109.039 196.505 109.114 196.102 109.114ZM201.688 109.114C201.196 109.114 200.764 108.996 200.392 108.762C200.023 108.528 199.734 108.2 199.525 107.778C199.319 107.357 199.216 106.865 199.216 106.301C199.216 105.733 199.319 105.237 199.525 104.813C199.734 104.389 200.023 104.06 200.392 103.826C200.764 103.592 201.196 103.474 201.688 103.474C202.18 103.474 202.611 103.592 202.981 103.826C203.352 104.06 203.641 104.389 203.847 104.813C204.055 105.237 204.16 105.733 204.16 106.301C204.16 106.865 204.055 107.357 203.847 107.778C203.641 108.2 203.352 108.528 202.981 108.762C202.611 108.996 202.18 109.114 201.688 109.114ZM201.688 108.361C202.062 108.361 202.37 108.265 202.611 108.073C202.853 107.881 203.032 107.629 203.148 107.317C203.264 107.004 203.322 106.666 203.322 106.301C203.322 105.937 203.264 105.597 203.148 105.282C203.032 104.967 202.853 104.713 202.611 104.518C202.37 104.324 202.062 104.227 201.688 104.227C201.314 104.227 201.006 104.324 200.765 104.518C200.523 104.713 200.345 104.967 200.229 105.282C200.113 105.597 200.055 105.937 200.055 106.301C200.055 106.666 200.113 107.004 200.229 107.317C200.345 107.629 200.523 107.881 200.765 108.073C201.006 108.265 201.314 108.361 201.688 108.361ZM205.439 109V103.545H206.249V104.398H206.32C206.433 104.107 206.617 103.88 206.87 103.719C207.123 103.556 207.428 103.474 207.783 103.474C208.143 103.474 208.442 103.556 208.681 103.719C208.923 103.88 209.111 104.107 209.246 104.398H209.303C209.442 104.116 209.652 103.892 209.931 103.727C210.21 103.558 210.545 103.474 210.936 103.474C211.424 103.474 211.823 103.627 212.133 103.933C212.443 104.236 212.598 104.708 212.598 105.349V109H211.76V105.349C211.76 104.947 211.65 104.659 211.43 104.487C211.21 104.314 210.95 104.227 210.652 104.227C210.268 104.227 209.971 104.343 209.761 104.575C209.55 104.805 209.445 105.096 209.445 105.449V109H208.592V105.264C208.592 104.954 208.492 104.704 208.29 104.515C208.089 104.323 207.83 104.227 207.513 104.227C207.295 104.227 207.091 104.285 206.902 104.401C206.715 104.517 206.563 104.678 206.447 104.884C206.334 105.088 206.277 105.323 206.277 105.591V109H205.439ZM220.068 104.973V105.754H216.886V104.973H220.068ZM226.713 109.099C226.178 109.099 225.722 108.954 225.346 108.663C224.969 108.369 224.682 107.944 224.483 107.388C224.284 106.829 224.184 106.154 224.184 105.364C224.184 104.578 224.284 103.906 224.483 103.35C224.684 102.791 224.973 102.365 225.349 102.072C225.728 101.776 226.183 101.628 226.713 101.628C227.243 101.628 227.697 101.776 228.073 102.072C228.452 102.365 228.741 102.791 228.939 103.35C229.141 103.906 229.241 104.578 229.241 105.364C229.241 106.154 229.142 106.829 228.943 107.388C228.744 107.944 228.456 108.369 228.08 108.663C227.704 108.954 227.248 109.099 226.713 109.099ZM226.713 108.318C227.243 108.318 227.655 108.062 227.949 107.551C228.242 107.04 228.389 106.311 228.389 105.364C228.389 104.734 228.322 104.198 228.187 103.755C228.054 103.312 227.862 102.975 227.611 102.743C227.363 102.511 227.063 102.395 226.713 102.395C226.187 102.395 225.777 102.654 225.481 103.173C225.185 103.689 225.037 104.419 225.037 105.364C225.037 105.993 225.103 106.528 225.236 106.969C225.368 107.409 225.559 107.744 225.807 107.974C226.058 108.203 226.36 108.318 226.713 108.318ZM232.963 109.099C232.428 109.099 231.972 108.954 231.596 108.663C231.219 108.369 230.932 107.944 230.733 107.388C230.534 106.829 230.434 106.154 230.434 105.364C230.434 104.578 230.534 103.906 230.733 103.35C230.934 102.791 231.223 102.365 231.599 102.072C231.978 101.776 232.433 101.628 232.963 101.628C233.493 101.628 233.947 101.776 234.323 102.072C234.702 102.365 234.991 102.791 235.189 103.35C235.391 103.906 235.491 104.578 235.491 105.364C235.491 106.154 235.392 106.829 235.193 107.388C234.994 107.944 234.706 108.369 234.33 108.663C233.954 108.954 233.498 109.099 232.963 109.099ZM232.963 108.318C233.493 108.318 233.905 108.062 234.199 107.551C234.492 107.04 234.639 106.311 234.639 105.364C234.639 104.734 234.572 104.198 234.437 103.755C234.304 103.312 234.112 102.975 233.861 102.743C233.613 102.511 233.313 102.395 232.963 102.395C232.437 102.395 232.027 102.654 231.731 103.173C231.435 103.689 231.287 104.419 231.287 105.364C231.287 105.993 231.353 106.528 231.486 106.969C231.618 107.409 231.809 107.744 232.057 107.974C232.308 108.203 232.61 108.318 232.963 108.318ZM237.466 108.07C237.291 108.07 237.14 108.007 237.015 107.881C236.889 107.756 236.827 107.606 236.827 107.43C236.827 107.255 236.889 107.105 237.015 106.979C237.14 106.854 237.291 106.791 237.466 106.791C237.641 106.791 237.791 106.854 237.917 106.979C238.042 107.105 238.105 107.255 238.105 107.43C238.105 107.546 238.075 107.653 238.016 107.75C237.959 107.847 237.882 107.925 237.785 107.984C237.691 108.041 237.584 108.07 237.466 108.07ZM237.466 104.391C237.291 104.391 237.14 104.328 237.015 104.202C236.889 104.077 236.827 103.927 236.827 103.751C236.827 103.576 236.889 103.426 237.015 103.3C237.14 103.175 237.291 103.112 237.466 103.112C237.641 103.112 237.791 103.175 237.917 103.3C238.042 103.426 238.105 103.576 238.105 103.751C238.105 103.867 238.075 103.974 238.016 104.071C237.959 104.168 237.882 104.246 237.785 104.305C237.691 104.362 237.584 104.391 237.466 104.391ZM239.424 107.509V106.784L242.62 101.727H243.146V102.849H242.791L240.376 106.67V106.727H244.68V107.509H239.424ZM242.847 109V107.288V106.951V101.727H243.686V109H242.847ZM246.238 109L249.491 102.565V102.509H245.741V101.727H250.4V102.551L247.161 109H246.238Z" fill="#BFBCC2"/>
<rect width="276" height="56" transform="translate(64 125)" fill="#1A171C"/>
<rect x="72" y="133" width="260" height="40" rx="4" fill="#1A171C"/>
<path d="M94.6663 139.667H83.9997C83.2924 139.667 82.6142 139.948 82.1141 140.448C81.614 140.948 81.333 141.626 81.333 142.333V163.667C81.333 164.374 81.614 165.052 82.1141 165.552C82.6142 166.052 83.2924 166.333 83.9997 166.333H99.9997C100.707 166.333 101.385 166.052 101.885 165.552C102.385 165.052 102.666 164.374 102.666 163.667V147.667L94.6663 139.667Z" stroke="#F2F1F4" stroke-width="2" stroke-linecap="round" stroke-linejoin="round"/>
<path d="M94.667 139.667V147.667H102.667" stroke="#F2F1F4" stroke-width="2" stroke-linecap="round" stroke-linejoin="round"/>
<path d="M97.3337 154.333H86.667" stroke="#F2F1F4" stroke-width="2" stroke-linecap="round" stroke-linejoin="round"/>
<path d="M97.3337 159.667H86.667" stroke="#F2F1F4" stroke-width="2" stroke-linecap="round" stroke-linejoin="round"/>
<path d="M89.3337 149H88.0003H86.667" stroke="#F2F1F4" stroke-width="2" stroke-linecap="round" stroke-linejoin="round"/>
<path d="M117.233 150V139.818H123.338V140.912H118.466V144.352H122.881V145.446H118.466V150H117.233ZM125.291 150V142.364H126.464V150H125.291ZM125.887 141.091C125.659 141.091 125.461 141.013 125.296 140.857C125.133 140.701 125.052 140.514 125.052 140.295C125.052 140.077 125.133 139.889 125.296 139.734C125.461 139.578 125.659 139.5 125.887 139.5C126.116 139.5 126.311 139.578 126.474 139.734C126.64 139.889 126.722 140.077 126.722 140.295C126.722 140.514 126.64 140.701 126.474 140.857C126.311 141.013 126.116 141.091 125.887 141.091ZM129.786 139.818V150H128.613V139.818H129.786ZM135.137 150.159C134.401 150.159 133.766 149.997 133.233 149.672C132.702 149.344 132.293 148.886 132.005 148.3C131.72 147.71 131.577 147.024 131.577 146.241C131.577 145.459 131.72 144.77 132.005 144.173C132.293 143.573 132.694 143.106 133.208 142.771C133.725 142.433 134.328 142.264 135.018 142.264C135.415 142.264 135.808 142.33 136.196 142.463C136.584 142.596 136.937 142.811 137.255 143.109C137.573 143.404 137.827 143.795 138.015 144.283C138.204 144.77 138.299 145.37 138.299 146.082V146.58H132.412V145.565H137.106C137.106 145.134 137.019 144.75 136.847 144.412C136.678 144.074 136.436 143.807 136.121 143.612C135.81 143.416 135.442 143.318 135.018 143.318C134.55 143.318 134.146 143.434 133.805 143.666C133.466 143.895 133.206 144.193 133.024 144.561C132.842 144.929 132.751 145.323 132.751 145.744V146.42C132.751 146.997 132.85 147.486 133.049 147.887C133.251 148.285 133.531 148.588 133.889 148.797C134.247 149.002 134.663 149.105 135.137 149.105C135.445 149.105 135.724 149.062 135.972 148.976C136.224 148.886 136.441 148.754 136.623 148.578C136.806 148.399 136.947 148.177 137.046 147.912L138.18 148.23C138.06 148.615 137.86 148.953 137.578 149.244C137.296 149.533 136.948 149.758 136.534 149.92C136.12 150.08 135.654 150.159 135.137 150.159ZM144.001 150V149.105L147.362 145.426C147.756 144.995 148.081 144.621 148.336 144.303C148.592 143.981 148.781 143.679 148.903 143.398C149.029 143.113 149.092 142.814 149.092 142.503C149.092 142.145 149.006 141.835 148.834 141.573C148.665 141.311 148.433 141.109 148.138 140.967C147.843 140.824 147.511 140.753 147.143 140.753C146.752 140.753 146.411 140.834 146.119 140.996C145.831 141.156 145.607 141.379 145.448 141.668C145.292 141.956 145.214 142.294 145.214 142.682H144.041C144.041 142.085 144.179 141.562 144.454 141.111C144.729 140.66 145.103 140.309 145.577 140.057C146.055 139.805 146.59 139.679 147.183 139.679C147.78 139.679 148.308 139.805 148.769 140.057C149.23 140.309 149.591 140.648 149.853 141.076C150.115 141.504 150.246 141.979 150.246 142.503C150.246 142.877 150.178 143.244 150.042 143.602C149.909 143.956 149.677 144.352 149.346 144.79C149.018 145.224 148.562 145.754 147.979 146.381L145.692 148.827V148.906H150.425V150H144.001Z" fill="white"/>
<path d="M119.31 157.727V165H118.429V158.651H118.386L116.611 159.83V158.935L118.429 157.727H119.31ZM121.597 165.057C121.421 165.057 121.271 164.994 121.146 164.869C121.02 164.743 120.957 164.593 120.957 164.418C120.957 164.242 121.02 164.092 121.146 163.967C121.271 163.841 121.421 163.778 121.597 163.778C121.772 163.778 121.922 163.841 122.048 163.967C122.173 164.092 122.236 164.242 122.236 164.418C122.236 164.534 122.206 164.64 122.147 164.737C122.09 164.834 122.013 164.912 121.916 164.972C121.821 165.028 121.715 165.057 121.597 165.057ZM123.806 165L127.059 158.565V158.509H123.309V157.727H127.968V158.551L124.73 165H123.806ZM129.292 165V164.361L131.692 161.733C131.974 161.425 132.206 161.158 132.388 160.93C132.571 160.701 132.706 160.485 132.793 160.284C132.883 160.08 132.928 159.867 132.928 159.645C132.928 159.389 132.867 159.168 132.744 158.981C132.623 158.794 132.457 158.649 132.246 158.548C132.036 158.446 131.799 158.395 131.536 158.395C131.257 158.395 131.013 158.453 130.805 158.569C130.599 158.683 130.439 158.842 130.325 159.048C130.214 159.254 130.158 159.496 130.158 159.773H129.32C129.32 159.347 129.419 158.973 129.615 158.651C129.812 158.329 130.079 158.078 130.418 157.898C130.759 157.718 131.141 157.628 131.565 157.628C131.991 157.628 132.368 157.718 132.697 157.898C133.027 158.078 133.285 158.32 133.472 158.626C133.659 158.931 133.752 159.271 133.752 159.645C133.752 159.912 133.704 160.174 133.607 160.43C133.512 160.683 133.346 160.966 133.109 161.278C132.875 161.589 132.549 161.967 132.133 162.415L130.499 164.162V164.219H133.88V165H129.292ZM135.474 157.727H136.526L138.997 163.764H139.082L141.554 157.727H142.605V165H141.781V159.474H141.71L139.438 165H138.642L136.369 159.474H136.298V165H135.474V157.727ZM144.371 165V157.727H146.914C147.42 157.727 147.838 157.815 148.167 157.99C148.496 158.163 148.741 158.396 148.902 158.69C149.063 158.981 149.144 159.304 149.144 159.659C149.144 159.972 149.088 160.23 148.977 160.433C148.868 160.637 148.723 160.798 148.544 160.916C148.366 161.035 148.173 161.122 147.965 161.179V161.25C148.187 161.264 148.411 161.342 148.636 161.484C148.861 161.626 149.049 161.83 149.2 162.095C149.352 162.36 149.428 162.685 149.428 163.068C149.428 163.433 149.345 163.761 149.179 164.052C149.013 164.343 148.752 164.574 148.394 164.744C148.037 164.915 147.572 165 146.999 165H144.371ZM145.252 164.219H146.999C147.574 164.219 147.982 164.107 148.224 163.885C148.468 163.66 148.59 163.388 148.59 163.068C148.59 162.822 148.527 162.595 148.401 162.386C148.276 162.176 148.097 162.008 147.865 161.882C147.633 161.754 147.359 161.69 147.041 161.69H145.252V164.219ZM145.252 160.923H146.885C147.15 160.923 147.389 160.871 147.602 160.767C147.818 160.663 147.988 160.516 148.114 160.327C148.242 160.137 148.306 159.915 148.306 159.659C148.306 159.339 148.194 159.068 147.972 158.846C147.749 158.621 147.396 158.509 146.914 158.509H145.252V160.923ZM156.699 160.973V161.754H153.517V160.973H156.699ZM163.188 167.159C162.783 167.159 162.435 167.107 162.143 167.003C161.852 166.901 161.61 166.766 161.415 166.598C161.224 166.432 161.071 166.255 160.957 166.065L161.625 165.597C161.701 165.696 161.797 165.81 161.913 165.938C162.029 166.068 162.187 166.18 162.388 166.275C162.592 166.372 162.858 166.42 163.188 166.42C163.628 166.42 163.991 166.314 164.278 166.101C164.564 165.888 164.707 165.554 164.707 165.099V163.991H164.636C164.575 164.091 164.487 164.214 164.374 164.361C164.262 164.505 164.101 164.634 163.891 164.748C163.682 164.859 163.401 164.915 163.045 164.915C162.605 164.915 162.21 164.811 161.859 164.602C161.511 164.394 161.236 164.091 161.032 163.693C160.831 163.295 160.73 162.812 160.73 162.244C160.73 161.686 160.828 161.199 161.025 160.785C161.221 160.368 161.495 160.046 161.845 159.819C162.196 159.589 162.6 159.474 163.06 159.474C163.415 159.474 163.696 159.534 163.905 159.652C164.116 159.768 164.277 159.901 164.388 160.05C164.501 160.196 164.589 160.317 164.651 160.412H164.736V159.545H165.545V165.156C165.545 165.625 165.439 166.006 165.226 166.3C165.015 166.596 164.731 166.812 164.374 166.95C164.018 167.089 163.623 167.159 163.188 167.159ZM163.159 164.162C163.495 164.162 163.779 164.085 164.011 163.931C164.243 163.777 164.42 163.556 164.54 163.267C164.661 162.978 164.722 162.633 164.722 162.23C164.722 161.837 164.662 161.49 164.544 161.19C164.426 160.889 164.25 160.653 164.018 160.483C163.786 160.312 163.5 160.227 163.159 160.227C162.804 160.227 162.508 160.317 162.271 160.497C162.037 160.677 161.861 160.919 161.742 161.222C161.626 161.525 161.568 161.861 161.568 162.23C161.568 162.609 161.627 162.944 161.746 163.235C161.866 163.524 162.044 163.751 162.278 163.917C162.515 164.08 162.809 164.162 163.159 164.162ZM167.08 165V159.545H167.918V165H167.08ZM167.506 158.636C167.342 158.636 167.201 158.581 167.083 158.469C166.967 158.358 166.909 158.224 166.909 158.068C166.909 157.912 166.967 157.778 167.083 157.667C167.201 157.556 167.342 157.5 167.506 157.5C167.669 157.5 167.809 157.556 167.925 157.667C168.043 157.778 168.102 157.912 168.102 158.068C168.102 158.224 168.043 158.358 167.925 158.469C167.809 158.581 167.669 158.636 167.506 158.636ZM171.825 159.545V160.256H168.998V159.545H171.825ZM169.822 158.239H170.66V163.438C170.66 163.674 170.694 163.852 170.763 163.97C170.834 164.086 170.924 164.164 171.033 164.205C171.144 164.242 171.261 164.261 171.384 164.261C171.477 164.261 171.552 164.257 171.612 164.247C171.671 164.235 171.718 164.226 171.754 164.219L171.924 164.972C171.867 164.993 171.788 165.014 171.686 165.036C171.584 165.059 171.455 165.071 171.299 165.071C171.062 165.071 170.83 165.02 170.603 164.918C170.378 164.817 170.191 164.661 170.042 164.453C169.895 164.245 169.822 163.982 169.822 163.665V158.239ZM174.041 161.719V165H173.203V157.727H174.041V160.398H174.112C174.24 160.116 174.431 159.892 174.687 159.727C174.945 159.558 175.288 159.474 175.717 159.474C176.088 159.474 176.414 159.549 176.693 159.698C176.973 159.845 177.189 160.071 177.343 160.376C177.499 160.679 177.578 161.065 177.578 161.534V165H176.74V161.591C176.74 161.158 176.627 160.823 176.402 160.586C176.18 160.347 175.871 160.227 175.475 160.227C175.201 160.227 174.954 160.285 174.737 160.401C174.521 160.517 174.351 160.687 174.225 160.909C174.102 161.132 174.041 161.402 174.041 161.719ZM182.548 162.77V159.545H183.386V165H182.548V164.077H182.491C182.364 164.354 182.165 164.589 181.895 164.783C181.625 164.975 181.284 165.071 180.872 165.071C180.531 165.071 180.228 164.996 179.963 164.847C179.698 164.696 179.49 164.469 179.338 164.165C179.187 163.86 179.111 163.475 179.111 163.011V159.545H179.949V162.955C179.949 163.352 180.06 163.67 180.283 163.906C180.508 164.143 180.794 164.261 181.142 164.261C181.35 164.261 181.562 164.208 181.778 164.102C181.996 163.995 182.178 163.832 182.325 163.612C182.474 163.391 182.548 163.111 182.548 162.77ZM185.035 165V157.727H185.873V160.412H185.944C186.006 160.317 186.091 160.196 186.2 160.05C186.311 159.901 186.47 159.768 186.676 159.652C186.884 159.534 187.166 159.474 187.521 159.474C187.98 159.474 188.385 159.589 188.735 159.819C189.086 160.049 189.359 160.374 189.556 160.795C189.752 161.217 189.85 161.714 189.85 162.287C189.85 162.865 189.752 163.365 189.556 163.789C189.359 164.21 189.087 164.537 188.739 164.769C188.391 164.999 187.99 165.114 187.535 165.114C187.185 165.114 186.904 165.056 186.693 164.94C186.483 164.821 186.32 164.687 186.207 164.538C186.093 164.387 186.006 164.261 185.944 164.162H185.845V165H185.035ZM185.859 162.273C185.859 162.685 185.919 163.048 186.04 163.363C186.161 163.675 186.337 163.92 186.569 164.098C186.801 164.273 187.085 164.361 187.421 164.361C187.772 164.361 188.064 164.268 188.298 164.084C188.535 163.897 188.713 163.646 188.831 163.331C188.952 163.014 189.012 162.661 189.012 162.273C189.012 161.889 188.953 161.544 188.835 161.236C188.719 160.926 188.542 160.681 188.306 160.501C188.071 160.318 187.776 160.227 187.421 160.227C187.08 160.227 186.794 160.314 186.562 160.487C186.33 160.657 186.155 160.896 186.036 161.204C185.918 161.509 185.859 161.866 185.859 162.273ZM191.743 165.057C191.568 165.057 191.418 164.994 191.292 164.869C191.167 164.743 191.104 164.593 191.104 164.418C191.104 164.242 191.167 164.092 191.292 163.967C191.418 163.841 191.568 163.778 191.743 163.778C191.918 163.778 192.069 163.841 192.194 163.967C192.32 164.092 192.382 164.242 192.382 164.418C192.382 164.534 192.353 164.64 192.294 164.737C192.237 164.834 192.16 164.912 192.063 164.972C191.968 165.028 191.861 165.057 191.743 165.057ZM196.102 165.114C195.591 165.114 195.15 164.993 194.781 164.751C194.412 164.51 194.128 164.177 193.929 163.754C193.73 163.33 193.631 162.846 193.631 162.301C193.631 161.747 193.732 161.258 193.936 160.835C194.142 160.408 194.428 160.076 194.795 159.837C195.165 159.595 195.595 159.474 196.088 159.474C196.471 159.474 196.817 159.545 197.125 159.688C197.433 159.83 197.685 160.028 197.881 160.284C198.078 160.54 198.2 160.838 198.247 161.179H197.409C197.345 160.93 197.203 160.71 196.983 160.518C196.765 160.324 196.471 160.227 196.102 160.227C195.775 160.227 195.489 160.312 195.243 160.483C194.999 160.651 194.808 160.889 194.671 161.197C194.536 161.502 194.469 161.861 194.469 162.273C194.469 162.694 194.535 163.061 194.667 163.374C194.802 163.686 194.992 163.929 195.236 164.102C195.482 164.274 195.771 164.361 196.102 164.361C196.32 164.361 196.518 164.323 196.695 164.247C196.873 164.171 197.023 164.062 197.146 163.92C197.269 163.778 197.357 163.608 197.409 163.409H198.247C198.2 163.731 198.082 164.021 197.895 164.279C197.711 164.535 197.466 164.738 197.16 164.89C196.857 165.039 196.505 165.114 196.102 165.114ZM201.688 165.114C201.196 165.114 200.764 164.996 200.392 164.762C200.023 164.528 199.734 164.2 199.525 163.778C199.319 163.357 199.216 162.865 199.216 162.301C199.216 161.733 199.319 161.237 199.525 160.813C199.734 160.389 200.023 160.06 200.392 159.826C200.764 159.592 201.196 159.474 201.688 159.474C202.18 159.474 202.611 159.592 202.981 159.826C203.352 160.06 203.641 160.389 203.847 160.813C204.055 161.237 204.16 161.733 204.16 162.301C204.16 162.865 204.055 163.357 203.847 163.778C203.641 164.2 203.352 164.528 202.981 164.762C202.611 164.996 202.18 165.114 201.688 165.114ZM201.688 164.361C202.062 164.361 202.37 164.265 202.611 164.073C202.853 163.881 203.032 163.629 203.148 163.317C203.264 163.004 203.322 162.666 203.322 162.301C203.322 161.937 203.264 161.597 203.148 161.282C203.032 160.967 202.853 160.713 202.611 160.518C202.37 160.324 202.062 160.227 201.688 160.227C201.314 160.227 201.006 160.324 200.765 160.518C200.523 160.713 200.345 160.967 200.229 161.282C200.113 161.597 200.055 161.937 200.055 162.301C200.055 162.666 200.113 163.004 200.229 163.317C200.345 163.629 200.523 163.881 200.765 164.073C201.006 164.265 201.314 164.361 201.688 164.361ZM205.439 165V159.545H206.249V160.398H206.32C206.433 160.107 206.617 159.88 206.87 159.719C207.123 159.556 207.428 159.474 207.783 159.474C208.143 159.474 208.442 159.556 208.681 159.719C208.923 159.88 209.111 160.107 209.246 160.398H209.303C209.442 160.116 209.652 159.892 209.931 159.727C210.21 159.558 210.545 159.474 210.936 159.474C211.424 159.474 211.823 159.627 212.133 159.933C212.443 160.236 212.598 160.708 212.598 161.349V165H211.76V161.349C211.76 160.947 211.65 160.659 211.43 160.487C211.21 160.314 210.95 160.227 210.652 160.227C210.268 160.227 209.971 160.343 209.761 160.575C209.55 160.805 209.445 161.096 209.445 161.449V165H208.592V161.264C208.592 160.954 208.492 160.704 208.29 160.515C208.089 160.323 207.83 160.227 207.513 160.227C207.295 160.227 207.091 160.285 206.902 160.401C206.715 160.517 206.563 160.678 206.447 160.884C206.334 161.088 206.277 161.323 206.277 161.591V165H205.439ZM220.068 160.973V161.754H216.886V160.973H220.068ZM226.713 165.099C226.178 165.099 225.722 164.954 225.346 164.663C224.969 164.369 224.682 163.944 224.483 163.388C224.284 162.829 224.184 162.154 224.184 161.364C224.184 160.578 224.284 159.906 224.483 159.35C224.684 158.791 224.973 158.365 225.349 158.072C225.728 157.776 226.183 157.628 226.713 157.628C227.243 157.628 227.697 157.776 228.073 158.072C228.452 158.365 228.741 158.791 228.939 159.35C229.141 159.906 229.241 160.578 229.241 161.364C229.241 162.154 229.142 162.829 228.943 163.388C228.744 163.944 228.456 164.369 228.08 164.663C227.704 164.954 227.248 165.099 226.713 165.099ZM226.713 164.318C227.243 164.318 227.655 164.062 227.949 163.551C228.242 163.04 228.389 162.311 228.389 161.364C228.389 160.734 228.322 160.198 228.187 159.755C228.054 159.312 227.862 158.975 227.611 158.743C227.363 158.511 227.063 158.395 226.713 158.395C226.187 158.395 225.777 158.654 225.481 159.173C225.185 159.689 225.037 160.419 225.037 161.364C225.037 161.993 225.103 162.528 225.236 162.969C225.368 163.409 225.559 163.744 225.807 163.974C226.058 164.203 226.36 164.318 226.713 164.318ZM232.963 165.099C232.428 165.099 231.972 164.954 231.596 164.663C231.219 164.369 230.932 163.944 230.733 163.388C230.534 162.829 230.434 162.154 230.434 161.364C230.434 160.578 230.534 159.906 230.733 159.35C230.934 158.791 231.223 158.365 231.599 158.072C231.978 157.776 232.433 157.628 232.963 157.628C233.493 157.628 233.947 157.776 234.323 158.072C234.702 158.365 234.991 158.791 235.189 159.35C235.391 159.906 235.491 160.578 235.491 161.364C235.491 162.154 235.392 162.829 235.193 163.388C234.994 163.944 234.706 164.369 234.33 164.663C233.954 164.954 233.498 165.099 232.963 165.099ZM232.963 164.318C233.493 164.318 233.905 164.062 234.199 163.551C234.492 163.04 234.639 162.311 234.639 161.364C234.639 160.734 234.572 160.198 234.437 159.755C234.304 159.312 234.112 158.975 233.861 158.743C233.613 158.511 233.313 158.395 232.963 158.395C232.437 158.395 232.027 158.654 231.731 159.173C231.435 159.689 231.287 160.419 231.287 161.364C231.287 161.993 231.353 162.528 231.486 162.969C231.618 163.409 231.809 163.744 232.057 163.974C232.308 164.203 232.61 164.318 232.963 164.318ZM237.466 164.07C237.291 164.07 237.14 164.007 237.015 163.881C236.889 163.756 236.827 163.606 236.827 163.43C236.827 163.255 236.889 163.105 237.015 162.979C237.14 162.854 237.291 162.791 237.466 162.791C237.641 162.791 237.791 162.854 237.917 162.979C238.042 163.105 238.105 163.255 238.105 163.43C238.105 163.546 238.075 163.653 238.016 163.75C237.959 163.847 237.882 163.925 237.785 163.984C237.691 164.041 237.584 164.07 237.466 164.07ZM237.466 160.391C237.291 160.391 237.14 160.328 237.015 160.202C236.889 160.077 236.827 159.927 236.827 159.751C236.827 159.576 236.889 159.426 237.015 159.3C237.14 159.175 237.291 159.112 237.466 159.112C237.641 159.112 237.791 159.175 237.917 159.3C238.042 159.426 238.105 159.576 238.105 159.751C238.105 159.867 238.075 159.974 238.016 160.071C237.959 160.168 237.882 160.246 237.785 160.305C237.691 160.362 237.584 160.391 237.466 160.391ZM239.424 163.509V162.784L242.62 157.727H243.146V158.849H242.791L240.376 162.67V162.727H244.68V163.509H239.424ZM242.847 165V163.288V162.951V157.727H243.686V165H242.847ZM246.238 165L249.491 158.565V158.509H245.741V157.727H250.4V158.551L247.161 165H246.238Z" fill="#BFBCC2"/>
<rect width="276" height="56" transform="translate(64 181)" fill="#1A171C"/>
<rect x="72" y="189" width="260" height="40" rx="4" fill="#332F37"/>
<path d="M94.6663 195.667H83.9997C83.2924 195.667 82.6142 195.948 82.1141 196.448C81.614 196.948 81.333 197.626 81.333 198.333V219.667C81.333 220.374 81.614 221.052 82.1141 221.552C82.6142 222.052 83.2924 222.333 83.9997 222.333H99.9997C100.707 222.333 101.385 222.052 101.885 221.552C102.385 221.052 102.666 220.374 102.666 219.667V203.667L94.6663 195.667Z" stroke="#F2F1F4" stroke-width="2" stroke-linecap="round" stroke-linejoin="round"/>
<path d="M94.667 195.667V203.667H102.667" stroke="#F2F1F4" stroke-width="2" stroke-linecap="round" stroke-linejoin="round"/>
<path d="M97.3337 210.333H86.667" stroke="#F2F1F4" stroke-width="2" stroke-linecap="round" stroke-linejoin="round"/>
<path d="M97.3337 215.667H86.667" stroke="#F2F1F4" stroke-width="2" stroke-linecap="round" stroke-linejoin="round"/>
<path d="M89.3337 205H88.0003H86.667" stroke="#F2F1F4" stroke-width="2" stroke-linecap="round" stroke-linejoin="round"/>
<path d="M117.233 206V195.818H123.338V196.912H118.466V200.352H122.881V201.446H118.466V206H117.233ZM125.291 206V198.364H126.464V206H125.291ZM125.887 197.091C125.659 197.091 125.461 197.013 125.296 196.857C125.133 196.701 125.052 196.514 125.052 196.295C125.052 196.077 125.133 195.889 125.296 195.734C125.461 195.578 125.659 195.5 125.887 195.5C126.116 195.5 126.311 195.578 126.474 195.734C126.64 195.889 126.722 196.077 126.722 196.295C126.722 196.514 126.64 196.701 126.474 196.857C126.311 197.013 126.116 197.091 125.887 197.091ZM129.786 195.818V206H128.613V195.818H129.786ZM135.137 206.159C134.401 206.159 133.766 205.997 133.233 205.672C132.702 205.344 132.293 204.886 132.005 204.3C131.72 203.71 131.577 203.024 131.577 202.241C131.577 201.459 131.72 200.77 132.005 200.173C132.293 199.573 132.694 199.106 133.208 198.771C133.725 198.433 134.328 198.264 135.018 198.264C135.415 198.264 135.808 198.33 136.196 198.463C136.584 198.596 136.937 198.811 137.255 199.109C137.573 199.404 137.827 199.795 138.015 200.283C138.204 200.77 138.299 201.37 138.299 202.082V202.58H132.412V201.565H137.106C137.106 201.134 137.019 200.75 136.847 200.412C136.678 200.074 136.436 199.807 136.121 199.612C135.81 199.416 135.442 199.318 135.018 199.318C134.55 199.318 134.146 199.434 133.805 199.666C133.466 199.895 133.206 200.193 133.024 200.561C132.842 200.929 132.751 201.323 132.751 201.744V202.42C132.751 202.997 132.85 203.486 133.049 203.887C133.251 204.285 133.531 204.588 133.889 204.797C134.247 205.002 134.663 205.105 135.137 205.105C135.445 205.105 135.724 205.062 135.972 204.976C136.224 204.886 136.441 204.754 136.623 204.578C136.806 204.399 136.947 204.177 137.046 203.912L138.18 204.23C138.06 204.615 137.86 204.953 137.578 205.244C137.296 205.533 136.948 205.758 136.534 205.92C136.12 206.08 135.654 206.159 135.137 206.159ZM147.442 206.139C146.785 206.139 146.2 206.027 145.687 205.801C145.176 205.576 144.77 205.263 144.469 204.862C144.17 204.457 144.008 203.988 143.981 203.455H145.234C145.261 203.783 145.373 204.066 145.572 204.305C145.771 204.54 146.031 204.722 146.353 204.852C146.674 204.981 147.031 205.045 147.422 205.045C147.859 205.045 148.247 204.969 148.585 204.817C148.923 204.664 149.188 204.452 149.381 204.18C149.573 203.909 149.669 203.594 149.669 203.236C149.669 202.861 149.576 202.531 149.39 202.246C149.205 201.958 148.933 201.733 148.575 201.57C148.217 201.408 147.78 201.327 147.263 201.327H146.447V200.233H147.263C147.667 200.233 148.022 200.16 148.327 200.014C148.635 199.868 148.875 199.663 149.047 199.398C149.223 199.133 149.311 198.821 149.311 198.463C149.311 198.118 149.235 197.818 149.082 197.563C148.93 197.308 148.714 197.109 148.436 196.967C148.161 196.824 147.836 196.753 147.461 196.753C147.11 196.753 146.779 196.817 146.467 196.947C146.159 197.073 145.907 197.257 145.711 197.499C145.516 197.737 145.41 198.026 145.393 198.364H144.2C144.22 197.83 144.381 197.363 144.682 196.962C144.984 196.557 145.378 196.242 145.866 196.017C146.356 195.792 146.895 195.679 147.481 195.679C148.111 195.679 148.651 195.807 149.102 196.062C149.553 196.314 149.899 196.647 150.141 197.061C150.383 197.475 150.504 197.923 150.504 198.403C150.504 198.977 150.353 199.466 150.052 199.87C149.753 200.274 149.347 200.554 148.834 200.71V200.79C149.477 200.896 149.979 201.169 150.34 201.61C150.701 202.048 150.882 202.589 150.882 203.236C150.882 203.789 150.731 204.286 150.43 204.727C150.131 205.165 149.724 205.509 149.206 205.761C148.689 206.013 148.101 206.139 147.442 206.139Z" fill="white"/>
<path d="M119.31 213.727V221H118.429V214.651H118.386L116.611 215.83V214.935L118.429 213.727H119.31ZM121.597 221.057C121.421 221.057 121.271 220.994 121.146 220.869C121.02 220.743 120.957 220.593 120.957 220.418C120.957 220.242 121.02 220.092 121.146 219.967C121.271 219.841 121.421 219.778 121.597 219.778C121.772 219.778 121.922 219.841 122.048 219.967C122.173 220.092 122.236 220.242 122.236 220.418C122.236 220.534 122.206 220.64 122.147 220.737C122.09 220.834 122.013 220.912 121.916 220.972C121.821 221.028 121.715 221.057 121.597 221.057ZM123.806 221L127.059 214.565V214.509H123.309V213.727H127.968V214.551L124.73 221H123.806ZM129.292 221V220.361L131.692 217.733C131.974 217.425 132.206 217.158 132.388 216.93C132.571 216.701 132.706 216.485 132.793 216.284C132.883 216.08 132.928 215.867 132.928 215.645C132.928 215.389 132.867 215.168 132.744 214.981C132.623 214.794 132.457 214.649 132.246 214.548C132.036 214.446 131.799 214.395 131.536 214.395C131.257 214.395 131.013 214.453 130.805 214.569C130.599 214.683 130.439 214.842 130.325 215.048C130.214 215.254 130.158 215.496 130.158 215.773H129.32C129.32 215.347 129.419 214.973 129.615 214.651C129.812 214.329 130.079 214.078 130.418 213.898C130.759 213.718 131.141 213.628 131.565 213.628C131.991 213.628 132.368 213.718 132.697 213.898C133.027 214.078 133.285 214.32 133.472 214.626C133.659 214.931 133.752 215.271 133.752 215.645C133.752 215.912 133.704 216.174 133.607 216.43C133.512 216.683 133.346 216.966 133.109 217.278C132.875 217.589 132.549 217.967 132.133 218.415L130.499 220.162V220.219H133.88V221H129.292ZM135.474 213.727H136.526L138.997 219.764H139.082L141.554 213.727H142.605V221H141.781V215.474H141.71L139.438 221H138.642L136.369 215.474H136.298V221H135.474V213.727ZM144.371 221V213.727H146.914C147.42 213.727 147.838 213.815 148.167 213.99C148.496 214.163 148.741 214.396 148.902 214.69C149.063 214.981 149.144 215.304 149.144 215.659C149.144 215.972 149.088 216.23 148.977 216.433C148.868 216.637 148.723 216.798 148.544 216.916C148.366 217.035 148.173 217.122 147.965 217.179V217.25C148.187 217.264 148.411 217.342 148.636 217.484C148.861 217.626 149.049 217.83 149.2 218.095C149.352 218.36 149.428 218.685 149.428 219.068C149.428 219.433 149.345 219.761 149.179 220.052C149.013 220.343 148.752 220.574 148.394 220.744C148.037 220.915 147.572 221 146.999 221H144.371ZM145.252 220.219H146.999C147.574 220.219 147.982 220.107 148.224 219.885C148.468 219.66 148.59 219.388 148.59 219.068C148.59 218.822 148.527 218.595 148.401 218.386C148.276 218.176 148.097 218.008 147.865 217.882C147.633 217.754 147.359 217.69 147.041 217.69H145.252V220.219ZM145.252 216.923H146.885C147.15 216.923 147.389 216.871 147.602 216.767C147.818 216.663 147.988 216.516 148.114 216.327C148.242 216.137 148.306 215.915 148.306 215.659C148.306 215.339 148.194 215.068 147.972 214.846C147.749 214.621 147.396 214.509 146.914 214.509H145.252V216.923ZM156.699 216.973V217.754H153.517V216.973H156.699ZM163.188 223.159C162.783 223.159 162.435 223.107 162.143 223.003C161.852 222.901 161.61 222.766 161.415 222.598C161.224 222.432 161.071 222.255 160.957 222.065L161.625 221.597C161.701 221.696 161.797 221.81 161.913 221.938C162.029 222.068 162.187 222.18 162.388 222.275C162.592 222.372 162.858 222.42 163.188 222.42C163.628 222.42 163.991 222.314 164.278 222.101C164.564 221.888 164.707 221.554 164.707 221.099V219.991H164.636C164.575 220.091 164.487 220.214 164.374 220.361C164.262 220.505 164.101 220.634 163.891 220.748C163.682 220.859 163.401 220.915 163.045 220.915C162.605 220.915 162.21 220.811 161.859 220.602C161.511 220.394 161.236 220.091 161.032 219.693C160.831 219.295 160.73 218.812 160.73 218.244C160.73 217.686 160.828 217.199 161.025 216.785C161.221 216.368 161.495 216.046 161.845 215.819C162.196 215.589 162.6 215.474 163.06 215.474C163.415 215.474 163.696 215.534 163.905 215.652C164.116 215.768 164.277 215.901 164.388 216.05C164.501 216.196 164.589 216.317 164.651 216.412H164.736V215.545H165.545V221.156C165.545 221.625 165.439 222.006 165.226 222.3C165.015 222.596 164.731 222.812 164.374 222.95C164.018 223.089 163.623 223.159 163.188 223.159ZM163.159 220.162C163.495 220.162 163.779 220.085 164.011 219.931C164.243 219.777 164.42 219.556 164.54 219.267C164.661 218.978 164.722 218.633 164.722 218.23C164.722 217.837 164.662 217.49 164.544 217.19C164.426 216.889 164.25 216.653 164.018 216.483C163.786 216.312 163.5 216.227 163.159 216.227C162.804 216.227 162.508 216.317 162.271 216.497C162.037 216.677 161.861 216.919 161.742 217.222C161.626 217.525 161.568 217.861 161.568 218.23C161.568 218.609 161.627 218.944 161.746 219.235C161.866 219.524 162.044 219.751 162.278 219.917C162.515 220.08 162.809 220.162 163.159 220.162ZM167.08 221V215.545H167.918V221H167.08ZM167.506 214.636C167.342 214.636 167.201 214.581 167.083 214.469C166.967 214.358 166.909 214.224 166.909 214.068C166.909 213.912 166.967 213.778 167.083 213.667C167.201 213.556 167.342 213.5 167.506 213.5C167.669 213.5 167.809 213.556 167.925 213.667C168.043 213.778 168.102 213.912 168.102 214.068C168.102 214.224 168.043 214.358 167.925 214.469C167.809 214.581 167.669 214.636 167.506 214.636ZM171.825 215.545V216.256H168.998V215.545H171.825ZM169.822 214.239H170.66V219.438C170.66 219.674 170.694 219.852 170.763 219.97C170.834 220.086 170.924 220.164 171.033 220.205C171.144 220.242 171.261 220.261 171.384 220.261C171.477 220.261 171.552 220.257 171.612 220.247C171.671 220.235 171.718 220.226 171.754 220.219L171.924 220.972C171.867 220.993 171.788 221.014 171.686 221.036C171.584 221.059 171.455 221.071 171.299 221.071C171.062 221.071 170.83 221.02 170.603 220.918C170.378 220.817 170.191 220.661 170.042 220.453C169.895 220.245 169.822 219.982 169.822 219.665V214.239ZM174.041 217.719V221H173.203V213.727H174.041V216.398H174.112C174.24 216.116 174.431 215.892 174.687 215.727C174.945 215.558 175.288 215.474 175.717 215.474C176.088 215.474 176.414 215.549 176.693 215.698C176.973 215.845 177.189 216.071 177.343 216.376C177.499 216.679 177.578 217.065 177.578 217.534V221H176.74V217.591C176.74 217.158 176.627 216.823 176.402 216.586C176.18 216.347 175.871 216.227 175.475 216.227C175.201 216.227 174.954 216.285 174.737 216.401C174.521 216.517 174.351 216.687 174.225 216.909C174.102 217.132 174.041 217.402 174.041 217.719ZM182.548 218.77V215.545H183.386V221H182.548V220.077H182.491C182.364 220.354 182.165 220.589 181.895 220.783C181.625 220.975 181.284 221.071 180.872 221.071C180.531 221.071 180.228 220.996 179.963 220.847C179.698 220.696 179.49 220.469 179.338 220.165C179.187 219.86 179.111 219.475 179.111 219.011V215.545H179.949V218.955C179.949 219.352 180.06 219.67 180.283 219.906C180.508 220.143 180.794 220.261 181.142 220.261C181.35 220.261 181.562 220.208 181.778 220.102C181.996 219.995 182.178 219.832 182.325 219.612C182.474 219.391 182.548 219.111 182.548 218.77ZM185.035 221V213.727H185.873V216.412H185.944C186.006 216.317 186.091 216.196 186.2 216.05C186.311 215.901 186.47 215.768 186.676 215.652C186.884 215.534 187.166 215.474 187.521 215.474C187.98 215.474 188.385 215.589 188.735 215.819C189.086 216.049 189.359 216.374 189.556 216.795C189.752 217.217 189.85 217.714 189.85 218.287C189.85 218.865 189.752 219.365 189.556 219.789C189.359 220.21 189.087 220.537 188.739 220.769C188.391 220.999 187.99 221.114 187.535 221.114C187.185 221.114 186.904 221.056 186.693 220.94C186.483 220.821 186.32 220.687 186.207 220.538C186.093 220.387 186.006 220.261 185.944 220.162H185.845V221H185.035ZM185.859 218.273C185.859 218.685 185.919 219.048 186.04 219.363C186.161 219.675 186.337 219.92 186.569 220.098C186.801 220.273 187.085 220.361 187.421 220.361C187.772 220.361 188.064 220.268 188.298 220.084C188.535 219.897 188.713 219.646 188.831 219.331C188.952 219.014 189.012 218.661 189.012 218.273C189.012 217.889 188.953 217.544 188.835 217.236C188.719 216.926 188.542 216.681 188.306 216.501C188.071 216.318 187.776 216.227 187.421 216.227C187.08 216.227 186.794 216.314 186.562 216.487C186.33 216.657 186.155 216.896 186.036 217.204C185.918 217.509 185.859 217.866 185.859 218.273ZM191.743 221.057C191.568 221.057 191.418 220.994 191.292 220.869C191.167 220.743 191.104 220.593 191.104 220.418C191.104 220.242 191.167 220.092 191.292 219.967C191.418 219.841 191.568 219.778 191.743 219.778C191.918 219.778 192.069 219.841 192.194 219.967C192.32 220.092 192.382 220.242 192.382 220.418C192.382 220.534 192.353 220.64 192.294 220.737C192.237 220.834 192.16 220.912 192.063 220.972C191.968 221.028 191.861 221.057 191.743 221.057ZM196.102 221.114C195.591 221.114 195.15 220.993 194.781 220.751C194.412 220.51 194.128 220.177 193.929 219.754C193.73 219.33 193.631 218.846 193.631 218.301C193.631 217.747 193.732 217.258 193.936 216.835C194.142 216.408 194.428 216.076 194.795 215.837C195.165 215.595 195.595 215.474 196.088 215.474C196.471 215.474 196.817 215.545 197.125 215.688C197.433 215.83 197.685 216.028 197.881 216.284C198.078 216.54 198.2 216.838 198.247 217.179H197.409C197.345 216.93 197.203 216.71 196.983 216.518C196.765 216.324 196.471 216.227 196.102 216.227C195.775 216.227 195.489 216.312 195.243 216.483C194.999 216.651 194.808 216.889 194.671 217.197C194.536 217.502 194.469 217.861 194.469 218.273C194.469 218.694 194.535 219.061 194.667 219.374C194.802 219.686 194.992 219.929 195.236 220.102C195.482 220.274 195.771 220.361 196.102 220.361C196.32 220.361 196.518 220.323 196.695 220.247C196.873 220.171 197.023 220.062 197.146 219.92C197.269 219.778 197.357 219.608 197.409 219.409H198.247C198.2 219.731 198.082 220.021 197.895 220.279C197.711 220.535 197.466 220.738 197.16 220.89C196.857 221.039 196.505 221.114 196.102 221.114ZM201.688 221.114C201.196 221.114 200.764 220.996 200.392 220.762C200.023 220.528 199.734 220.2 199.525 219.778C199.319 219.357 199.216 218.865 199.216 218.301C199.216 217.733 199.319 217.237 199.525 216.813C199.734 216.389 200.023 216.06 200.392 215.826C200.764 215.592 201.196 215.474 201.688 215.474C202.18 215.474 202.611 215.592 202.981 215.826C203.352 216.06 203.641 216.389 203.847 216.813C204.055 217.237 204.16 217.733 204.16 218.301C204.16 218.865 204.055 219.357 203.847 219.778C203.641 220.2 203.352 220.528 202.981 220.762C202.611 220.996 202.18 221.114 201.688 221.114ZM201.688 220.361C202.062 220.361 202.37 220.265 202.611 220.073C202.853 219.881 203.032 219.629 203.148 219.317C203.264 219.004 203.322 218.666 203.322 218.301C203.322 217.937 203.264 217.597 203.148 217.282C203.032 216.967 202.853 216.713 202.611 216.518C202.37 216.324 202.062 216.227 201.688 216.227C201.314 216.227 201.006 216.324 200.765 216.518C200.523 216.713 200.345 216.967 200.229 217.282C200.113 217.597 200.055 217.937 200.055 218.301C200.055 218.666 200.113 219.004 200.229 219.317C200.345 219.629 200.523 219.881 200.765 220.073C201.006 220.265 201.314 220.361 201.688 220.361ZM205.439 221V215.545H206.249V216.398H206.32C206.433 216.107 206.617 215.88 206.87 215.719C207.123 215.556 207.428 215.474 207.783 215.474C208.143 215.474 208.442 215.556 208.681 215.719C208.923 215.88 209.111 216.107 209.246 216.398H209.303C209.442 216.116 209.652 215.892 209.931 215.727C210.21 215.558 210.545 215.474 210.936 215.474C211.424 215.474 211.823 215.627 212.133 215.933C212.443 216.236 212.598 216.708 212.598 217.349V221H211.76V217.349C211.76 216.947 211.65 216.659 211.43 216.487C211.21 216.314 210.95 216.227 210.652 216.227C210.268 216.227 209.971 216.343 209.761 216.575C209.55 216.805 209.445 217.096 209.445 217.449V221H208.592V217.264C208.592 216.954 208.492 216.704 208.29 216.515C208.089 216.323 207.83 216.227 207.513 216.227C207.295 216.227 207.091 216.285 206.902 216.401C206.715 216.517 206.563 216.678 206.447 216.884C206.334 217.088 206.277 217.323 206.277 217.591V221H205.439ZM220.068 216.973V217.754H216.886V216.973H220.068ZM226.713 221.099C226.178 221.099 225.722 220.954 225.346 220.663C224.969 220.369 224.682 219.944 224.483 219.388C224.284 218.829 224.184 218.154 224.184 217.364C224.184 216.578 224.284 215.906 224.483 215.35C224.684 214.791 224.973 214.365 225.349 214.072C225.728 213.776 226.183 213.628 226.713 213.628C227.243 213.628 227.697 213.776 228.073 214.072C228.452 214.365 228.741 214.791 228.939 215.35C229.141 215.906 229.241 216.578 229.241 217.364C229.241 218.154 229.142 218.829 228.943 219.388C228.744 219.944 228.456 220.369 228.08 220.663C227.704 220.954 227.248 221.099 226.713 221.099ZM226.713 220.318C227.243 220.318 227.655 220.062 227.949 219.551C228.242 219.04 228.389 218.311 228.389 217.364C228.389 216.734 228.322 216.198 228.187 215.755C228.054 215.312 227.862 214.975 227.611 214.743C227.363 214.511 227.063 214.395 226.713 214.395C226.187 214.395 225.777 214.654 225.481 215.173C225.185 215.689 225.037 216.419 225.037 217.364C225.037 217.993 225.103 218.528 225.236 218.969C225.368 219.409 225.559 219.744 225.807 219.974C226.058 220.203 226.36 220.318 226.713 220.318ZM232.963 221.099C232.428 221.099 231.972 220.954 231.596 220.663C231.219 220.369 230.932 219.944 230.733 219.388C230.534 218.829 230.434 218.154 230.434 217.364C230.434 216.578 230.534 215.906 230.733 215.35C230.934 214.791 231.223 214.365 231.599 214.072C231.978 213.776 232.433 213.628 232.963 213.628C233.493 213.628 233.947 213.776 234.323 214.072C234.702 214.365 234.991 214.791 235.189 215.35C235.391 215.906 235.491 216.578 235.491 217.364C235.491 218.154 235.392 218.829 235.193 219.388C234.994 219.944 234.706 220.369 234.33 220.663C233.954 220.954 233.498 221.099 232.963 221.099ZM232.963 220.318C233.493 220.318 233.905 220.062 234.199 219.551C234.492 219.04 234.639 218.311 234.639 217.364C234.639 216.734 234.572 216.198 234.437 215.755C234.304 215.312 234.112 214.975 233.861 214.743C233.613 214.511 233.313 214.395 232.963 214.395C232.437 214.395 232.027 214.654 231.731 215.173C231.435 215.689 231.287 216.419 231.287 217.364C231.287 217.993 231.353 218.528 231.486 218.969C231.618 219.409 231.809 219.744 232.057 219.974C232.308 220.203 232.61 220.318 232.963 220.318ZM237.466 220.07C237.291 220.07 237.14 220.007 237.015 219.881C236.889 219.756 236.827 219.606 236.827 219.43C236.827 219.255 236.889 219.105 237.015 218.979C237.14 218.854 237.291 218.791 237.466 218.791C237.641 218.791 237.791 218.854 237.917 218.979C238.042 219.105 238.105 219.255 238.105 219.43C238.105 219.546 238.075 219.653 238.016 219.75C237.959 219.847 237.882 219.925 237.785 219.984C237.691 220.041 237.584 220.07 237.466 220.07ZM237.466 216.391C237.291 216.391 237.14 216.328 237.015 216.202C236.889 216.077 236.827 215.927 236.827 215.751C236.827 215.576 236.889 215.426 237.015 215.3C237.14 215.175 237.291 215.112 237.466 215.112C237.641 215.112 237.791 215.175 237.917 215.3C238.042 215.426 238.105 215.576 238.105 215.751C238.105 215.867 238.075 215.974 238.016 216.071C237.959 216.168 237.882 216.246 237.785 216.305C237.691 216.362 237.584 216.391 237.466 216.391ZM239.424 219.509V218.784L242.62 213.727H243.146V214.849H242.791L240.376 218.67V218.727H244.68V219.509H239.424ZM242.847 221V219.288V218.951V213.727H243.686V221H242.847ZM246.238 221L249.491 214.565V214.509H245.741V213.727H250.4V214.551L247.161 221H246.238Z" fill="#BFBCC2"/>
<path d="M72.1499 44H65.9624V26.5455H72.201C73.9567 26.5455 75.468 26.8949 76.7351 27.5938C78.0021 28.2869 78.9766 29.2841 79.6584 30.5852C80.3459 31.8864 80.6896 33.4432 80.6896 35.2557C80.6896 37.0739 80.3459 38.6364 79.6584 39.9432C78.9766 41.25 77.9964 42.2528 76.718 42.9517C75.4453 43.6506 73.9226 44 72.1499 44ZM69.6527 40.8381H71.9964C73.0874 40.8381 74.005 40.6449 74.7493 40.2585C75.4993 39.8665 76.0618 39.2614 76.4368 38.4432C76.8175 37.6193 77.0078 36.5568 77.0078 35.2557C77.0078 33.9659 76.8175 32.9119 76.4368 32.0938C76.0618 31.2756 75.5021 30.6733 74.7578 30.2869C74.0135 29.9006 73.0959 29.7074 72.005 29.7074H69.6527V40.8381ZM89.2699 44.2557C87.946 44.2557 86.8011 43.9744 85.8352 43.4119C84.875 42.8437 84.1335 42.054 83.6108 41.0426C83.0881 40.0256 82.8267 38.8466 82.8267 37.5057C82.8267 36.1534 83.0881 34.9716 83.6108 33.9602C84.1335 32.9432 84.875 32.1534 85.8352 31.5909C86.8011 31.0227 87.946 30.7386 89.2699 30.7386C90.5938 30.7386 91.7358 31.0227 92.696 31.5909C93.6619 32.1534 94.4062 32.9432 94.929 33.9602C95.4517 34.9716 95.7131 36.1534 95.7131 37.5057C95.7131 38.8466 95.4517 40.0256 94.929 41.0426C94.4062 42.054 93.6619 42.8437 92.696 43.4119C91.7358 43.9744 90.5938 44.2557 89.2699 44.2557ZM89.2869 41.4432C89.8892 41.4432 90.392 41.2727 90.7955 40.9318C91.1989 40.5852 91.5028 40.1136 91.7074 39.517C91.9176 38.9205 92.0227 38.2415 92.0227 37.4801C92.0227 36.7188 91.9176 36.0398 91.7074 35.4432C91.5028 34.8466 91.1989 34.375 90.7955 34.0284C90.392 33.6818 89.8892 33.5085 89.2869 33.5085C88.679 33.5085 88.1676 33.6818 87.7528 34.0284C87.3438 34.375 87.0341 34.8466 86.8239 35.4432C86.6193 36.0398 86.517 36.7188 86.517 37.4801C86.517 38.2415 86.6193 38.9205 86.8239 39.517C87.0341 40.1136 87.3438 40.5852 87.7528 40.9318C88.1676 41.2727 88.679 41.4432 89.2869 41.4432ZM100.328 44L96.7656 30.9091H100.439L102.467 39.7045H102.587L104.7 30.9091H108.305L110.453 39.6534H110.564L112.558 30.9091H116.223L112.669 44H108.825L106.575 35.767H106.413L104.163 44H100.328ZM121.79 36.4318V44H118.16V30.9091H121.62V33.2188H121.773C122.063 32.4574 122.549 31.8551 123.231 31.4119C123.913 30.9631 124.739 30.7386 125.711 30.7386C126.62 30.7386 127.413 30.9375 128.089 31.3352C128.765 31.733 129.29 32.3011 129.665 33.0398C130.04 33.7727 130.228 34.6477 130.228 35.6648V44H126.597V36.3125C126.603 35.5114 126.398 34.8864 125.984 34.4375C125.569 33.983 124.998 33.7557 124.271 33.7557C123.782 33.7557 123.35 33.8608 122.975 34.071C122.606 34.2812 122.316 34.5881 122.106 34.9915C121.901 35.3892 121.796 35.8693 121.79 36.4318ZM136.72 26.5455V44H133.089V26.5455H136.72ZM145.543 44.2557C144.219 44.2557 143.075 43.9744 142.109 43.4119C141.148 42.8437 140.407 42.054 139.884 41.0426C139.362 40.0256 139.1 38.8466 139.1 37.5057C139.1 36.1534 139.362 34.9716 139.884 33.9602C140.407 32.9432 141.148 32.1534 142.109 31.5909C143.075 31.0227 144.219 30.7386 145.543 30.7386C146.867 30.7386 148.009 31.0227 148.969 31.5909C149.935 32.1534 150.68 32.9432 151.202 33.9602C151.725 34.9716 151.987 36.1534 151.987 37.5057C151.987 38.8466 151.725 40.0256 151.202 41.0426C150.68 42.054 149.935 42.8437 148.969 43.4119C148.009 43.9744 146.867 44.2557 145.543 44.2557ZM145.56 41.4432C146.163 41.4432 146.665 41.2727 147.069 40.9318C147.472 40.5852 147.776 40.1136 147.981 39.517C148.191 38.9205 148.296 38.2415 148.296 37.4801C148.296 36.7188 148.191 36.0398 147.981 35.4432C147.776 34.8466 147.472 34.375 147.069 34.0284C146.665 33.6818 146.163 33.5085 145.56 33.5085C144.952 33.5085 144.441 33.6818 144.026 34.0284C143.617 34.375 143.308 34.8466 143.097 35.4432C142.893 36.0398 142.79 36.7188 142.79 37.4801C142.79 38.2415 142.893 38.9205 143.097 39.517C143.308 40.1136 143.617 40.5852 144.026 40.9318C144.441 41.2727 144.952 41.4432 145.56 41.4432ZM158.08 44.2472C157.245 44.2472 156.501 44.1023 155.847 43.8125C155.194 43.517 154.677 43.0824 154.296 42.5085C153.921 41.929 153.734 41.2074 153.734 40.3438C153.734 39.6165 153.867 39.0057 154.134 38.5114C154.401 38.017 154.765 37.6193 155.225 37.3182C155.685 37.017 156.208 36.7898 156.793 36.6364C157.384 36.483 158.004 36.375 158.651 36.3125C159.413 36.233 160.026 36.1591 160.492 36.0909C160.958 36.017 161.296 35.9091 161.506 35.767C161.717 35.625 161.822 35.4148 161.822 35.1364V35.0852C161.822 34.5455 161.651 34.1278 161.31 33.8324C160.975 33.5369 160.498 33.3892 159.879 33.3892C159.225 33.3892 158.705 33.5341 158.319 33.8239C157.933 34.108 157.677 34.4659 157.552 34.8977L154.194 34.625C154.364 33.8295 154.7 33.142 155.2 32.5625C155.7 31.9773 156.344 31.5284 157.134 31.2159C157.93 30.8977 158.85 30.7386 159.896 30.7386C160.623 30.7386 161.319 30.8239 161.984 30.9943C162.654 31.1648 163.248 31.429 163.765 31.7869C164.288 32.1449 164.7 32.6051 165.001 33.1676C165.302 33.7244 165.452 34.392 165.452 35.1705V44H162.009V42.1847H161.907C161.697 42.5938 161.415 42.9545 161.063 43.267C160.711 43.5739 160.288 43.8153 159.793 43.9915C159.299 44.1619 158.728 44.2472 158.08 44.2472ZM159.12 41.7415C159.654 41.7415 160.126 41.6364 160.535 41.4261C160.944 41.2102 161.265 40.9205 161.498 40.5568C161.731 40.1932 161.847 39.7812 161.847 39.321V37.9318C161.734 38.0057 161.577 38.0739 161.379 38.1364C161.185 38.1932 160.967 38.2472 160.722 38.2983C160.478 38.3437 160.234 38.3864 159.989 38.4261C159.745 38.4602 159.523 38.4915 159.325 38.5199C158.898 38.5824 158.526 38.6818 158.208 38.8182C157.89 38.9545 157.643 39.1392 157.467 39.3722C157.29 39.5994 157.202 39.8835 157.202 40.2244C157.202 40.7188 157.381 41.0966 157.739 41.358C158.103 41.6136 158.563 41.7415 159.12 41.7415ZM173.093 44.2131C172.099 44.2131 171.198 43.9574 170.391 43.446C169.59 42.929 168.954 42.1705 168.482 41.1705C168.016 40.1648 167.783 38.9318 167.783 37.4716C167.783 35.9716 168.025 34.7244 168.508 33.7301C168.991 32.7301 169.633 31.983 170.434 31.4886C171.241 30.9886 172.124 30.7386 173.085 30.7386C173.817 30.7386 174.428 30.8636 174.917 31.1136C175.411 31.358 175.809 31.6648 176.11 32.0341C176.417 32.3977 176.65 32.7557 176.809 33.108H176.92V26.5455H180.542V44H176.962V41.9034H176.809C176.638 42.267 176.397 42.6278 176.085 42.9858C175.778 43.3381 175.377 43.6307 174.883 43.8636C174.394 44.0966 173.798 44.2131 173.093 44.2131ZM174.244 41.3239C174.829 41.3239 175.323 41.1648 175.727 40.8466C176.136 40.5227 176.448 40.071 176.664 39.4915C176.886 38.9119 176.996 38.233 176.996 37.4545C176.996 36.6761 176.888 36 176.673 35.4261C176.457 34.8523 176.144 34.4091 175.735 34.0966C175.326 33.7841 174.829 33.6278 174.244 33.6278C173.647 33.6278 173.144 33.7898 172.735 34.1136C172.326 34.4375 172.016 34.8864 171.806 35.4602C171.596 36.0341 171.491 36.6989 171.491 37.4545C171.491 38.2159 171.596 38.8892 171.806 39.4744C172.022 40.054 172.332 40.5085 172.735 40.8381C173.144 41.1619 173.647 41.3239 174.244 41.3239ZM194.419 34.642L191.095 34.8466C191.038 34.5625 190.916 34.3068 190.729 34.0795C190.541 33.8466 190.294 33.6619 189.987 33.5256C189.686 33.3835 189.325 33.3125 188.905 33.3125C188.342 33.3125 187.868 33.4318 187.482 33.6705C187.095 33.9034 186.902 34.2159 186.902 34.608C186.902 34.9205 187.027 35.1847 187.277 35.4006C187.527 35.6165 187.956 35.7898 188.564 35.9205L190.933 36.3977C192.206 36.6591 193.155 37.0795 193.78 37.6591C194.405 38.2386 194.717 39 194.717 39.9432C194.717 40.8011 194.464 41.554 193.959 42.2017C193.459 42.8494 192.771 43.3551 191.896 43.7188C191.027 44.0767 190.024 44.2557 188.888 44.2557C187.155 44.2557 185.774 43.8949 184.746 43.1733C183.723 42.446 183.124 41.4574 182.947 40.2074L186.518 40.0199C186.626 40.5483 186.888 40.9517 187.303 41.2301C187.717 41.5028 188.249 41.6392 188.896 41.6392C189.533 41.6392 190.044 41.517 190.43 41.2727C190.822 41.0227 191.021 40.7017 191.027 40.3097C191.021 39.9801 190.882 39.7102 190.609 39.5C190.337 39.2841 189.916 39.1193 189.348 39.0057L187.081 38.554C185.803 38.2983 184.851 37.8551 184.226 37.2244C183.607 36.5937 183.297 35.7898 183.297 34.8125C183.297 33.9716 183.524 33.2472 183.979 32.6392C184.439 32.0312 185.084 31.5625 185.913 31.233C186.749 30.9034 187.726 30.7386 188.845 30.7386C190.499 30.7386 191.8 31.0881 192.749 31.7869C193.703 32.4858 194.26 33.4375 194.419 34.642Z" fill="#F2F1F4"/>
<path fill-rule="evenodd" clip-rule="evenodd" d="M48 25C48 16.1634 40.8366 9 32 9L48 9L48 25Z" fill="#1A171C"/>
<rect y="-87" width="1558" height="96" fill="#26222A"/>
<rect y="-39" width="1558" height="48" fill="#1A171C"/>
</g>
<defs>
<clipPath id="clip0_303_1450">
<rect width="150" height="236" rx="8" fill="white"/>
</clipPath>
</defs>
</svg>
