<!--
   - This Source Code Form is subject to the terms of the Mozilla Public
   - License, v. 2.0. If a copy of the MPL was not distributed with this
   - file, You can obtain one at http://mozilla.org/MPL/2.0/.
   -->
<svg width="150" height="236" viewBox="0 0 150 236" fill="none" xmlns="http://www.w3.org/2000/svg">
<g clip-path="url(#clip0_303_1728)">
<rect width="150" height="236" rx="8" fill="#1A171C"/>
<rect y="9" width="150" height="896" fill="#26222A"/>
<rect y="202" width="48" height="150" transform="rotate(-90 0 202)" fill="#1A171C"/>
<path fill-rule="evenodd" clip-rule="evenodd" d="M150 218C150 209.163 142.837 202 134 202L150 202L150 218Z" fill="#1A171C"/>
<path fill-rule="evenodd" clip-rule="evenodd" d="M150 138C150 146.837 142.837 154 134 154L150 154L150 138Z" fill="#1A171C"/>
<path d="M24 43C29.5228 43 34 38.5228 34 33C34 27.4772 29.5228 23 24 23C18.4772 23 14 27.4772 14 33C14 38.5228 18.4772 43 24 43Z" stroke="#F2F1F4" stroke-width="2" stroke-linecap="round" stroke-linejoin="round"/>
<path d="M14 33H34" stroke="#F2F1F4" stroke-width="2" stroke-linecap="round" stroke-linejoin="round"/>
<path d="M24 23C26.5013 25.7384 27.9228 29.292 28 33C27.9228 36.708 26.5013 40.2616 24 43C21.4987 40.2616 20.0772 36.708 20 33C20.0772 29.292 21.4987 25.7384 24 23Z" stroke="#F2F1F4" stroke-width="2" stroke-linecap="round" stroke-linejoin="round"/>
<path d="M24 91C29.5228 91 34 86.5228 34 81C34 75.4772 29.5228 71 24 71C18.4772 71 14 75.4772 14 81C14 86.5228 18.4772 91 24 91Z" stroke="#F2F1F4" stroke-width="2" stroke-linecap="round" stroke-linejoin="round"/>
<path d="M14 81H34" stroke="#F2F1F4" stroke-width="2" stroke-linecap="round" stroke-linejoin="round"/>
<path d="M24 71C26.5013 73.7384 27.9228 77.292 28 81C27.9228 84.708 26.5013 88.2616 24 91C21.4987 88.2616 20.0772 84.708 20 81C20.0772 77.292 21.4987 73.7384 24 71Z" stroke="#F2F1F4" stroke-width="2" stroke-linecap="round" stroke-linejoin="round"/>
<path d="M24 139C29.5228 139 34 134.523 34 129C34 123.477 29.5228 119 24 119C18.4772 119 14 123.477 14 129C14 134.523 18.4772 139 24 139Z" stroke="#F2F1F4" stroke-width="2" stroke-linecap="round" stroke-linejoin="round"/>
<path d="M14 129H34" stroke="#F2F1F4" stroke-width="2" stroke-linecap="round" stroke-linejoin="round"/>
<path d="M24 119C26.5013 121.738 27.9228 125.292 28 129C27.9228 132.708 26.5013 136.262 24 139C21.4987 136.262 20.0772 132.708 20 129C20.0772 125.292 21.4987 121.738 24 119Z" stroke="#F2F1F4" stroke-width="2" stroke-linecap="round" stroke-linejoin="round"/>
<path d="M24 187C29.5228 187 34 182.523 34 177C34 171.477 29.5228 167 24 167C18.4772 167 14 171.477 14 177C14 182.523 18.4772 187 24 187Z" stroke="#F2F1F4" stroke-width="2" stroke-linecap="round" stroke-linejoin="round"/>
<path d="M14 177H34" stroke="#F2F1F4" stroke-width="2" stroke-linecap="round" stroke-linejoin="round"/>
<path d="M24 167C26.5013 169.738 27.9228 173.292 28 177C27.9228 180.708 26.5013 184.262 24 187C21.4987 184.262 20.0772 180.708 20 177C20.0772 173.292 21.4987 169.738 24 167Z" stroke="#F2F1F4" stroke-width="2" stroke-linecap="round" stroke-linejoin="round"/>
<path d="M24 235C29.5228 235 34 230.523 34 225C34 219.477 29.5228 215 24 215C18.4772 215 14 219.477 14 225C14 230.523 18.4772 235 24 235Z" stroke="#F2F1F4" stroke-width="2" stroke-linecap="round" stroke-linejoin="round"/>
<path d="M14 225H34" stroke="#F2F1F4" stroke-width="2" stroke-linecap="round" stroke-linejoin="round"/>
<path d="M24 215C26.5013 217.738 27.9228 221.292 28 225C27.9228 228.708 26.5013 232.262 24 235C21.4987 232.262 20.0772 228.708 20 225C20.0772 221.292 21.4987 217.738 24 215Z" stroke="#F2F1F4" stroke-width="2" stroke-linecap="round" stroke-linejoin="round"/>
<path d="M50.1932 31C50.0838 30.6652 49.9396 30.3653 49.7607 30.1001C49.585 29.8317 49.3745 29.603 49.1293 29.4141C48.8873 29.2251 48.6122 29.081 48.304 28.9815C47.9957 28.8821 47.6577 28.8324 47.2898 28.8324C46.6866 28.8324 46.138 28.9882 45.6442 29.2997C45.1503 29.6113 44.7576 30.0703 44.4659 30.6768C44.1742 31.2834 44.0284 32.0275 44.0284 32.9091C44.0284 33.7907 44.1759 34.5348 44.4709 35.1413C44.7659 35.7479 45.1652 36.2069 45.669 36.5185C46.1728 36.83 46.7396 36.9858 47.3693 36.9858C47.9527 36.9858 48.4664 36.8615 48.9105 36.6129C49.358 36.361 49.706 36.0064 49.9545 35.549C50.2064 35.0883 50.3324 34.5464 50.3324 33.9233L50.7102 34.0028H47.6477V32.9091H51.5256V34.0028C51.5256 34.8414 51.3466 35.5705 50.9886 36.1903C50.634 36.8101 50.1435 37.2907 49.517 37.6321C48.8939 37.9702 48.178 38.1392 47.3693 38.1392C46.4678 38.1392 45.6757 37.9271 44.9929 37.5028C44.3134 37.0786 43.7831 36.4754 43.402 35.6932C43.0241 34.911 42.8352 33.983 42.8352 32.9091C42.8352 32.1037 42.9429 31.3795 43.1584 30.7365C43.3771 30.0902 43.6854 29.54 44.0831 29.0859C44.4808 28.6319 44.9515 28.2839 45.495 28.0419C46.0386 27.8 46.6368 27.679 47.2898 27.679C47.8267 27.679 48.3272 27.7602 48.7912 27.9226C49.2585 28.0817 49.6745 28.3087 50.0391 28.6037C50.407 28.8954 50.7135 29.245 50.9588 29.6527C51.2041 30.0571 51.3731 30.5062 51.4659 31H50.1932ZM56.5804 38.1591C55.891 38.1591 55.2862 37.995 54.7658 37.6669C54.2488 37.3388 53.8444 36.8797 53.5527 36.2898C53.2644 35.6998 53.1202 35.0104 53.1202 34.2216C53.1202 33.4261 53.2644 32.7318 53.5527 32.1385C53.8444 31.5452 54.2488 31.0845 54.7658 30.7564C55.2862 30.4283 55.891 30.2642 56.5804 30.2642C57.2698 30.2642 57.873 30.4283 58.3901 30.7564C58.9105 31.0845 59.3148 31.5452 59.6032 32.1385C59.8948 32.7318 60.0407 33.4261 60.0407 34.2216C60.0407 35.0104 59.8948 35.6998 59.6032 36.2898C59.3148 36.8797 58.9105 37.3388 58.3901 37.6669C57.873 37.995 57.2698 38.1591 56.5804 38.1591ZM56.5804 37.1051C57.1041 37.1051 57.535 36.9709 57.873 36.7024C58.2111 36.4339 58.4614 36.081 58.6238 35.6435C58.7862 35.206 58.8674 34.732 58.8674 34.2216C58.8674 33.7112 58.7862 33.2356 58.6238 32.7947C58.4614 32.3539 58.2111 31.9976 57.873 31.7259C57.535 31.4541 57.1041 31.3182 56.5804 31.3182C56.0568 31.3182 55.6259 31.4541 55.2878 31.7259C54.9498 31.9976 54.6995 32.3539 54.5371 32.7947C54.3747 33.2356 54.2935 33.7112 54.2935 34.2216C54.2935 34.732 54.3747 35.206 54.5371 35.6435C54.6995 36.081 54.9498 36.4339 55.2878 36.7024C55.6259 36.9709 56.0568 37.1051 56.5804 37.1051ZM64.9339 38.1591C64.2446 38.1591 63.6397 37.995 63.1193 37.6669C62.6023 37.3388 62.1979 36.8797 61.9062 36.2898C61.6179 35.6998 61.4737 35.0104 61.4737 34.2216C61.4737 33.4261 61.6179 32.7318 61.9062 32.1385C62.1979 31.5452 62.6023 31.0845 63.1193 30.7564C63.6397 30.4283 64.2446 30.2642 64.9339 30.2642C65.6233 30.2642 66.2266 30.4283 66.7436 30.7564C67.264 31.0845 67.6683 31.5452 67.9567 32.1385C68.2483 32.7318 68.3942 33.4261 68.3942 34.2216C68.3942 35.0104 68.2483 35.6998 67.9567 36.2898C67.6683 36.8797 67.264 37.3388 66.7436 37.6669C66.2266 37.995 65.6233 38.1591 64.9339 38.1591ZM64.9339 37.1051C65.4576 37.1051 65.8885 36.9709 66.2266 36.7024C66.5646 36.4339 66.8149 36.081 66.9773 35.6435C67.1397 35.206 67.2209 34.732 67.2209 34.2216C67.2209 33.7112 67.1397 33.2356 66.9773 32.7947C66.8149 32.3539 66.5646 31.9976 66.2266 31.7259C65.8885 31.4541 65.4576 31.3182 64.9339 31.3182C64.4103 31.3182 63.9794 31.4541 63.6413 31.7259C63.3033 31.9976 63.053 32.3539 62.8906 32.7947C62.7282 33.2356 62.647 33.7112 62.647 34.2216C62.647 34.732 62.7282 35.206 62.8906 35.6435C63.053 36.081 63.3033 36.4339 63.6413 36.7024C63.9794 36.9709 64.4103 37.1051 64.9339 37.1051ZM73.2676 41.0227C72.7008 41.0227 72.2136 40.9498 71.8059 40.804C71.3983 40.6615 71.0585 40.4725 70.7868 40.2372C70.5183 40.0052 70.3045 39.7566 70.1454 39.4915L71.0801 38.8352C71.1861 38.9744 71.3204 39.1335 71.4828 39.3125C71.6452 39.4948 71.8672 39.6522 72.149 39.7848C72.434 39.9207 72.8069 39.9886 73.2676 39.9886C73.8841 39.9886 74.3928 39.8395 74.7939 39.5412C75.1949 39.2429 75.3954 38.7756 75.3954 38.1392V36.5881H75.296C75.2098 36.7273 75.0872 36.8996 74.9281 37.1051C74.7723 37.3073 74.5469 37.4879 74.252 37.647C73.9603 37.8028 73.5659 37.8807 73.0687 37.8807C72.4522 37.8807 71.8987 37.7348 71.4082 37.4432C70.921 37.1515 70.5349 36.7273 70.2498 36.1705C69.9681 35.6136 69.8272 34.9375 69.8272 34.142C69.8272 33.3598 69.9648 32.6787 70.2399 32.0987C70.515 31.5154 70.8978 31.0646 71.3883 30.7464C71.8788 30.425 72.4456 30.2642 73.0886 30.2642C73.5858 30.2642 73.9802 30.3471 74.2718 30.5128C74.5668 30.6752 74.7922 30.8608 74.948 31.0696C75.1071 31.2751 75.2297 31.4441 75.3159 31.5767H75.4352V30.3636H76.5687V38.2188C76.5687 38.875 76.4196 39.4086 76.1213 39.8196C75.8263 40.2339 75.4286 40.5372 74.9281 40.7294C74.4309 40.925 73.8774 41.0227 73.2676 41.0227ZM73.2278 36.8267C73.6984 36.8267 74.0962 36.719 74.421 36.5036C74.7458 36.2881 74.9927 35.9782 75.1618 35.5739C75.3308 35.1695 75.4153 34.6856 75.4153 34.1222C75.4153 33.572 75.3324 33.0864 75.1667 32.6655C75.001 32.2446 74.7557 31.9148 74.4309 31.6761C74.1061 31.4375 73.7051 31.3182 73.2278 31.3182C72.7306 31.3182 72.3163 31.4441 71.9849 31.696C71.6568 31.9479 71.4099 32.286 71.2441 32.7102C71.0817 33.1345 71.0005 33.6051 71.0005 34.1222C71.0005 34.6525 71.0834 35.1214 71.2491 35.5291C71.4181 35.9335 71.6667 36.2517 71.9949 36.4837C72.3263 36.7124 72.7373 36.8267 73.2278 36.8267ZM79.8897 27.8182V38H78.7164V27.8182H79.8897ZM85.2404 38.1591C84.5046 38.1591 83.8699 37.9967 83.3363 37.6719C82.806 37.3438 82.3967 36.8864 82.1083 36.2997C81.8233 35.7098 81.6808 35.0237 81.6808 34.2415C81.6808 33.4593 81.8233 32.7699 82.1083 32.1733C82.3967 31.5734 82.7977 31.1061 83.3114 30.7713C83.8285 30.4332 84.4317 30.2642 85.1211 30.2642C85.5188 30.2642 85.9116 30.3305 86.2994 30.4631C86.6871 30.5956 87.0401 30.8111 87.3583 31.1094C87.6765 31.4044 87.93 31.7955 88.119 32.2827C88.3079 32.7699 88.4023 33.3698 88.4023 34.0824V34.5795H82.516V33.5653H87.2092C87.2092 33.1345 87.123 32.75 86.9506 32.4119C86.7816 32.0739 86.5397 31.8071 86.2248 31.6115C85.9132 31.416 85.5453 31.3182 85.1211 31.3182C84.6538 31.3182 84.2494 31.4342 83.908 31.6662C83.57 31.8949 83.3098 32.1932 83.1275 32.5611C82.9452 32.929 82.854 33.3234 82.854 33.7443V34.4205C82.854 34.9972 82.9535 35.486 83.1523 35.8871C83.3545 36.2848 83.6346 36.5881 83.9925 36.7969C84.3505 37.0024 84.7665 37.1051 85.2404 37.1051C85.5487 37.1051 85.8271 37.062 86.0756 36.9759C86.3275 36.8864 86.5446 36.7538 86.7269 36.5781C86.9092 36.3991 87.0501 36.1771 87.1495 35.9119L88.283 36.2301C88.1637 36.6146 87.9632 36.9527 87.6815 37.2443C87.3997 37.5327 87.0517 37.758 86.6374 37.9205C86.2231 38.0795 85.7575 38.1591 85.2404 38.1591Z" fill="white"/>
<path d="M50.1932 77C50.0838 76.6652 49.9396 76.3653 49.7607 76.1001C49.585 75.8317 49.3745 75.603 49.1293 75.4141C48.8873 75.2251 48.6122 75.081 48.304 74.9815C47.9957 74.8821 47.6577 74.8324 47.2898 74.8324C46.6866 74.8324 46.138 74.9882 45.6442 75.2997C45.1503 75.6113 44.7576 76.0703 44.4659 76.6768C44.1742 77.2834 44.0284 78.0275 44.0284 78.9091C44.0284 79.7907 44.1759 80.5348 44.4709 81.1413C44.7659 81.7479 45.1652 82.2069 45.669 82.5185C46.1728 82.83 46.7396 82.9858 47.3693 82.9858C47.9527 82.9858 48.4664 82.8615 48.9105 82.6129C49.358 82.361 49.706 82.0064 49.9545 81.549C50.2064 81.0883 50.3324 80.5464 50.3324 79.9233L50.7102 80.0028H47.6477V78.9091H51.5256V80.0028C51.5256 80.8414 51.3466 81.5705 50.9886 82.1903C50.634 82.8101 50.1435 83.2907 49.517 83.6321C48.8939 83.9702 48.178 84.1392 47.3693 84.1392C46.4678 84.1392 45.6757 83.9271 44.9929 83.5028C44.3134 83.0786 43.7831 82.4754 43.402 81.6932C43.0241 80.911 42.8352 79.983 42.8352 78.9091C42.8352 78.1037 42.9429 77.3795 43.1584 76.7365C43.3771 76.0902 43.6854 75.54 44.0831 75.0859C44.4808 74.6319 44.9515 74.2839 45.495 74.0419C46.0386 73.8 46.6368 73.679 47.2898 73.679C47.8267 73.679 48.3272 73.7602 48.7912 73.9226C49.2585 74.0817 49.6745 74.3087 50.0391 74.6037C50.407 74.8954 50.7135 75.245 50.9588 75.6527C51.2041 76.0571 51.3731 76.5062 51.4659 77H50.1932ZM53.9567 84V76.3636H55.13V84H53.9567ZM54.5533 75.0909C54.3246 75.0909 54.1274 75.013 53.9616 74.8572C53.7992 74.7015 53.718 74.5142 53.718 74.2955C53.718 74.0767 53.7992 73.8894 53.9616 73.7337C54.1274 73.5779 54.3246 73.5 54.5533 73.5C54.782 73.5 54.9775 73.5779 55.1399 73.7337C55.3056 73.8894 55.3885 74.0767 55.3885 74.2955C55.3885 74.5142 55.3056 74.7015 55.1399 74.8572C54.9775 75.013 54.782 75.0909 54.5533 75.0909ZM60.6 76.3636V77.358H56.6426V76.3636H60.6ZM57.796 74.5341H58.9693V81.8125C58.9693 82.1439 59.0173 82.3925 59.1135 82.5582C59.2129 82.7206 59.3388 82.83 59.4913 82.8864C59.6471 82.9394 59.8111 82.9659 59.9835 82.9659C60.1127 82.9659 60.2188 82.9593 60.3017 82.946C60.3845 82.9295 60.4508 82.9162 60.5005 82.9062L60.7392 83.9602C60.6596 83.9901 60.5486 84.0199 60.4061 84.0497C60.2636 84.0829 60.0829 84.0994 59.8642 84.0994C59.5327 84.0994 59.2079 84.0282 58.8897 83.8857C58.5749 83.7431 58.313 83.526 58.1042 83.2344C57.8987 82.9427 57.796 82.5748 57.796 82.1307V74.5341ZM62.688 84V73.8182H63.921V78.3523H69.35V73.8182H70.5829V84H69.35V79.446H63.921V84H62.688ZM77.7047 80.8778V76.3636H78.878V84H77.7047V82.7074H77.6252C77.4462 83.0952 77.1678 83.425 76.79 83.6967C76.4121 83.9652 75.9348 84.0994 75.3581 84.0994C74.8809 84.0994 74.4566 83.995 74.0854 83.7862C73.7142 83.5741 73.4225 83.2559 73.2104 82.8317C72.9983 82.4041 72.8922 81.8655 72.8922 81.2159V76.3636H74.0655V81.1364C74.0655 81.6932 74.2213 82.1373 74.5328 82.4688C74.8477 82.8002 75.2488 82.9659 75.736 82.9659C76.0276 82.9659 76.3243 82.8913 76.6259 82.7422C76.9308 82.593 77.186 82.3643 77.3915 82.0561C77.6003 81.7479 77.7047 81.3551 77.7047 80.8778ZM81.1861 84V73.8182H82.3594V77.5767H82.4588C82.545 77.4441 82.6643 77.2751 82.8168 77.0696C82.9725 76.8608 83.1946 76.6752 83.483 76.5128C83.7746 76.3471 84.169 76.2642 84.6662 76.2642C85.3092 76.2642 85.8759 76.425 86.3665 76.7464C86.857 77.0679 87.2398 77.5237 87.5149 78.1136C87.79 78.7036 87.9276 79.3996 87.9276 80.2017C87.9276 81.0104 87.79 81.7114 87.5149 82.3047C87.2398 82.8946 86.8587 83.352 86.3714 83.6768C85.8842 83.9983 85.3224 84.1591 84.6861 84.1591C84.1955 84.1591 83.8028 84.0779 83.5078 83.9155C83.2128 83.7498 82.9858 83.5625 82.8267 83.3537C82.6676 83.1416 82.545 82.9659 82.4588 82.8267H82.3196V84H81.1861ZM82.3395 80.1818C82.3395 80.7585 82.424 81.2673 82.593 81.7081C82.7621 82.1456 83.009 82.4886 83.3338 82.7372C83.6586 82.9825 84.0563 83.1051 84.527 83.1051C85.0175 83.1051 85.4268 82.9759 85.755 82.7173C86.0864 82.4555 86.335 82.1042 86.5007 81.6634C86.6697 81.2192 86.7543 80.7254 86.7543 80.1818C86.7543 79.6449 86.6714 79.161 86.5057 78.7301C86.3433 78.2959 86.0964 77.9529 85.7649 77.701C85.4368 77.4458 85.0241 77.3182 84.527 77.3182C84.0497 77.3182 83.6487 77.4392 83.3239 77.6811C82.9991 77.9197 82.7538 78.2545 82.5881 78.6854C82.4223 79.1129 82.3395 79.6117 82.3395 80.1818Z" fill="white"/>
<path d="M43.233 134V123.818H49.3381V124.912H44.4659V128.352H48.8807V129.446H44.4659V134H43.233ZM51.2907 134V126.364H52.464V134H51.2907ZM51.8873 125.091C51.6586 125.091 51.4614 125.013 51.2956 124.857C51.1332 124.701 51.052 124.514 51.052 124.295C51.052 124.077 51.1332 123.889 51.2956 123.734C51.4614 123.578 51.6586 123.5 51.8873 123.5C52.1159 123.5 52.3115 123.578 52.4739 123.734C52.6396 123.889 52.7225 124.077 52.7225 124.295C52.7225 124.514 52.6396 124.701 52.4739 124.857C52.3115 125.013 52.1159 125.091 51.8873 125.091ZM57.6953 137.023C57.1286 137.023 56.6413 136.95 56.2337 136.804C55.826 136.661 55.4863 136.473 55.2145 136.237C54.946 136.005 54.7322 135.757 54.5732 135.491L55.5078 134.835C55.6139 134.974 55.7481 135.134 55.9105 135.312C56.0729 135.495 56.295 135.652 56.5767 135.785C56.8617 135.921 57.2346 135.989 57.6953 135.989C58.3118 135.989 58.8205 135.839 59.2216 135.541C59.6226 135.243 59.8232 134.776 59.8232 134.139V132.588H59.7237C59.6375 132.727 59.5149 132.9 59.3558 133.105C59.2 133.307 58.9747 133.488 58.6797 133.647C58.388 133.803 57.9936 133.881 57.4964 133.881C56.88 133.881 56.3265 133.735 55.8359 133.443C55.3487 133.152 54.9626 132.727 54.6776 132.17C54.3958 131.614 54.255 130.937 54.255 130.142C54.255 129.36 54.3925 128.679 54.6676 128.099C54.9427 127.515 55.3255 127.065 55.8161 126.746C56.3066 126.425 56.8733 126.264 57.5163 126.264C58.0135 126.264 58.4079 126.347 58.6996 126.513C58.9946 126.675 59.2199 126.861 59.3757 127.07C59.5348 127.275 59.6574 127.444 59.7436 127.577H59.8629V126.364H60.9964V134.219C60.9964 134.875 60.8473 135.409 60.549 135.82C60.254 136.234 59.8563 136.537 59.3558 136.729C58.8587 136.925 58.3052 137.023 57.6953 137.023ZM57.6555 132.827C58.1262 132.827 58.5239 132.719 58.8487 132.504C59.1735 132.288 59.4205 131.978 59.5895 131.574C59.7585 131.17 59.843 130.686 59.843 130.122C59.843 129.572 59.7602 129.086 59.5945 128.665C59.4287 128.245 59.1835 127.915 58.8587 127.676C58.5339 127.437 58.1328 127.318 57.6555 127.318C57.1584 127.318 56.7441 127.444 56.4126 127.696C56.0845 127.948 55.8376 128.286 55.6719 128.71C55.5095 129.134 55.4283 129.605 55.4283 130.122C55.4283 130.652 55.5111 131.121 55.6768 131.529C55.8459 131.933 56.0945 132.252 56.4226 132.484C56.754 132.712 57.165 132.827 57.6555 132.827ZM63.1442 134V126.364H64.2777V127.557H64.3771C64.5362 127.149 64.7931 126.833 65.1477 126.607C65.5024 126.379 65.9283 126.264 66.4254 126.264C66.9292 126.264 67.3485 126.379 67.6832 126.607C68.0213 126.833 68.2848 127.149 68.4737 127.557H68.5533C68.7488 127.162 69.0421 126.849 69.4332 126.617C69.8243 126.382 70.2933 126.264 70.8402 126.264C71.523 126.264 72.0814 126.478 72.5156 126.906C72.9498 127.33 73.1669 127.991 73.1669 128.889V134H71.9936V128.889C71.9936 128.326 71.8395 127.923 71.5312 127.681C71.223 127.439 70.8601 127.318 70.4425 127.318C69.9055 127.318 69.4896 127.481 69.1946 127.805C68.8996 128.127 68.7521 128.535 68.7521 129.028V134H67.5589V128.77C67.5589 128.336 67.4181 127.986 67.1364 127.721C66.8546 127.452 66.4917 127.318 66.0476 127.318C65.7427 127.318 65.4576 127.399 65.1925 127.562C64.9306 127.724 64.7185 127.95 64.5561 128.238C64.397 128.523 64.3175 128.853 64.3175 129.227V134H63.1442ZM77.5593 134.179C77.0754 134.179 76.6362 134.088 76.2418 133.906C75.8474 133.72 75.5342 133.453 75.3022 133.105C75.0702 132.754 74.9542 132.33 74.9542 131.832C74.9542 131.395 75.0404 131.04 75.2127 130.768C75.3851 130.493 75.6154 130.278 75.9038 130.122C76.1921 129.966 76.5103 129.85 76.8583 129.774C77.2096 129.695 77.5626 129.632 77.9173 129.585C78.3813 129.526 78.7575 129.481 79.0458 129.451C79.3375 129.418 79.5496 129.363 79.6822 129.287C79.8181 129.211 79.886 129.078 79.886 128.889V128.849C79.886 128.359 79.7518 127.978 79.4833 127.706C79.2182 127.434 78.8155 127.298 78.2752 127.298C77.7151 127.298 77.2759 127.421 76.9577 127.666C76.6396 127.911 76.4158 128.173 76.2866 128.452L75.1729 128.054C75.3718 127.59 75.637 127.229 75.9684 126.97C76.3031 126.708 76.6677 126.526 77.0621 126.423C77.4599 126.317 77.851 126.264 78.2354 126.264C78.4807 126.264 78.7624 126.294 79.0806 126.354C79.4021 126.41 79.712 126.528 80.0103 126.707C80.3119 126.886 80.5621 127.156 80.761 127.517C80.9599 127.878 81.0593 128.362 81.0593 128.969V134H79.886V132.966H79.8263C79.7468 133.132 79.6142 133.309 79.4286 133.498C79.243 133.687 78.9961 133.848 78.6879 133.98C78.3796 134.113 78.0034 134.179 77.5593 134.179ZM77.7383 133.125C78.2023 133.125 78.5934 133.034 78.9116 132.852C79.2331 132.669 79.475 132.434 79.6374 132.146C79.8031 131.857 79.886 131.554 79.886 131.236V130.162C79.8363 130.222 79.7269 130.276 79.5579 130.326C79.3922 130.372 79.1999 130.414 78.9812 130.45C78.7657 130.483 78.5553 130.513 78.3498 130.54C78.1476 130.563 77.9835 130.583 77.8576 130.599C77.5527 130.639 77.2676 130.704 77.0025 130.793C76.7406 130.879 76.5285 131.01 76.3661 131.186C76.207 131.358 76.1275 131.594 76.1275 131.892C76.1275 132.3 76.2783 132.608 76.5799 132.817C76.8848 133.022 77.271 133.125 77.7383 133.125Z" fill="white"/>
<path d="M49.3068 171.818V182H48.1136L42.5653 174.006H42.4659V182H41.233V171.818H42.4261L47.9943 179.832H48.0938V171.818H49.3068ZM54.8166 182.159C54.0808 182.159 53.4461 181.997 52.9125 181.672C52.3822 181.344 51.9728 180.886 51.6845 180.3C51.3994 179.71 51.2569 179.024 51.2569 178.241C51.2569 177.459 51.3994 176.77 51.6845 176.173C51.9728 175.573 52.3739 175.106 52.8876 174.771C53.4047 174.433 54.0079 174.264 54.6973 174.264C55.095 174.264 55.4877 174.33 55.8755 174.463C56.2633 174.596 56.6163 174.811 56.9345 175.109C57.2527 175.404 57.5062 175.795 57.6951 176.283C57.8841 176.77 57.9785 177.37 57.9785 178.082V178.58H52.0922V177.565H56.7853C56.7853 177.134 56.6992 176.75 56.5268 176.412C56.3578 176.074 56.1158 175.807 55.801 175.612C55.4894 175.416 55.1215 175.318 54.6973 175.318C54.2299 175.318 53.8256 175.434 53.4842 175.666C53.1461 175.895 52.8859 176.193 52.7037 176.561C52.5214 176.929 52.4302 177.323 52.4302 177.744V178.42C52.4302 178.997 52.5297 179.486 52.7285 179.887C52.9307 180.285 53.2108 180.588 53.5687 180.797C53.9267 181.002 54.3426 181.105 54.8166 181.105C55.1248 181.105 55.4032 181.062 55.6518 180.976C55.9037 180.886 56.1208 180.754 56.3031 180.578C56.4854 180.399 56.6262 180.177 56.7257 179.912L57.8592 180.23C57.7399 180.615 57.5394 180.953 57.2576 181.244C56.9759 181.533 56.6279 181.758 56.2136 181.92C55.7993 182.08 55.3336 182.159 54.8166 182.159ZM61.4934 182L59.1667 174.364H60.3997L62.0502 180.21H62.1298L63.7605 174.364H65.0133L66.6241 180.19H66.7037L68.3542 174.364H69.5872L67.2605 182H66.1071L64.4366 176.134H64.3173L62.6468 182H61.4934ZM74.6781 172.912V171.818H82.3145V172.912H79.1127V182H77.8798V172.912H74.6781ZM85.2663 182.179C84.7824 182.179 84.3433 182.088 83.9489 181.906C83.5545 181.72 83.2412 181.453 83.0092 181.105C82.7772 180.754 82.6612 180.33 82.6612 179.832C82.6612 179.395 82.7474 179.04 82.9197 178.768C83.0921 178.493 83.3224 178.278 83.6108 178.122C83.8991 177.966 84.2173 177.85 84.5653 177.774C84.9167 177.695 85.2696 177.632 85.6243 177.585C86.0883 177.526 86.4645 177.481 86.7528 177.451C87.0445 177.418 87.2566 177.363 87.3892 177.287C87.5251 177.211 87.593 177.078 87.593 176.889V176.849C87.593 176.359 87.4588 175.978 87.1903 175.706C86.9252 175.434 86.5225 175.298 85.9822 175.298C85.4221 175.298 84.983 175.421 84.6648 175.666C84.3466 175.911 84.1229 176.173 83.9936 176.452L82.88 176.054C83.0788 175.59 83.344 175.229 83.6754 174.97C84.0102 174.708 84.3748 174.526 84.7692 174.423C85.1669 174.317 85.558 174.264 85.9425 174.264C86.1877 174.264 86.4695 174.294 86.7876 174.354C87.1091 174.41 87.419 174.528 87.7173 174.707C88.0189 174.886 88.2692 175.156 88.468 175.517C88.6669 175.878 88.7663 176.362 88.7663 176.969V182H87.593V180.966H87.5334C87.4538 181.132 87.3213 181.309 87.1357 181.498C86.95 181.687 86.7031 181.848 86.3949 181.98C86.0866 182.113 85.7105 182.179 85.2663 182.179ZM85.4453 181.125C85.9093 181.125 86.3004 181.034 86.6186 180.852C86.9401 180.669 87.1821 180.434 87.3445 180.146C87.5102 179.857 87.593 179.554 87.593 179.236V178.162C87.5433 178.222 87.4339 178.276 87.2649 178.326C87.0992 178.372 86.907 178.414 86.6882 178.45C86.4728 178.483 86.2623 178.513 86.0568 178.54C85.8546 178.563 85.6906 178.583 85.5646 178.599C85.2597 178.639 84.9747 178.704 84.7095 178.793C84.4477 178.879 84.2356 179.01 84.0732 179.186C83.9141 179.358 83.8345 179.594 83.8345 179.892C83.8345 180.3 83.9853 180.608 84.2869 180.817C84.5919 181.022 84.978 181.125 85.4453 181.125ZM91.0669 182V171.818H92.2402V175.577H92.3397C92.4258 175.444 92.5452 175.275 92.6976 175.07C92.8534 174.861 93.0755 174.675 93.3638 174.513C93.6555 174.347 94.0499 174.264 94.5471 174.264C95.19 174.264 95.7568 174.425 96.2473 174.746C96.7379 175.068 97.1207 175.524 97.3958 176.114C97.6709 176.704 97.8084 177.4 97.8084 178.202C97.8084 179.01 97.6709 179.711 97.3958 180.305C97.1207 180.895 96.7395 181.352 96.2523 181.677C95.7651 181.998 95.2033 182.159 94.5669 182.159C94.0764 182.159 93.6837 182.078 93.3887 181.915C93.0937 181.75 92.8667 181.562 92.7076 181.354C92.5485 181.142 92.4258 180.966 92.3397 180.827H92.2005V182H91.0669ZM92.2203 178.182C92.2203 178.759 92.3049 179.267 92.4739 179.708C92.6429 180.146 92.8899 180.489 93.2147 180.737C93.5395 180.982 93.9372 181.105 94.4078 181.105C94.8984 181.105 95.3077 180.976 95.6358 180.717C95.9673 180.455 96.2159 180.104 96.3816 179.663C96.5506 179.219 96.6351 178.725 96.6351 178.182C96.6351 177.645 96.5523 177.161 96.3865 176.73C96.2241 176.296 95.9772 175.953 95.6458 175.701C95.3176 175.446 94.905 175.318 94.4078 175.318C93.9306 175.318 93.5295 175.439 93.2047 175.681C92.8799 175.92 92.6346 176.254 92.4689 176.685C92.3032 177.113 92.2203 177.612 92.2203 178.182Z" fill="white"/>
<path d="M44.8011 222.364C44.7415 221.86 44.4995 221.469 44.0753 221.19C43.651 220.912 43.1307 220.773 42.5142 220.773C42.0634 220.773 41.669 220.846 41.331 220.991C40.9962 221.137 40.7344 221.338 40.5455 221.593C40.3598 221.848 40.267 222.138 40.267 222.463C40.267 222.735 40.3317 222.969 40.4609 223.164C40.5935 223.356 40.7625 223.517 40.968 223.646C41.1735 223.772 41.389 223.877 41.6143 223.96C41.8397 224.039 42.0469 224.104 42.2358 224.153L43.2699 224.432C43.535 224.501 43.83 224.598 44.1548 224.72C44.483 224.843 44.7962 225.01 45.0945 225.222C45.3961 225.431 45.6446 225.7 45.8402 226.028C46.0357 226.356 46.1335 226.759 46.1335 227.236C46.1335 227.786 45.9893 228.283 45.701 228.727C45.416 229.171 44.9983 229.524 44.4482 229.786C43.9013 230.048 43.2367 230.179 42.4545 230.179C41.7254 230.179 41.094 230.061 40.5604 229.826C40.0301 229.591 39.6125 229.263 39.3075 228.842C39.0059 228.421 38.8352 227.932 38.7955 227.375H40.0682C40.1013 227.759 40.2306 228.078 40.456 228.33C40.6847 228.578 40.973 228.764 41.321 228.886C41.6723 229.006 42.0502 229.065 42.4545 229.065C42.9252 229.065 43.3478 228.989 43.7223 228.837C44.0968 228.681 44.3935 228.465 44.6122 228.19C44.831 227.912 44.9403 227.587 44.9403 227.216C44.9403 226.878 44.8459 226.603 44.657 226.391C44.468 226.179 44.2195 226.006 43.9112 225.874C43.603 225.741 43.2699 225.625 42.9119 225.526L41.6591 225.168C40.8636 224.939 40.2339 224.612 39.7699 224.188C39.3059 223.764 39.0739 223.209 39.0739 222.523C39.0739 221.953 39.228 221.455 39.5362 221.031C39.8478 220.604 40.2654 220.272 40.7891 220.037C41.3161 219.798 41.9044 219.679 42.554 219.679C43.2102 219.679 43.7936 219.797 44.304 220.032C44.8144 220.264 45.2188 220.582 45.517 220.987C45.8187 221.391 45.9777 221.85 45.9943 222.364H44.8011ZM51.1039 230.159C50.4145 230.159 49.8096 229.995 49.2892 229.667C48.7722 229.339 48.3678 228.88 48.0762 228.29C47.7878 227.7 47.6436 227.01 47.6436 226.222C47.6436 225.426 47.7878 224.732 48.0762 224.138C48.3678 223.545 48.7722 223.085 49.2892 222.756C49.8096 222.428 50.4145 222.264 51.1039 222.264C51.7933 222.264 52.3965 222.428 52.9135 222.756C53.4339 223.085 53.8382 223.545 54.1266 224.138C54.4183 224.732 54.5641 225.426 54.5641 226.222C54.5641 227.01 54.4183 227.7 54.1266 228.29C53.8382 228.88 53.4339 229.339 52.9135 229.667C52.3965 229.995 51.7933 230.159 51.1039 230.159ZM51.1039 229.105C51.6275 229.105 52.0584 228.971 52.3965 228.702C52.7346 228.434 52.9848 228.081 53.1472 227.643C53.3096 227.206 53.3908 226.732 53.3908 226.222C53.3908 225.711 53.3096 225.236 53.1472 224.795C52.9848 224.354 52.7346 223.998 52.3965 223.726C52.0584 223.454 51.6275 223.318 51.1039 223.318C50.5802 223.318 50.1493 223.454 49.8113 223.726C49.4732 223.998 49.223 224.354 49.0605 224.795C48.8981 225.236 48.8169 225.711 48.8169 226.222C48.8169 226.732 48.8981 227.206 49.0605 227.643C49.223 228.081 49.4732 228.434 49.8113 228.702C50.1493 228.971 50.5802 229.105 51.1039 229.105ZM56.3551 230V222.364H57.4886V223.557H57.5881C57.7472 223.149 58.004 222.833 58.3587 222.607C58.7133 222.379 59.1392 222.264 59.6364 222.264C60.1402 222.264 60.5594 222.379 60.8942 222.607C61.2322 222.833 61.4957 223.149 61.6847 223.557H61.7642C61.9598 223.162 62.2531 222.849 62.6442 222.617C63.0353 222.382 63.5043 222.264 64.0511 222.264C64.7339 222.264 65.2924 222.478 65.7266 222.906C66.1607 223.33 66.3778 223.991 66.3778 224.889V230H65.2045V224.889C65.2045 224.326 65.0504 223.923 64.7422 223.681C64.4339 223.439 64.071 223.318 63.6534 223.318C63.1165 223.318 62.7005 223.481 62.4055 223.805C62.1106 224.127 61.9631 224.535 61.9631 225.028V230H60.7699V224.77C60.7699 224.336 60.629 223.986 60.3473 223.721C60.0656 223.452 59.7027 223.318 59.2585 223.318C58.9536 223.318 58.6686 223.399 58.4034 223.562C58.1416 223.724 57.9295 223.95 57.767 224.238C57.608 224.523 57.5284 224.853 57.5284 225.227V230H56.3551ZM71.7248 230.159C70.989 230.159 70.3543 229.997 69.8207 229.672C69.2904 229.344 68.881 228.886 68.5927 228.3C68.3076 227.71 68.1651 227.024 68.1651 226.241C68.1651 225.459 68.3076 224.77 68.5927 224.173C68.881 223.573 69.2821 223.106 69.7958 222.771C70.3129 222.433 70.9161 222.264 71.6055 222.264C72.0032 222.264 72.396 222.33 72.7837 222.463C73.1715 222.596 73.5245 222.811 73.8427 223.109C74.1609 223.404 74.4144 223.795 74.6033 224.283C74.7923 224.77 74.8867 225.37 74.8867 226.082V226.58H69.0004V225.565H73.6935C73.6935 225.134 73.6074 224.75 73.435 224.412C73.266 224.074 73.024 223.807 72.7092 223.612C72.3976 223.416 72.0297 223.318 71.6055 223.318C71.1381 223.318 70.7338 223.434 70.3924 223.666C70.0543 223.895 69.7942 224.193 69.6119 224.561C69.4296 224.929 69.3384 225.323 69.3384 225.744V226.42C69.3384 226.997 69.4379 227.486 69.6367 227.887C69.8389 228.285 70.119 228.588 70.4769 228.797C70.8349 229.002 71.2508 229.105 71.7248 229.105C72.033 229.105 72.3114 229.062 72.56 228.976C72.8119 228.886 73.029 228.754 73.2113 228.578C73.3936 228.399 73.5344 228.177 73.6339 227.912L74.7674 228.23C74.6481 228.615 74.4476 228.953 74.1658 229.244C73.8841 229.533 73.5361 229.758 73.1218 229.92C72.7075 230.08 72.2418 230.159 71.7248 230.159ZM79.9925 222.364V223.358H76.0352V222.364H79.9925ZM77.1886 220.534H78.3619V227.812C78.3619 228.144 78.4099 228.393 78.506 228.558C78.6055 228.721 78.7314 228.83 78.8839 228.886C79.0397 228.939 79.2037 228.966 79.3761 228.966C79.5053 228.966 79.6114 228.959 79.6942 228.946C79.7771 228.929 79.8434 228.916 79.8931 228.906L80.1317 229.96C80.0522 229.99 79.9412 230.02 79.7987 230.05C79.6561 230.083 79.4755 230.099 79.2567 230.099C78.9253 230.099 78.6005 230.028 78.2823 229.886C77.9674 229.743 77.7056 229.526 77.4968 229.234C77.2913 228.943 77.1886 228.575 77.1886 228.131V220.534ZM83.0948 225.406V230H81.9215V219.818H83.0948V223.557H83.1942C83.3732 223.162 83.6417 222.849 83.9996 222.617C84.3609 222.382 84.8415 222.264 85.4414 222.264C85.9618 222.264 86.4175 222.369 86.8086 222.577C87.1997 222.783 87.503 223.099 87.7184 223.527C87.9371 223.951 88.0465 224.491 88.0465 225.148V230H86.8732V225.227C86.8732 224.621 86.7158 224.152 86.4009 223.82C86.0894 223.486 85.6568 223.318 85.1033 223.318C84.7189 223.318 84.3742 223.399 84.0692 223.562C83.7676 223.724 83.529 223.961 83.3533 224.273C83.181 224.584 83.0948 224.962 83.0948 225.406ZM90.193 230V222.364H91.3663V230H90.193ZM90.7896 221.091C90.5609 221.091 90.3637 221.013 90.198 220.857C90.0356 220.701 89.9544 220.514 89.9544 220.295C89.9544 220.077 90.0356 219.889 90.198 219.734C90.3637 219.578 90.5609 219.5 90.7896 219.5C91.0183 219.5 91.2138 219.578 91.3762 219.734C91.542 219.889 91.6248 220.077 91.6248 220.295C91.6248 220.514 91.542 220.701 91.3762 220.857C91.2138 221.013 91.0183 221.091 90.7896 221.091ZM94.6886 225.406V230H93.5153V222.364H94.6488V223.557H94.7482C94.9272 223.169 95.199 222.857 95.5636 222.622C95.9281 222.384 96.3988 222.264 96.9755 222.264C97.4925 222.264 97.945 222.37 98.3327 222.582C98.7205 222.791 99.0221 223.109 99.2376 223.537C99.453 223.961 99.5607 224.498 99.5607 225.148V230H98.3874V225.227C98.3874 224.627 98.2317 224.16 97.9201 223.825C97.6085 223.487 97.181 223.318 96.6374 223.318C96.2629 223.318 95.9281 223.399 95.6332 223.562C95.3415 223.724 95.1112 223.961 94.9421 224.273C94.7731 224.584 94.6886 224.962 94.6886 225.406ZM104.787 233.023C104.22 233.023 103.733 232.95 103.325 232.804C102.918 232.661 102.578 232.473 102.306 232.237C102.038 232.005 101.824 231.757 101.665 231.491L102.6 230.835C102.706 230.974 102.84 231.134 103.002 231.312C103.165 231.495 103.387 231.652 103.669 231.785C103.954 231.921 104.326 231.989 104.787 231.989C105.404 231.989 105.912 231.839 106.313 231.541C106.714 231.243 106.915 230.776 106.915 230.139V228.588H106.816C106.729 228.727 106.607 228.9 106.448 229.105C106.292 229.307 106.066 229.488 105.771 229.647C105.48 229.803 105.085 229.881 104.588 229.881C103.972 229.881 103.418 229.735 102.928 229.443C102.441 229.152 102.054 228.727 101.769 228.17C101.488 227.614 101.347 226.937 101.347 226.142C101.347 225.36 101.484 224.679 101.759 224.099C102.035 223.515 102.417 223.065 102.908 222.746C103.398 222.425 103.965 222.264 104.608 222.264C105.105 222.264 105.5 222.347 105.791 222.513C106.086 222.675 106.312 222.861 106.468 223.07C106.627 223.275 106.749 223.444 106.835 223.577H106.955V222.364H108.088V230.219C108.088 230.875 107.939 231.409 107.641 231.82C107.346 232.234 106.948 232.537 106.448 232.729C105.95 232.925 105.397 233.023 104.787 233.023ZM104.747 228.827C105.218 228.827 105.616 228.719 105.941 228.504C106.265 228.288 106.512 227.978 106.681 227.574C106.85 227.17 106.935 226.686 106.935 226.122C106.935 225.572 106.852 225.086 106.686 224.665C106.521 224.245 106.275 223.915 105.95 223.676C105.626 223.437 105.225 223.318 104.747 223.318C104.25 223.318 103.836 223.444 103.504 223.696C103.176 223.948 102.929 224.286 102.764 224.71C102.601 225.134 102.52 225.605 102.52 226.122C102.52 226.652 102.603 227.121 102.769 227.529C102.938 227.933 103.186 228.252 103.514 228.484C103.846 228.712 104.257 228.827 104.747 228.827ZM117.375 230.159C116.639 230.159 116.005 229.997 115.471 229.672C114.941 229.344 114.531 228.886 114.243 228.3C113.958 227.71 113.816 227.024 113.816 226.241C113.816 225.459 113.958 224.77 114.243 224.173C114.531 223.573 114.932 223.106 115.446 222.771C115.963 222.433 116.566 222.264 117.256 222.264C117.654 222.264 118.046 222.33 118.434 222.463C118.822 222.596 119.175 222.811 119.493 223.109C119.811 223.404 120.065 223.795 120.254 224.283C120.443 224.77 120.537 225.37 120.537 226.082V226.58H114.651V225.565H119.344C119.344 225.134 119.258 224.75 119.085 224.412C118.916 224.074 118.674 223.807 118.36 223.612C118.048 223.416 117.68 223.318 117.256 223.318C116.789 223.318 116.384 223.434 116.043 223.666C115.705 223.895 115.445 224.193 115.262 224.561C115.08 224.929 114.989 225.323 114.989 225.744V226.42C114.989 226.997 115.088 227.486 115.287 227.887C115.489 228.285 115.769 228.588 116.127 228.797C116.485 229.002 116.901 229.105 117.375 229.105C117.683 229.105 117.962 229.062 118.21 228.976C118.462 228.886 118.679 228.754 118.862 228.578C119.044 228.399 119.185 228.177 119.284 227.912L120.418 228.23C120.298 228.615 120.098 228.953 119.816 229.244C119.535 229.533 119.186 229.758 118.772 229.92C118.358 230.08 117.892 230.159 117.375 230.159ZM123.495 219.818V230H122.322V219.818H123.495ZM131.053 224.074L129.999 224.372C129.933 224.196 129.835 224.026 129.706 223.86C129.58 223.691 129.408 223.552 129.189 223.442C128.97 223.333 128.69 223.278 128.349 223.278C127.881 223.278 127.492 223.386 127.18 223.602C126.872 223.814 126.718 224.084 126.718 224.412C126.718 224.704 126.824 224.934 127.036 225.103C127.248 225.272 127.58 225.413 128.031 225.526L129.164 225.804C129.847 225.97 130.356 226.223 130.69 226.565C131.025 226.903 131.192 227.339 131.192 227.872C131.192 228.31 131.067 228.701 130.815 229.045C130.566 229.39 130.218 229.662 129.771 229.861C129.323 230.06 128.803 230.159 128.21 230.159C127.431 230.159 126.786 229.99 126.276 229.652C125.765 229.314 125.442 228.82 125.306 228.17L126.42 227.892C126.526 228.303 126.726 228.611 127.021 228.817C127.32 229.022 127.709 229.125 128.19 229.125C128.737 229.125 129.171 229.009 129.492 228.777C129.817 228.542 129.979 228.26 129.979 227.932C129.979 227.667 129.887 227.445 129.701 227.266C129.515 227.083 129.23 226.947 128.846 226.858L127.573 226.56C126.874 226.394 126.36 226.137 126.032 225.789C125.707 225.438 125.545 224.999 125.545 224.472C125.545 224.041 125.666 223.66 125.908 223.328C126.153 222.997 126.486 222.737 126.907 222.548C127.331 222.359 127.812 222.264 128.349 222.264C129.104 222.264 129.698 222.43 130.129 222.761C130.563 223.093 130.871 223.53 131.053 224.074ZM136.16 230.159C135.425 230.159 134.79 229.997 134.256 229.672C133.726 229.344 133.317 228.886 133.028 228.3C132.743 227.71 132.601 227.024 132.601 226.241C132.601 225.459 132.743 224.77 133.028 224.173C133.317 223.573 133.718 223.106 134.231 222.771C134.748 222.433 135.352 222.264 136.041 222.264C136.439 222.264 136.831 222.33 137.219 222.463C137.607 222.596 137.96 222.811 138.278 223.109C138.596 223.404 138.85 223.795 139.039 224.283C139.228 224.77 139.322 225.37 139.322 226.082V226.58H133.436V225.565H138.129C138.129 225.134 138.043 224.75 137.871 224.412C137.702 224.074 137.46 223.807 137.145 223.612C136.833 223.416 136.465 223.318 136.041 223.318C135.574 223.318 135.169 223.434 134.828 223.666C134.49 223.895 134.23 224.193 134.047 224.561C133.865 224.929 133.774 225.323 133.774 225.744V226.42C133.774 226.997 133.873 227.486 134.072 227.887C134.274 228.285 134.555 228.588 134.912 228.797C135.27 229.002 135.686 229.105 136.16 229.105C136.469 229.105 136.747 229.062 136.996 228.976C137.247 228.886 137.465 228.754 137.647 228.578C137.829 228.399 137.97 228.177 138.069 227.912L139.203 228.23C139.084 228.615 138.883 228.953 138.601 229.244C138.32 229.533 137.972 229.758 137.557 229.92C137.143 230.08 136.677 230.159 136.16 230.159Z" fill="white"/>
<path fill-rule="evenodd" clip-rule="evenodd" d="M150 25C150 16.1634 142.837 9 134 9L150 9L150 25Z" fill="#1A171C"/>
<rect y="-87" width="1558" height="96" fill="#26222A"/>
<rect y="-39" width="1558" height="48" fill="#1A171C"/>
</g>
<defs>
<clipPath id="clip0_303_1728">
<rect width="150" height="236" rx="8" fill="white"/>
</clipPath>
</defs>
</svg>
