<?xml version="1.0" encoding="UTF-8"?><svg id="d" xmlns="http://www.w3.org/2000/svg" xmlns:xlink="http://www.w3.org/1999/xlink" viewBox="0 0 256 256"><defs><style>.f{fill:#000;}.f,.g,.h{stroke-width:0px;}.g{fill:url(#e);}.h{fill:#fff;}</style><linearGradient id="e" x1="128" y1="256" x2="128" y2="0" gradientUnits="userSpaceOnUse"><stop offset=".1" stop-color="#fff" stop-opacity=".02"/><stop offset=".9" stop-color="#fff" stop-opacity=".1"/></linearGradient></defs><rect class="f" width="256" height="256" rx="58.4" ry="58.4"/><rect class="g" width="256" height="256" rx="58.4" ry="58.4"/><path class="h" d="M202.9973,184.5702c-.1715,10.2808-8.7737,18.4298-19.0559,18.4298h-77.2885c-3.0056,0-5.0458-3.0553-3.894-5.8314l.0262-.0632c5.0822-12.2707,13.3289-22.6249,23.8591-30.1785,1.3098-.9395,2.8903-1.4269,4.5023-1.4269h53.1034c10.462,0,18.9225,8.5681,18.7473,19.0702Z"/><path class="h" d="M149.3471,53c3.0056,0,5.0458,3.0553,3.894,5.8314l-.0262.0631c-5.0822,12.2708-13.3289,22.6249-23.8591,30.1785-1.3098.9396-2.8903,1.427-4.5023,1.427h-52.7949c-10.2822,0-18.8844-8.149-19.0559-18.4298-.1752-10.5021,8.2853-19.0702,18.7473-19.0702h77.5971Z"/><path class="h" d="M71.7465,203c-2.3913,0-4.8207-.46-7.1673-1.4319-9.5666-3.9624-14.1096-14.9301-10.1472-24.4964,6.0943-14.7127,14.8294-27.9027,25.9634-39.2034,11.5341-11.7073,25.1364-20.8551,40.4297-27.1898,21.021-8.7076,37.393-25.0792,46.0995-46.0995,3.9624-9.567,14.9305-14.1093,24.4964-10.1472,9.5666,3.9624,14.1096,14.9301,10.1472,24.4964-6.0943,14.7127-14.8294,27.9027-25.9634,39.2034-11.5341,11.7073-25.1364,20.8551-40.4297,27.1898-21.021,8.7076-37.393,25.0792-46.0995,46.0995-2.9905,7.22-9.9725,11.5791-17.329,11.5791Z"/></svg>