<?xml version="1.0" encoding="UTF-8"?><svg xmlns="http://www.w3.org/2000/svg" xmlns:xlink="http://www.w3.org/1999/xlink" viewBox="0 0 256 256"><defs><style>.g{fill:#000;}.g,.h,.i{stroke-width:0px;}.h{fill:url(#e);}.i{fill:#fff;}</style><linearGradient id="e" x1="128" y1="256" x2="128" y2="0" gradientUnits="userSpaceOnUse"><stop offset=".1" stop-color="#fff" stop-opacity=".02"/><stop offset=".9" stop-color="#fff" stop-opacity=".1"/></linearGradient></defs><g id="c"><rect class="g" y="0" width="256" height="256" rx="58.4" ry="58.4"/></g><g id="d"><rect class="h" y="0" width="256" height="256" rx="58.4" ry="58.4"/></g><g id="f"><path class="i" d="M165.9156,146.3156c-15.6016,0-28.6656,11.0055-31.8813,25.6562h-12.0687c-3.2156-14.6508-16.2797-25.6562-31.8813-25.6562-18.0063,0-32.6562,14.65-32.6562,32.6562s14.65,32.6562,32.6562,32.6562c15.6016,0,28.6656-11.0055,31.8813-25.6562h12.0687c3.2156,14.6508,16.2797,25.6562,31.8813,25.6562,18.0063,0,32.6562-14.65,32.6562-32.6562s-14.65-32.6562-32.6562-32.6562ZM90.0844,197.6281c-10.2875,0-18.6562-8.3687-18.6562-18.6562s8.3687-18.6562,18.6562-18.6562,18.6562,8.3688,18.6562,18.6562-8.3687,18.6562-18.6562,18.6562ZM165.9156,197.6281c-10.2875,0-18.6562-8.3687-18.6562-18.6562s8.3687-18.6562,18.6562-18.6562,18.6562,8.3688,18.6562,18.6562-8.3687,18.6562-18.6562,18.6562Z"/><path class="i" d="M214.4,115.6812h-21.8391l-9.2422-65.2906c-.3031-2.1406-1.5813-4.0219-3.4594-5.0969-1.8781-1.0719-4.1469-1.2188-6.1469-.3906l-45.7125,18.8906-45.7125-18.8906c-2-.8281-4.2688-.6813-6.1469.3906-1.8781,1.075-3.1562,2.9562-3.4594,5.0969l-9.2422,65.2906h-21.8391c-3.8656,0-7,3.1344-7,7s3.1344,7,7,7h172.8c3.8656,0,7-3.1344,7-7s-3.1344-7-7-7ZM85.2781,61.2875l40.0469,16.55c1.7125.7063,3.6375.7063,5.35,0l40.0469-16.55,7.6984,54.3937h-100.8406l7.6984-54.3937Z"/></g></svg>