<?xml version="1.0" encoding="UTF-8"?><svg id="a" xmlns="http://www.w3.org/2000/svg" viewBox="0 0 80 56"><defs><style>.b{fill:context-fill #20123a;}</style></defs><path class="b" d="M11.2896,37.6632h15.1928v5.2919H3.2415v-3.8076l15.1487-21.2557H3.2126v-5.2919h23.2393v3.811l-15.1622,21.2523ZM50.8649,26.3765c.5434,1.4469.8151,3.1418.8151,5.0778v1.7322h-15.5019v.017c0,1.1243.2089,2.0991.6301,2.9176.4195.822,1.0139,1.4537,1.7849,1.8987s1.6847.6657,2.7427.6657c.7014,0,1.3433-.0984,1.9258-.2955.5842-.197,1.0818-.4925,1.4979-.8899.4144-.394.7303-.8797.9476-1.4503l5.8404.3838c-.2972,1.4028-.9018,2.6255-1.8154,3.6683-.9137,1.0428-2.0906,1.8511-3.5273,2.4319-1.4385.5774-3.0959.8661-4.9726.8661-2.3419,0-4.3561-.4755-6.0408-1.43-1.6847-.9544-2.9805-2.3063-3.8907-4.0623-.9086-1.7526-1.362-3.8314-1.362-6.2327,0-2.3402.4534-4.3951,1.362-6.1647.9103-1.7696,2.1925-3.1486,3.8466-4.1336,1.6558-.9884,3.5986-1.4843,5.8318-1.4843,1.503,0,2.9024.2411,4.2032.7201,1.2992.4789,2.4354,1.199,3.4084,2.1568.9731.9578,1.7306,2.1602,2.274,3.6072ZM45.7378,29.2737c0-.9069-.1987-1.7119-.5927-2.4149-.3957-.6997-.9409-1.2534-1.6388-1.6508-.6964-.4008-1.503-.6012-2.4235-.6012-.9578,0-1.8053.2208-2.5406.6589-.7371.4382-1.3127,1.0292-1.7271,1.7628-.3818.679-.5853,1.4304-.6228,2.2451h9.5455ZM73.0682,20.9318c-1.1769-.6929-2.5543-1.0394-4.1353-1.0394-1.6898,0-3.1265.3872-4.3137,1.165-1.1854.7744-2.0294,1.824-2.5338,3.1486h-.2667v-4.0181h-6.017v22.7672h6.3125v-13.1617c.0102-.9782.1953-1.8138.557-2.5135.36-.6963.8644-1.2261,1.5115-1.593.647-.3635,1.396-.5469,2.2451-.5469,1.2653,0,2.257.394,2.9788,1.1786.7217.7846,1.0767,1.8749,1.0682,3.2675v13.3689h6.3125v-14.4965c0-1.7662-.326-3.2913-.9782-4.5718-.6521-1.2805-1.5658-2.2655-2.741-2.955Z"/></svg>