<!--
   - This Source Code Form is subject to the terms of the Mozilla Public
   - License, v. 2.0. If a copy of the MPL was not distributed with this
   - file, You can obtain one at http://mozilla.org/MPL/2.0/.
   -->
<!-- 90-frame filmstrip of the boost pulse. No CSS animation in this file.
     Step background-position across it instead. -->
<svg xmlns="http://www.w3.org/2000/svg" width="2160" height="24"><svg x="0" y="0" width="24" height="24" viewBox="0 0 24 24"><g fill="none" stroke="context-fill" stroke-width="1" stroke-linecap="round" opacity="0.350" transform="translate(-4.8 0) translate(12 12) scale(0.8000) translate(-12 -12)"><path d="M10 2v2"/><path d="M11 3H9"/><path d="M5 6v4"/><path d="M7 8H3"/><path d="M21 20h-4"/><path d="M19 18v4"/></g></svg><svg x="24" y="0" width="24" height="24" viewBox="0 0 24 24"><g fill="none" stroke="context-fill" stroke-width="1" stroke-linecap="round" opacity="0.351" transform="translate(-4.8 0) translate(12 12) scale(0.8002) translate(-12 -12)"><path d="M10 2v2"/><path d="M11 3H9"/><path d="M5 6v4"/><path d="M7 8H3"/><path d="M21 20h-4"/><path d="M19 18v4"/></g></svg><svg x="48" y="0" width="24" height="24" viewBox="0 0 24 24"><g fill="none" stroke="context-fill" stroke-width="1" stroke-linecap="round" opacity="0.353" transform="translate(-4.8 0) translate(12 12) scale(0.8008) translate(-12 -12)"><path d="M10 2v2"/><path d="M11 3H9"/><path d="M5 6v4"/><path d="M7 8H3"/><path d="M21 20h-4"/><path d="M19 18v4"/></g></svg><svg x="72" y="0" width="24" height="24" viewBox="0 0 24 24"><g fill="none" stroke="context-fill" stroke-width="1" stroke-linecap="round" opacity="0.356" transform="translate(-4.8 0) translate(12 12) scale(0.8018) translate(-12 -12)"><path d="M10 2v2"/><path d="M11 3H9"/><path d="M5 6v4"/><path d="M7 8H3"/><path d="M21 20h-4"/><path d="M19 18v4"/></g></svg><svg x="96" y="0" width="24" height="24" viewBox="0 0 24 24"><g fill="none" stroke="context-fill" stroke-width="1" stroke-linecap="round" opacity="0.360" transform="translate(-4.8 0) translate(12 12) scale(0.8032) translate(-12 -12)"><path d="M10 2v2"/><path d="M11 3H9"/><path d="M5 6v4"/><path d="M7 8H3"/><path d="M21 20h-4"/><path d="M19 18v4"/></g></svg><svg x="120" y="0" width="24" height="24" viewBox="0 0 24 24"><g fill="none" stroke="context-fill" stroke-width="1" stroke-linecap="round" opacity="0.366" transform="translate(-4.8 0) translate(12 12) scale(0.8050) translate(-12 -12)"><path d="M10 2v2"/><path d="M11 3H9"/><path d="M5 6v4"/><path d="M7 8H3"/><path d="M21 20h-4"/><path d="M19 18v4"/></g></svg><svg x="144" y="0" width="24" height="24" viewBox="0 0 24 24"><g fill="none" stroke="context-fill" stroke-width="1" stroke-linecap="round" opacity="0.374" transform="translate(-4.8 0) translate(12 12) scale(0.8073) translate(-12 -12)"><path d="M10 2v2"/><path d="M11 3H9"/><path d="M5 6v4"/><path d="M7 8H3"/><path d="M21 20h-4"/><path d="M19 18v4"/></g></svg><svg x="168" y="0" width="24" height="24" viewBox="0 0 24 24"><g fill="none" stroke="context-fill" stroke-width="1" stroke-linecap="round" opacity="0.382" transform="translate(-4.8 0) translate(12 12) scale(0.8100) translate(-12 -12)"><path d="M10 2v2"/><path d="M11 3H9"/><path d="M5 6v4"/><path d="M7 8H3"/><path d="M21 20h-4"/><path d="M19 18v4"/></g></svg><svg x="192" y="0" width="24" height="24" viewBox="0 0 24 24"><g fill="none" stroke="context-fill" stroke-width="1" stroke-linecap="round" opacity="0.393" transform="translate(-4.8 0) translate(12 12) scale(0.8131) translate(-12 -12)"><path d="M10 2v2"/><path d="M11 3H9"/><path d="M5 6v4"/><path d="M7 8H3"/><path d="M21 20h-4"/><path d="M19 18v4"/></g></svg><svg x="216" y="0" width="24" height="24" viewBox="0 0 24 24"><g fill="none" stroke="context-fill" stroke-width="1" stroke-linecap="round" opacity="0.404" transform="translate(-4.8 0) translate(12 12) scale(0.8167) translate(-12 -12)"><path d="M10 2v2"/><path d="M11 3H9"/><path d="M5 6v4"/><path d="M7 8H3"/><path d="M21 20h-4"/><path d="M19 18v4"/></g></svg><svg x="240" y="0" width="24" height="24" viewBox="0 0 24 24"><g fill="none" stroke="context-fill" stroke-width="1" stroke-linecap="round" opacity="0.417" transform="translate(-4.8 0) translate(12 12) scale(0.8208) translate(-12 -12)"><path d="M10 2v2"/><path d="M11 3H9"/><path d="M5 6v4"/><path d="M7 8H3"/><path d="M21 20h-4"/><path d="M19 18v4"/></g></svg><svg x="264" y="0" width="24" height="24" viewBox="0 0 24 24"><g fill="none" stroke="context-fill" stroke-width="1" stroke-linecap="round" opacity="0.432" transform="translate(-4.8 0) translate(12 12) scale(0.8252) translate(-12 -12)"><path d="M10 2v2"/><path d="M11 3H9"/><path d="M5 6v4"/><path d="M7 8H3"/><path d="M21 20h-4"/><path d="M19 18v4"/></g></svg><svg x="288" y="0" width="24" height="24" viewBox="0 0 24 24"><g fill="none" stroke="context-fill" stroke-width="1" stroke-linecap="round" opacity="0.448" transform="translate(-4.8 0) translate(12 12) scale(0.8302) translate(-12 -12)"><path d="M10 2v2"/><path d="M11 3H9"/><path d="M5 6v4"/><path d="M7 8H3"/><path d="M21 20h-4"/><path d="M19 18v4"/></g></svg><svg x="312" y="0" width="24" height="24" viewBox="0 0 24 24"><g fill="none" stroke="context-fill" stroke-width="1" stroke-linecap="round" opacity="0.465" transform="translate(-4.8 0) translate(12 12) scale(0.8355) translate(-12 -12)"><path d="M10 2v2"/><path d="M11 3H9"/><path d="M5 6v4"/><path d="M7 8H3"/><path d="M21 20h-4"/><path d="M19 18v4"/></g></svg><svg x="336" y="0" width="24" height="24" viewBox="0 0 24 24"><g fill="none" stroke="context-fill" stroke-width="1" stroke-linecap="round" opacity="0.484" transform="translate(-4.8 0) translate(12 12) scale(0.8413) translate(-12 -12)"><path d="M10 2v2"/><path d="M11 3H9"/><path d="M5 6v4"/><path d="M7 8H3"/><path d="M21 20h-4"/><path d="M19 18v4"/></g></svg><svg x="360" y="0" width="24" height="24" viewBox="0 0 24 24"><g fill="none" stroke="context-fill" stroke-width="1" stroke-linecap="round" opacity="0.504" transform="translate(-4.8 0) translate(12 12) scale(0.8474) translate(-12 -12)"><path d="M10 2v2"/><path d="M11 3H9"/><path d="M5 6v4"/><path d="M7 8H3"/><path d="M21 20h-4"/><path d="M19 18v4"/></g></svg><svg x="384" y="0" width="24" height="24" viewBox="0 0 24 24"><g fill="none" stroke="context-fill" stroke-width="1" stroke-linecap="round" opacity="0.525" transform="translate(-4.8 0) translate(12 12) scale(0.8539) translate(-12 -12)"><path d="M10 2v2"/><path d="M11 3H9"/><path d="M5 6v4"/><path d="M7 8H3"/><path d="M21 20h-4"/><path d="M19 18v4"/></g></svg><svg x="408" y="0" width="24" height="24" viewBox="0 0 24 24"><g fill="none" stroke="context-fill" stroke-width="1" stroke-linecap="round" opacity="0.547" transform="translate(-4.8 0) translate(12 12) scale(0.8607) translate(-12 -12)"><path d="M10 2v2"/><path d="M11 3H9"/><path d="M5 6v4"/><path d="M7 8H3"/><path d="M21 20h-4"/><path d="M19 18v4"/></g></svg><svg x="432" y="0" width="24" height="24" viewBox="0 0 24 24"><g fill="none" stroke="context-fill" stroke-width="1" stroke-linecap="round" opacity="0.570" transform="translate(-4.8 0) translate(12 12) scale(0.8678) translate(-12 -12)"><path d="M10 2v2"/><path d="M11 3H9"/><path d="M5 6v4"/><path d="M7 8H3"/><path d="M21 20h-4"/><path d="M19 18v4"/></g></svg><svg x="456" y="0" width="24" height="24" viewBox="0 0 24 24"><g fill="none" stroke="context-fill" stroke-width="1" stroke-linecap="round" opacity="0.594" transform="translate(-4.8 0) translate(12 12) scale(0.8752) translate(-12 -12)"><path d="M10 2v2"/><path d="M11 3H9"/><path d="M5 6v4"/><path d="M7 8H3"/><path d="M21 20h-4"/><path d="M19 18v4"/></g></svg><svg x="480" y="0" width="24" height="24" viewBox="0 0 24 24"><g fill="none" stroke="context-fill" stroke-width="1" stroke-linecap="round" opacity="0.619" transform="translate(-4.8 0) translate(12 12) scale(0.8827) translate(-12 -12)"><path d="M10 2v2"/><path d="M11 3H9"/><path d="M5 6v4"/><path d="M7 8H3"/><path d="M21 20h-4"/><path d="M19 18v4"/></g></svg><svg x="504" y="0" width="24" height="24" viewBox="0 0 24 24"><g fill="none" stroke="context-fill" stroke-width="1" stroke-linecap="round" opacity="0.644" transform="translate(-4.8 0) translate(12 12) scale(0.8903) translate(-12 -12)"><path d="M10 2v2"/><path d="M11 3H9"/><path d="M5 6v4"/><path d="M7 8H3"/><path d="M21 20h-4"/><path d="M19 18v4"/></g></svg><svg x="528" y="0" width="24" height="24" viewBox="0 0 24 24"><g fill="none" stroke="context-fill" stroke-width="1" stroke-linecap="round" opacity="0.669" transform="translate(-4.8 0) translate(12 12) scale(0.8981) translate(-12 -12)"><path d="M10 2v2"/><path d="M11 3H9"/><path d="M5 6v4"/><path d="M7 8H3"/><path d="M21 20h-4"/><path d="M19 18v4"/></g></svg><svg x="552" y="0" width="24" height="24" viewBox="0 0 24 24"><g fill="none" stroke="context-fill" stroke-width="1" stroke-linecap="round" opacity="0.694" transform="translate(-4.8 0) translate(12 12) scale(0.9058) translate(-12 -12)"><path d="M10 2v2"/><path d="M11 3H9"/><path d="M5 6v4"/><path d="M7 8H3"/><path d="M21 20h-4"/><path d="M19 18v4"/></g></svg><svg x="576" y="0" width="24" height="24" viewBox="0 0 24 24"><g fill="none" stroke="context-fill" stroke-width="1" stroke-linecap="round" opacity="0.719" transform="translate(-4.8 0) translate(12 12) scale(0.9135) translate(-12 -12)"><path d="M10 2v2"/><path d="M11 3H9"/><path d="M5 6v4"/><path d="M7 8H3"/><path d="M21 20h-4"/><path d="M19 18v4"/></g></svg><svg x="600" y="0" width="24" height="24" viewBox="0 0 24 24"><g fill="none" stroke="context-fill" stroke-width="1" stroke-linecap="round" opacity="0.744" transform="translate(-4.8 0) translate(12 12) scale(0.9211) translate(-12 -12)"><path d="M10 2v2"/><path d="M11 3H9"/><path d="M5 6v4"/><path d="M7 8H3"/><path d="M21 20h-4"/><path d="M19 18v4"/></g></svg><svg x="624" y="0" width="24" height="24" viewBox="0 0 24 24"><g fill="none" stroke="context-fill" stroke-width="1" stroke-linecap="round" opacity="0.768" transform="translate(-4.8 0) translate(12 12) scale(0.9285) translate(-12 -12)"><path d="M10 2v2"/><path d="M11 3H9"/><path d="M5 6v4"/><path d="M7 8H3"/><path d="M21 20h-4"/><path d="M19 18v4"/></g></svg><svg x="648" y="0" width="24" height="24" viewBox="0 0 24 24"><g fill="none" stroke="context-fill" stroke-width="1" stroke-linecap="round" opacity="0.791" transform="translate(-4.8 0) translate(12 12) scale(0.9358) translate(-12 -12)"><path d="M10 2v2"/><path d="M11 3H9"/><path d="M5 6v4"/><path d="M7 8H3"/><path d="M21 20h-4"/><path d="M19 18v4"/></g></svg><svg x="672" y="0" width="24" height="24" viewBox="0 0 24 24"><g fill="none" stroke="context-fill" stroke-width="1" stroke-linecap="round" opacity="0.814" transform="translate(-4.8 0) translate(12 12) scale(0.9427) translate(-12 -12)"><path d="M10 2v2"/><path d="M11 3H9"/><path d="M5 6v4"/><path d="M7 8H3"/><path d="M21 20h-4"/><path d="M19 18v4"/></g></svg><svg x="696" y="0" width="24" height="24" viewBox="0 0 24 24"><g fill="none" stroke="context-fill" stroke-width="1" stroke-linecap="round" opacity="0.836" transform="translate(-4.8 0) translate(12 12) scale(0.9494) translate(-12 -12)"><path d="M10 2v2"/><path d="M11 3H9"/><path d="M5 6v4"/><path d="M7 8H3"/><path d="M21 20h-4"/><path d="M19 18v4"/></g></svg><svg x="720" y="0" width="24" height="24" viewBox="0 0 24 24"><g fill="none" stroke="context-fill" stroke-width="1" stroke-linecap="round" opacity="0.856" transform="translate(-4.8 0) translate(12 12) scale(0.9557) translate(-12 -12)"><path d="M10 2v2"/><path d="M11 3H9"/><path d="M5 6v4"/><path d="M7 8H3"/><path d="M21 20h-4"/><path d="M19 18v4"/></g></svg><svg x="744" y="0" width="24" height="24" viewBox="0 0 24 24"><g fill="none" stroke="context-fill" stroke-width="1" stroke-linecap="round" opacity="0.875" transform="translate(-4.8 0) translate(12 12) scale(0.9617) translate(-12 -12)"><path d="M10 2v2"/><path d="M11 3H9"/><path d="M5 6v4"/><path d="M7 8H3"/><path d="M21 20h-4"/><path d="M19 18v4"/></g></svg><svg x="768" y="0" width="24" height="24" viewBox="0 0 24 24"><g fill="none" stroke="context-fill" stroke-width="1" stroke-linecap="round" opacity="0.893" transform="translate(-4.8 0) translate(12 12) scale(0.9672) translate(-12 -12)"><path d="M10 2v2"/><path d="M11 3H9"/><path d="M5 6v4"/><path d="M7 8H3"/><path d="M21 20h-4"/><path d="M19 18v4"/></g></svg><svg x="792" y="0" width="24" height="24" viewBox="0 0 24 24"><g fill="none" stroke="context-fill" stroke-width="1" stroke-linecap="round" opacity="0.910" transform="translate(-4.8 0) translate(12 12) scale(0.9724) translate(-12 -12)"><path d="M10 2v2"/><path d="M11 3H9"/><path d="M5 6v4"/><path d="M7 8H3"/><path d="M21 20h-4"/><path d="M19 18v4"/></g></svg><svg x="816" y="0" width="24" height="24" viewBox="0 0 24 24"><g fill="none" stroke="context-fill" stroke-width="1" stroke-linecap="round" opacity="0.925" transform="translate(-4.8 0) translate(12 12) scale(0.9771) translate(-12 -12)"><path d="M10 2v2"/><path d="M11 3H9"/><path d="M5 6v4"/><path d="M7 8H3"/><path d="M21 20h-4"/><path d="M19 18v4"/></g></svg><svg x="840" y="0" width="24" height="24" viewBox="0 0 24 24"><g fill="none" stroke="context-fill" stroke-width="1" stroke-linecap="round" opacity="0.939" transform="translate(-4.8 0) translate(12 12) scale(0.9813) translate(-12 -12)"><path d="M10 2v2"/><path d="M11 3H9"/><path d="M5 6v4"/><path d="M7 8H3"/><path d="M21 20h-4"/><path d="M19 18v4"/></g></svg><svg x="864" y="0" width="24" height="24" viewBox="0 0 24 24"><g fill="none" stroke="context-fill" stroke-width="1" stroke-linecap="round" opacity="0.952" transform="translate(-4.8 0) translate(12 12) scale(0.9851) translate(-12 -12)"><path d="M10 2v2"/><path d="M11 3H9"/><path d="M5 6v4"/><path d="M7 8H3"/><path d="M21 20h-4"/><path d="M19 18v4"/></g></svg><svg x="888" y="0" width="24" height="24" viewBox="0 0 24 24"><g fill="none" stroke="context-fill" stroke-width="1" stroke-linecap="round" opacity="0.963" transform="translate(-4.8 0) translate(12 12) scale(0.9885) translate(-12 -12)"><path d="M10 2v2"/><path d="M11 3H9"/><path d="M5 6v4"/><path d="M7 8H3"/><path d="M21 20h-4"/><path d="M19 18v4"/></g></svg><svg x="912" y="0" width="24" height="24" viewBox="0 0 24 24"><g fill="none" stroke="context-fill" stroke-width="1" stroke-linecap="round" opacity="0.972" transform="translate(-4.8 0) translate(12 12) scale(0.9914) translate(-12 -12)"><path d="M10 2v2"/><path d="M11 3H9"/><path d="M5 6v4"/><path d="M7 8H3"/><path d="M21 20h-4"/><path d="M19 18v4"/></g></svg><svg x="936" y="0" width="24" height="24" viewBox="0 0 24 24"><g fill="none" stroke="context-fill" stroke-width="1" stroke-linecap="round" opacity="0.980" transform="translate(-4.8 0) translate(12 12) scale(0.9939) translate(-12 -12)"><path d="M10 2v2"/><path d="M11 3H9"/><path d="M5 6v4"/><path d="M7 8H3"/><path d="M21 20h-4"/><path d="M19 18v4"/></g></svg><svg x="960" y="0" width="24" height="24" viewBox="0 0 24 24"><g fill="none" stroke="context-fill" stroke-width="1" stroke-linecap="round" opacity="0.987" transform="translate(-4.8 0) translate(12 12) scale(0.9960) translate(-12 -12)"><path d="M10 2v2"/><path d="M11 3H9"/><path d="M5 6v4"/><path d="M7 8H3"/><path d="M21 20h-4"/><path d="M19 18v4"/></g></svg><svg x="984" y="0" width="24" height="24" viewBox="0 0 24 24"><g fill="none" stroke="context-fill" stroke-width="1" stroke-linecap="round" opacity="0.992" transform="translate(-4.8 0) translate(12 12) scale(0.9976) translate(-12 -12)"><path d="M10 2v2"/><path d="M11 3H9"/><path d="M5 6v4"/><path d="M7 8H3"/><path d="M21 20h-4"/><path d="M19 18v4"/></g></svg><svg x="1008" y="0" width="24" height="24" viewBox="0 0 24 24"><g fill="none" stroke="context-fill" stroke-width="1" stroke-linecap="round" opacity="0.996" transform="translate(-4.8 0) translate(12 12) scale(0.9988) translate(-12 -12)"><path d="M10 2v2"/><path d="M11 3H9"/><path d="M5 6v4"/><path d="M7 8H3"/><path d="M21 20h-4"/><path d="M19 18v4"/></g></svg><svg x="1032" y="0" width="24" height="24" viewBox="0 0 24 24"><g fill="none" stroke="context-fill" stroke-width="1" stroke-linecap="round" opacity="0.999" transform="translate(-4.8 0) translate(12 12) scale(0.9996) translate(-12 -12)"><path d="M10 2v2"/><path d="M11 3H9"/><path d="M5 6v4"/><path d="M7 8H3"/><path d="M21 20h-4"/><path d="M19 18v4"/></g></svg><svg x="1056" y="0" width="24" height="24" viewBox="0 0 24 24"><g fill="none" stroke="context-fill" stroke-width="1" stroke-linecap="round" opacity="1.000" transform="translate(-4.8 0) translate(12 12) scale(1.0000) translate(-12 -12)"><path d="M10 2v2"/><path d="M11 3H9"/><path d="M5 6v4"/><path d="M7 8H3"/><path d="M21 20h-4"/><path d="M19 18v4"/></g></svg><svg x="1080" y="0" width="24" height="24" viewBox="0 0 24 24"><g fill="none" stroke="context-fill" stroke-width="1" stroke-linecap="round" opacity="1.000" transform="translate(-4.8 0) translate(12 12) scale(1.0000) translate(-12 -12)"><path d="M10 2v2"/><path d="M11 3H9"/><path d="M5 6v4"/><path d="M7 8H3"/><path d="M21 20h-4"/><path d="M19 18v4"/></g></svg><svg x="1104" y="0" width="24" height="24" viewBox="0 0 24 24"><g fill="none" stroke="context-fill" stroke-width="1" stroke-linecap="round" opacity="0.999" transform="translate(-4.8 0) translate(12 12) scale(0.9996) translate(-12 -12)"><path d="M10 2v2"/><path d="M11 3H9"/><path d="M5 6v4"/><path d="M7 8H3"/><path d="M21 20h-4"/><path d="M19 18v4"/></g></svg><svg x="1128" y="0" width="24" height="24" viewBox="0 0 24 24"><g fill="none" stroke="context-fill" stroke-width="1" stroke-linecap="round" opacity="0.996" transform="translate(-4.8 0) translate(12 12) scale(0.9988) translate(-12 -12)"><path d="M10 2v2"/><path d="M11 3H9"/><path d="M5 6v4"/><path d="M7 8H3"/><path d="M21 20h-4"/><path d="M19 18v4"/></g></svg><svg x="1152" y="0" width="24" height="24" viewBox="0 0 24 24"><g fill="none" stroke="context-fill" stroke-width="1" stroke-linecap="round" opacity="0.992" transform="translate(-4.8 0) translate(12 12) scale(0.9976) translate(-12 -12)"><path d="M10 2v2"/><path d="M11 3H9"/><path d="M5 6v4"/><path d="M7 8H3"/><path d="M21 20h-4"/><path d="M19 18v4"/></g></svg><svg x="1176" y="0" width="24" height="24" viewBox="0 0 24 24"><g fill="none" stroke="context-fill" stroke-width="1" stroke-linecap="round" opacity="0.987" transform="translate(-4.8 0) translate(12 12) scale(0.9960) translate(-12 -12)"><path d="M10 2v2"/><path d="M11 3H9"/><path d="M5 6v4"/><path d="M7 8H3"/><path d="M21 20h-4"/><path d="M19 18v4"/></g></svg><svg x="1200" y="0" width="24" height="24" viewBox="0 0 24 24"><g fill="none" stroke="context-fill" stroke-width="1" stroke-linecap="round" opacity="0.980" transform="translate(-4.8 0) translate(12 12) scale(0.9939) translate(-12 -12)"><path d="M10 2v2"/><path d="M11 3H9"/><path d="M5 6v4"/><path d="M7 8H3"/><path d="M21 20h-4"/><path d="M19 18v4"/></g></svg><svg x="1224" y="0" width="24" height="24" viewBox="0 0 24 24"><g fill="none" stroke="context-fill" stroke-width="1" stroke-linecap="round" opacity="0.972" transform="translate(-4.8 0) translate(12 12) scale(0.9914) translate(-12 -12)"><path d="M10 2v2"/><path d="M11 3H9"/><path d="M5 6v4"/><path d="M7 8H3"/><path d="M21 20h-4"/><path d="M19 18v4"/></g></svg><svg x="1248" y="0" width="24" height="24" viewBox="0 0 24 24"><g fill="none" stroke="context-fill" stroke-width="1" stroke-linecap="round" opacity="0.963" transform="translate(-4.8 0) translate(12 12) scale(0.9885) translate(-12 -12)"><path d="M10 2v2"/><path d="M11 3H9"/><path d="M5 6v4"/><path d="M7 8H3"/><path d="M21 20h-4"/><path d="M19 18v4"/></g></svg><svg x="1272" y="0" width="24" height="24" viewBox="0 0 24 24"><g fill="none" stroke="context-fill" stroke-width="1" stroke-linecap="round" opacity="0.952" transform="translate(-4.8 0) translate(12 12) scale(0.9851) translate(-12 -12)"><path d="M10 2v2"/><path d="M11 3H9"/><path d="M5 6v4"/><path d="M7 8H3"/><path d="M21 20h-4"/><path d="M19 18v4"/></g></svg><svg x="1296" y="0" width="24" height="24" viewBox="0 0 24 24"><g fill="none" stroke="context-fill" stroke-width="1" stroke-linecap="round" opacity="0.939" transform="translate(-4.8 0) translate(12 12) scale(0.9813) translate(-12 -12)"><path d="M10 2v2"/><path d="M11 3H9"/><path d="M5 6v4"/><path d="M7 8H3"/><path d="M21 20h-4"/><path d="M19 18v4"/></g></svg><svg x="1320" y="0" width="24" height="24" viewBox="0 0 24 24"><g fill="none" stroke="context-fill" stroke-width="1" stroke-linecap="round" opacity="0.925" transform="translate(-4.8 0) translate(12 12) scale(0.9771) translate(-12 -12)"><path d="M10 2v2"/><path d="M11 3H9"/><path d="M5 6v4"/><path d="M7 8H3"/><path d="M21 20h-4"/><path d="M19 18v4"/></g></svg><svg x="1344" y="0" width="24" height="24" viewBox="0 0 24 24"><g fill="none" stroke="context-fill" stroke-width="1" stroke-linecap="round" opacity="0.910" transform="translate(-4.8 0) translate(12 12) scale(0.9724) translate(-12 -12)"><path d="M10 2v2"/><path d="M11 3H9"/><path d="M5 6v4"/><path d="M7 8H3"/><path d="M21 20h-4"/><path d="M19 18v4"/></g></svg><svg x="1368" y="0" width="24" height="24" viewBox="0 0 24 24"><g fill="none" stroke="context-fill" stroke-width="1" stroke-linecap="round" opacity="0.893" transform="translate(-4.8 0) translate(12 12) scale(0.9672) translate(-12 -12)"><path d="M10 2v2"/><path d="M11 3H9"/><path d="M5 6v4"/><path d="M7 8H3"/><path d="M21 20h-4"/><path d="M19 18v4"/></g></svg><svg x="1392" y="0" width="24" height="24" viewBox="0 0 24 24"><g fill="none" stroke="context-fill" stroke-width="1" stroke-linecap="round" opacity="0.875" transform="translate(-4.8 0) translate(12 12) scale(0.9617) translate(-12 -12)"><path d="M10 2v2"/><path d="M11 3H9"/><path d="M5 6v4"/><path d="M7 8H3"/><path d="M21 20h-4"/><path d="M19 18v4"/></g></svg><svg x="1416" y="0" width="24" height="24" viewBox="0 0 24 24"><g fill="none" stroke="context-fill" stroke-width="1" stroke-linecap="round" opacity="0.856" transform="translate(-4.8 0) translate(12 12) scale(0.9557) translate(-12 -12)"><path d="M10 2v2"/><path d="M11 3H9"/><path d="M5 6v4"/><path d="M7 8H3"/><path d="M21 20h-4"/><path d="M19 18v4"/></g></svg><svg x="1440" y="0" width="24" height="24" viewBox="0 0 24 24"><g fill="none" stroke="context-fill" stroke-width="1" stroke-linecap="round" opacity="0.836" transform="translate(-4.8 0) translate(12 12) scale(0.9494) translate(-12 -12)"><path d="M10 2v2"/><path d="M11 3H9"/><path d="M5 6v4"/><path d="M7 8H3"/><path d="M21 20h-4"/><path d="M19 18v4"/></g></svg><svg x="1464" y="0" width="24" height="24" viewBox="0 0 24 24"><g fill="none" stroke="context-fill" stroke-width="1" stroke-linecap="round" opacity="0.814" transform="translate(-4.8 0) translate(12 12) scale(0.9427) translate(-12 -12)"><path d="M10 2v2"/><path d="M11 3H9"/><path d="M5 6v4"/><path d="M7 8H3"/><path d="M21 20h-4"/><path d="M19 18v4"/></g></svg><svg x="1488" y="0" width="24" height="24" viewBox="0 0 24 24"><g fill="none" stroke="context-fill" stroke-width="1" stroke-linecap="round" opacity="0.791" transform="translate(-4.8 0) translate(12 12) scale(0.9358) translate(-12 -12)"><path d="M10 2v2"/><path d="M11 3H9"/><path d="M5 6v4"/><path d="M7 8H3"/><path d="M21 20h-4"/><path d="M19 18v4"/></g></svg><svg x="1512" y="0" width="24" height="24" viewBox="0 0 24 24"><g fill="none" stroke="context-fill" stroke-width="1" stroke-linecap="round" opacity="0.768" transform="translate(-4.8 0) translate(12 12) scale(0.9285) translate(-12 -12)"><path d="M10 2v2"/><path d="M11 3H9"/><path d="M5 6v4"/><path d="M7 8H3"/><path d="M21 20h-4"/><path d="M19 18v4"/></g></svg><svg x="1536" y="0" width="24" height="24" viewBox="0 0 24 24"><g fill="none" stroke="context-fill" stroke-width="1" stroke-linecap="round" opacity="0.744" transform="translate(-4.8 0) translate(12 12) scale(0.9211) translate(-12 -12)"><path d="M10 2v2"/><path d="M11 3H9"/><path d="M5 6v4"/><path d="M7 8H3"/><path d="M21 20h-4"/><path d="M19 18v4"/></g></svg><svg x="1560" y="0" width="24" height="24" viewBox="0 0 24 24"><g fill="none" stroke="context-fill" stroke-width="1" stroke-linecap="round" opacity="0.719" transform="translate(-4.8 0) translate(12 12) scale(0.9135) translate(-12 -12)"><path d="M10 2v2"/><path d="M11 3H9"/><path d="M5 6v4"/><path d="M7 8H3"/><path d="M21 20h-4"/><path d="M19 18v4"/></g></svg><svg x="1584" y="0" width="24" height="24" viewBox="0 0 24 24"><g fill="none" stroke="context-fill" stroke-width="1" stroke-linecap="round" opacity="0.694" transform="translate(-4.8 0) translate(12 12) scale(0.9058) translate(-12 -12)"><path d="M10 2v2"/><path d="M11 3H9"/><path d="M5 6v4"/><path d="M7 8H3"/><path d="M21 20h-4"/><path d="M19 18v4"/></g></svg><svg x="1608" y="0" width="24" height="24" viewBox="0 0 24 24"><g fill="none" stroke="context-fill" stroke-width="1" stroke-linecap="round" opacity="0.669" transform="translate(-4.8 0) translate(12 12) scale(0.8981) translate(-12 -12)"><path d="M10 2v2"/><path d="M11 3H9"/><path d="M5 6v4"/><path d="M7 8H3"/><path d="M21 20h-4"/><path d="M19 18v4"/></g></svg><svg x="1632" y="0" width="24" height="24" viewBox="0 0 24 24"><g fill="none" stroke="context-fill" stroke-width="1" stroke-linecap="round" opacity="0.644" transform="translate(-4.8 0) translate(12 12) scale(0.8903) translate(-12 -12)"><path d="M10 2v2"/><path d="M11 3H9"/><path d="M5 6v4"/><path d="M7 8H3"/><path d="M21 20h-4"/><path d="M19 18v4"/></g></svg><svg x="1656" y="0" width="24" height="24" viewBox="0 0 24 24"><g fill="none" stroke="context-fill" stroke-width="1" stroke-linecap="round" opacity="0.619" transform="translate(-4.8 0) translate(12 12) scale(0.8827) translate(-12 -12)"><path d="M10 2v2"/><path d="M11 3H9"/><path d="M5 6v4"/><path d="M7 8H3"/><path d="M21 20h-4"/><path d="M19 18v4"/></g></svg><svg x="1680" y="0" width="24" height="24" viewBox="0 0 24 24"><g fill="none" stroke="context-fill" stroke-width="1" stroke-linecap="round" opacity="0.594" transform="translate(-4.8 0) translate(12 12) scale(0.8752) translate(-12 -12)"><path d="M10 2v2"/><path d="M11 3H9"/><path d="M5 6v4"/><path d="M7 8H3"/><path d="M21 20h-4"/><path d="M19 18v4"/></g></svg><svg x="1704" y="0" width="24" height="24" viewBox="0 0 24 24"><g fill="none" stroke="context-fill" stroke-width="1" stroke-linecap="round" opacity="0.570" transform="translate(-4.8 0) translate(12 12) scale(0.8678) translate(-12 -12)"><path d="M10 2v2"/><path d="M11 3H9"/><path d="M5 6v4"/><path d="M7 8H3"/><path d="M21 20h-4"/><path d="M19 18v4"/></g></svg><svg x="1728" y="0" width="24" height="24" viewBox="0 0 24 24"><g fill="none" stroke="context-fill" stroke-width="1" stroke-linecap="round" opacity="0.547" transform="translate(-4.8 0) translate(12 12) scale(0.8607) translate(-12 -12)"><path d="M10 2v2"/><path d="M11 3H9"/><path d="M5 6v4"/><path d="M7 8H3"/><path d="M21 20h-4"/><path d="M19 18v4"/></g></svg><svg x="1752" y="0" width="24" height="24" viewBox="0 0 24 24"><g fill="none" stroke="context-fill" stroke-width="1" stroke-linecap="round" opacity="0.525" transform="translate(-4.8 0) translate(12 12) scale(0.8539) translate(-12 -12)"><path d="M10 2v2"/><path d="M11 3H9"/><path d="M5 6v4"/><path d="M7 8H3"/><path d="M21 20h-4"/><path d="M19 18v4"/></g></svg><svg x="1776" y="0" width="24" height="24" viewBox="0 0 24 24"><g fill="none" stroke="context-fill" stroke-width="1" stroke-linecap="round" opacity="0.504" transform="translate(-4.8 0) translate(12 12) scale(0.8474) translate(-12 -12)"><path d="M10 2v2"/><path d="M11 3H9"/><path d="M5 6v4"/><path d="M7 8H3"/><path d="M21 20h-4"/><path d="M19 18v4"/></g></svg><svg x="1800" y="0" width="24" height="24" viewBox="0 0 24 24"><g fill="none" stroke="context-fill" stroke-width="1" stroke-linecap="round" opacity="0.484" transform="translate(-4.8 0) translate(12 12) scale(0.8413) translate(-12 -12)"><path d="M10 2v2"/><path d="M11 3H9"/><path d="M5 6v4"/><path d="M7 8H3"/><path d="M21 20h-4"/><path d="M19 18v4"/></g></svg><svg x="1824" y="0" width="24" height="24" viewBox="0 0 24 24"><g fill="none" stroke="context-fill" stroke-width="1" stroke-linecap="round" opacity="0.465" transform="translate(-4.8 0) translate(12 12) scale(0.8355) translate(-12 -12)"><path d="M10 2v2"/><path d="M11 3H9"/><path d="M5 6v4"/><path d="M7 8H3"/><path d="M21 20h-4"/><path d="M19 18v4"/></g></svg><svg x="1848" y="0" width="24" height="24" viewBox="0 0 24 24"><g fill="none" stroke="context-fill" stroke-width="1" stroke-linecap="round" opacity="0.448" transform="translate(-4.8 0) translate(12 12) scale(0.8302) translate(-12 -12)"><path d="M10 2v2"/><path d="M11 3H9"/><path d="M5 6v4"/><path d="M7 8H3"/><path d="M21 20h-4"/><path d="M19 18v4"/></g></svg><svg x="1872" y="0" width="24" height="24" viewBox="0 0 24 24"><g fill="none" stroke="context-fill" stroke-width="1" stroke-linecap="round" opacity="0.432" transform="translate(-4.8 0) translate(12 12) scale(0.8252) translate(-12 -12)"><path d="M10 2v2"/><path d="M11 3H9"/><path d="M5 6v4"/><path d="M7 8H3"/><path d="M21 20h-4"/><path d="M19 18v4"/></g></svg><svg x="1896" y="0" width="24" height="24" viewBox="0 0 24 24"><g fill="none" stroke="context-fill" stroke-width="1" stroke-linecap="round" opacity="0.417" transform="translate(-4.8 0) translate(12 12) scale(0.8208) translate(-12 -12)"><path d="M10 2v2"/><path d="M11 3H9"/><path d="M5 6v4"/><path d="M7 8H3"/><path d="M21 20h-4"/><path d="M19 18v4"/></g></svg><svg x="1920" y="0" width="24" height="24" viewBox="0 0 24 24"><g fill="none" stroke="context-fill" stroke-width="1" stroke-linecap="round" opacity="0.404" transform="translate(-4.8 0) translate(12 12) scale(0.8167) translate(-12 -12)"><path d="M10 2v2"/><path d="M11 3H9"/><path d="M5 6v4"/><path d="M7 8H3"/><path d="M21 20h-4"/><path d="M19 18v4"/></g></svg><svg x="1944" y="0" width="24" height="24" viewBox="0 0 24 24"><g fill="none" stroke="context-fill" stroke-width="1" stroke-linecap="round" opacity="0.393" transform="translate(-4.8 0) translate(12 12) scale(0.8131) translate(-12 -12)"><path d="M10 2v2"/><path d="M11 3H9"/><path d="M5 6v4"/><path d="M7 8H3"/><path d="M21 20h-4"/><path d="M19 18v4"/></g></svg><svg x="1968" y="0" width="24" height="24" viewBox="0 0 24 24"><g fill="none" stroke="context-fill" stroke-width="1" stroke-linecap="round" opacity="0.382" transform="translate(-4.8 0) translate(12 12) scale(0.8100) translate(-12 -12)"><path d="M10 2v2"/><path d="M11 3H9"/><path d="M5 6v4"/><path d="M7 8H3"/><path d="M21 20h-4"/><path d="M19 18v4"/></g></svg><svg x="1992" y="0" width="24" height="24" viewBox="0 0 24 24"><g fill="none" stroke="context-fill" stroke-width="1" stroke-linecap="round" opacity="0.374" transform="translate(-4.8 0) translate(12 12) scale(0.8073) translate(-12 -12)"><path d="M10 2v2"/><path d="M11 3H9"/><path d="M5 6v4"/><path d="M7 8H3"/><path d="M21 20h-4"/><path d="M19 18v4"/></g></svg><svg x="2016" y="0" width="24" height="24" viewBox="0 0 24 24"><g fill="none" stroke="context-fill" stroke-width="1" stroke-linecap="round" opacity="0.366" transform="translate(-4.8 0) translate(12 12) scale(0.8050) translate(-12 -12)"><path d="M10 2v2"/><path d="M11 3H9"/><path d="M5 6v4"/><path d="M7 8H3"/><path d="M21 20h-4"/><path d="M19 18v4"/></g></svg><svg x="2040" y="0" width="24" height="24" viewBox="0 0 24 24"><g fill="none" stroke="context-fill" stroke-width="1" stroke-linecap="round" opacity="0.360" transform="translate(-4.8 0) translate(12 12) scale(0.8032) translate(-12 -12)"><path d="M10 2v2"/><path d="M11 3H9"/><path d="M5 6v4"/><path d="M7 8H3"/><path d="M21 20h-4"/><path d="M19 18v4"/></g></svg><svg x="2064" y="0" width="24" height="24" viewBox="0 0 24 24"><g fill="none" stroke="context-fill" stroke-width="1" stroke-linecap="round" opacity="0.356" transform="translate(-4.8 0) translate(12 12) scale(0.8018) translate(-12 -12)"><path d="M10 2v2"/><path d="M11 3H9"/><path d="M5 6v4"/><path d="M7 8H3"/><path d="M21 20h-4"/><path d="M19 18v4"/></g></svg><svg x="2088" y="0" width="24" height="24" viewBox="0 0 24 24"><g fill="none" stroke="context-fill" stroke-width="1" stroke-linecap="round" opacity="0.353" transform="translate(-4.8 0) translate(12 12) scale(0.8008) translate(-12 -12)"><path d="M10 2v2"/><path d="M11 3H9"/><path d="M5 6v4"/><path d="M7 8H3"/><path d="M21 20h-4"/><path d="M19 18v4"/></g></svg><svg x="2112" y="0" width="24" height="24" viewBox="0 0 24 24"><g fill="none" stroke="context-fill" stroke-width="1" stroke-linecap="round" opacity="0.351" transform="translate(-4.8 0) translate(12 12) scale(0.8002) translate(-12 -12)"><path d="M10 2v2"/><path d="M11 3H9"/><path d="M5 6v4"/><path d="M7 8H3"/><path d="M21 20h-4"/><path d="M19 18v4"/></g></svg><svg x="2136" y="0" width="24" height="24" viewBox="0 0 24 24"><g fill="none" stroke="context-fill" stroke-width="1" stroke-linecap="round" opacity="0.350" transform="translate(-4.8 0) translate(12 12) scale(0.8000) translate(-12 -12)"><path d="M10 2v2"/><path d="M11 3H9"/><path d="M5 6v4"/><path d="M7 8H3"/><path d="M21 20h-4"/><path d="M19 18v4"/></g></svg></svg>
