<!--
   - This Source Code Form is subject to the terms of the Mozilla Public
   - License, v. 2.0. If a copy of the MPL was not distributed with this
   - file, You can obtain one at http://mozilla.org/MPL/2.0/.
   -->
<svg xmlns="http://www.w3.org/2000/svg" width="2160" height="24"><svg x="0" width="24" height="24" viewBox="0 0 24 24"><g fill="none" stroke="context-fill" stroke-width="1" stroke-linecap="round"><g opacity="0.232" transform="translate(10 3) rotate(159.1) scale(0.2318) translate(-10 -3)"><path d="M10 2v2"/><path d="M11 3H9"/></g><g opacity="0.918" transform="translate(19 20) rotate(82.7) scale(0.9183) translate(-19 -20)"><path d="M21 20h-4"/><path d="M19 18v4"/></g></g></svg><svg x="24" width="24" height="24" viewBox="0 0 24 24"><g fill="none" stroke="context-fill" stroke-width="1" stroke-linecap="round"><g opacity="0.202" transform="translate(10 3) rotate(161.8) scale(0.2017) translate(-10 -3)"><path d="M10 2v2"/><path d="M11 3H9"/></g><g opacity="0.936" transform="translate(19 20) rotate(84.2) scale(0.9359) translate(-19 -20)"><path d="M21 20h-4"/><path d="M19 18v4"/></g></g></svg><svg x="48" width="24" height="24" viewBox="0 0 24 24"><g fill="none" stroke="context-fill" stroke-width="1" stroke-linecap="round"><g opacity="0.174" transform="translate(10 3) rotate(164.4) scale(0.1736) translate(-10 -3)"><path d="M10 2v2"/><path d="M11 3H9"/></g><g opacity="0.951" transform="translate(19 20) rotate(85.6) scale(0.9513) translate(-19 -20)"><path d="M21 20h-4"/><path d="M19 18v4"/></g></g></svg><svg x="72" width="24" height="24" viewBox="0 0 24 24"><g fill="none" stroke="context-fill" stroke-width="1" stroke-linecap="round"><g opacity="0.147" transform="translate(10 3) rotate(166.7) scale(0.1474) translate(-10 -3)"><path d="M10 2v2"/><path d="M11 3H9"/></g><g opacity="0.009" transform="translate(5 8) rotate(0.8) scale(0.0086) translate(-5 -8)"><path d="M5 6v4"/><path d="M7 8H3"/></g><g opacity="0.964" transform="translate(19 20) rotate(86.8) scale(0.9645) translate(-19 -20)"><path d="M21 20h-4"/><path d="M19 18v4"/></g></g></svg><svg x="96" width="24" height="24" viewBox="0 0 24 24"><g fill="none" stroke="context-fill" stroke-width="1" stroke-linecap="round"><g opacity="0.123" transform="translate(10 3) rotate(168.9) scale(0.1233) translate(-10 -3)"><path d="M10 2v2"/><path d="M11 3H9"/></g><g opacity="0.016" transform="translate(5 8) rotate(1.4) scale(0.0155) translate(-5 -8)"><path d="M5 6v4"/><path d="M7 8H3"/></g><g opacity="0.976" transform="translate(19 20) rotate(87.8) scale(0.9755) translate(-19 -20)"><path d="M21 20h-4"/><path d="M19 18v4"/></g></g></svg><svg x="120" width="24" height="24" viewBox="0 0 24 24"><g fill="none" stroke="context-fill" stroke-width="1" stroke-linecap="round"><g opacity="0.101" transform="translate(10 3) rotate(170.9) scale(0.1014) translate(-10 -3)"><path d="M10 2v2"/><path d="M11 3H9"/></g><g opacity="0.024" transform="translate(5 8) rotate(2.2) scale(0.0245) translate(-5 -8)"><path d="M5 6v4"/><path d="M7 8H3"/></g><g opacity="0.984" transform="translate(19 20) rotate(88.6) scale(0.9845) translate(-19 -20)"><path d="M21 20h-4"/><path d="M19 18v4"/></g></g></svg><svg x="144" width="24" height="24" viewBox="0 0 24 24"><g fill="none" stroke="context-fill" stroke-width="1" stroke-linecap="round"><g opacity="0.082" transform="translate(10 3) rotate(172.7) scale(0.0817) translate(-10 -3)"><path d="M10 2v2"/><path d="M11 3H9"/></g><g opacity="0.036" transform="translate(5 8) rotate(3.2) scale(0.0355) translate(-5 -8)"><path d="M5 6v4"/><path d="M7 8H3"/></g><g opacity="0.991" transform="translate(19 20) rotate(89.2) scale(0.9914) translate(-19 -20)"><path d="M21 20h-4"/><path d="M19 18v4"/></g></g></svg><svg x="168" width="24" height="24" viewBox="0 0 24 24"><g fill="none" stroke="context-fill" stroke-width="1" stroke-linecap="round"><g opacity="0.064" transform="translate(10 3) rotate(174.2) scale(0.0641) translate(-10 -3)"><path d="M10 2v2"/><path d="M11 3H9"/></g><g opacity="0.049" transform="translate(5 8) rotate(4.4) scale(0.0487) translate(-5 -8)"><path d="M5 6v4"/><path d="M7 8H3"/></g><g opacity="0.996" transform="translate(19 20) rotate(89.7) scale(0.9962) translate(-19 -20)"><path d="M21 20h-4"/><path d="M19 18v4"/></g></g></svg><svg x="192" width="24" height="24" viewBox="0 0 24 24"><g fill="none" stroke="context-fill" stroke-width="1" stroke-linecap="round"><g opacity="0.049" transform="translate(10 3) rotate(175.6) scale(0.0487) translate(-10 -3)"><path d="M10 2v2"/><path d="M11 3H9"/></g><g opacity="0.064" transform="translate(5 8) rotate(5.8) scale(0.0641) translate(-5 -8)"><path d="M5 6v4"/><path d="M7 8H3"/></g><g opacity="0.999" transform="translate(19 20) rotate(89.9) scale(0.9991) translate(-19 -20)"><path d="M21 20h-4"/><path d="M19 18v4"/></g></g></svg><svg x="216" width="24" height="24" viewBox="0 0 24 24"><g fill="none" stroke="context-fill" stroke-width="1" stroke-linecap="round"><g opacity="0.036" transform="translate(10 3) rotate(176.8) scale(0.0355) translate(-10 -3)"><path d="M10 2v2"/><path d="M11 3H9"/></g><g opacity="0.082" transform="translate(5 8) rotate(7.3) scale(0.0817) translate(-5 -8)"><path d="M5 6v4"/><path d="M7 8H3"/></g><g opacity="1.000" transform="translate(19 20) rotate(90.0) scale(1.0000) translate(-19 -20)"><path d="M21 20h-4"/><path d="M19 18v4"/></g></g></svg><svg x="240" width="24" height="24" viewBox="0 0 24 24"><g fill="none" stroke="context-fill" stroke-width="1" stroke-linecap="round"><g opacity="0.024" transform="translate(10 3) rotate(177.8) scale(0.0245) translate(-10 -3)"><path d="M10 2v2"/><path d="M11 3H9"/></g><g opacity="0.101" transform="translate(5 8) rotate(9.1) scale(0.1014) translate(-5 -8)"><path d="M5 6v4"/><path d="M7 8H3"/></g><g opacity="0.999" transform="translate(19 20) rotate(90.1) scale(0.9991) translate(-19 -20)"><path d="M21 20h-4"/><path d="M19 18v4"/></g></g></svg><svg x="264" width="24" height="24" viewBox="0 0 24 24"><g fill="none" stroke="context-fill" stroke-width="1" stroke-linecap="round"><g opacity="0.016" transform="translate(10 3) rotate(178.6) scale(0.0155) translate(-10 -3)"><path d="M10 2v2"/><path d="M11 3H9"/></g><g opacity="0.123" transform="translate(5 8) rotate(11.1) scale(0.1233) translate(-5 -8)"><path d="M5 6v4"/><path d="M7 8H3"/></g><g opacity="0.996" transform="translate(19 20) rotate(90.3) scale(0.9962) translate(-19 -20)"><path d="M21 20h-4"/><path d="M19 18v4"/></g></g></svg><svg x="288" width="24" height="24" viewBox="0 0 24 24"><g fill="none" stroke="context-fill" stroke-width="1" stroke-linecap="round"><g opacity="0.009" transform="translate(10 3) rotate(179.2) scale(0.0086) translate(-10 -3)"><path d="M10 2v2"/><path d="M11 3H9"/></g><g opacity="0.147" transform="translate(5 8) rotate(13.3) scale(0.1474) translate(-5 -8)"><path d="M5 6v4"/><path d="M7 8H3"/></g><g opacity="0.991" transform="translate(19 20) rotate(90.8) scale(0.9914) translate(-19 -20)"><path d="M21 20h-4"/><path d="M19 18v4"/></g></g></svg><svg x="312" width="24" height="24" viewBox="0 0 24 24"><g fill="none" stroke="context-fill" stroke-width="1" stroke-linecap="round"><g opacity="0.174" transform="translate(5 8) rotate(15.6) scale(0.1736) translate(-5 -8)"><path d="M5 6v4"/><path d="M7 8H3"/></g><g opacity="0.984" transform="translate(19 20) rotate(91.4) scale(0.9845) translate(-19 -20)"><path d="M21 20h-4"/><path d="M19 18v4"/></g></g></svg><svg x="336" width="24" height="24" viewBox="0 0 24 24"><g fill="none" stroke="context-fill" stroke-width="1" stroke-linecap="round"><g opacity="0.202" transform="translate(5 8) rotate(18.2) scale(0.2017) translate(-5 -8)"><path d="M5 6v4"/><path d="M7 8H3"/></g><g opacity="0.976" transform="translate(19 20) rotate(92.2) scale(0.9755) translate(-19 -20)"><path d="M21 20h-4"/><path d="M19 18v4"/></g></g></svg><svg x="360" width="24" height="24" viewBox="0 0 24 24"><g fill="none" stroke="context-fill" stroke-width="1" stroke-linecap="round"><g opacity="0.232" transform="translate(5 8) rotate(20.9) scale(0.2318) translate(-5 -8)"><path d="M5 6v4"/><path d="M7 8H3"/></g><g opacity="0.964" transform="translate(19 20) rotate(93.2) scale(0.9645) translate(-19 -20)"><path d="M21 20h-4"/><path d="M19 18v4"/></g></g></svg><svg x="384" width="24" height="24" viewBox="0 0 24 24"><g fill="none" stroke="context-fill" stroke-width="1" stroke-linecap="round"><g opacity="0.264" transform="translate(5 8) rotate(23.7) scale(0.2636) translate(-5 -8)"><path d="M5 6v4"/><path d="M7 8H3"/></g><g opacity="0.951" transform="translate(19 20) rotate(94.4) scale(0.9513) translate(-19 -20)"><path d="M21 20h-4"/><path d="M19 18v4"/></g></g></svg><svg x="408" width="24" height="24" viewBox="0 0 24 24"><g fill="none" stroke="context-fill" stroke-width="1" stroke-linecap="round"><g opacity="0.297" transform="translate(5 8) rotate(26.7) scale(0.2970) translate(-5 -8)"><path d="M5 6v4"/><path d="M7 8H3"/></g><g opacity="0.936" transform="translate(19 20) rotate(95.8) scale(0.9359) translate(-19 -20)"><path d="M21 20h-4"/><path d="M19 18v4"/></g></g></svg><svg x="432" width="24" height="24" viewBox="0 0 24 24"><g fill="none" stroke="context-fill" stroke-width="1" stroke-linecap="round"><g opacity="0.009" transform="translate(10 3) rotate(0.8) scale(0.0086) translate(-10 -3)"><path d="M10 2v2"/><path d="M11 3H9"/></g><g opacity="0.332" transform="translate(5 8) rotate(29.9) scale(0.3319) translate(-5 -8)"><path d="M5 6v4"/><path d="M7 8H3"/></g><g opacity="0.918" transform="translate(19 20) rotate(97.3) scale(0.9183) translate(-19 -20)"><path d="M21 20h-4"/><path d="M19 18v4"/></g></g></svg><svg x="456" width="24" height="24" viewBox="0 0 24 24"><g fill="none" stroke="context-fill" stroke-width="1" stroke-linecap="round"><g opacity="0.016" transform="translate(10 3) rotate(1.4) scale(0.0155) translate(-10 -3)"><path d="M10 2v2"/><path d="M11 3H9"/></g><g opacity="0.368" transform="translate(5 8) rotate(33.1) scale(0.3679) translate(-5 -8)"><path d="M5 6v4"/><path d="M7 8H3"/></g><g opacity="0.899" transform="translate(19 20) rotate(99.1) scale(0.8986) translate(-19 -20)"><path d="M21 20h-4"/><path d="M19 18v4"/></g></g></svg><svg x="480" width="24" height="24" viewBox="0 0 24 24"><g fill="none" stroke="context-fill" stroke-width="1" stroke-linecap="round"><g opacity="0.024" transform="translate(10 3) rotate(2.2) scale(0.0245) translate(-10 -3)"><path d="M10 2v2"/><path d="M11 3H9"/></g><g opacity="0.405" transform="translate(5 8) rotate(36.4) scale(0.4050) translate(-5 -8)"><path d="M5 6v4"/><path d="M7 8H3"/></g><g opacity="0.877" transform="translate(19 20) rotate(101.1) scale(0.8767) translate(-19 -20)"><path d="M21 20h-4"/><path d="M19 18v4"/></g></g></svg><svg x="504" width="24" height="24" viewBox="0 0 24 24"><g fill="none" stroke="context-fill" stroke-width="1" stroke-linecap="round"><g opacity="0.036" transform="translate(10 3) rotate(3.2) scale(0.0355) translate(-10 -3)"><path d="M10 2v2"/><path d="M11 3H9"/></g><g opacity="0.443" transform="translate(5 8) rotate(39.8) scale(0.4427) translate(-5 -8)"><path d="M5 6v4"/><path d="M7 8H3"/></g><g opacity="0.853" transform="translate(19 20) rotate(103.3) scale(0.8526) translate(-19 -20)"><path d="M21 20h-4"/><path d="M19 18v4"/></g></g></svg><svg x="528" width="24" height="24" viewBox="0 0 24 24"><g fill="none" stroke="context-fill" stroke-width="1" stroke-linecap="round"><g opacity="0.049" transform="translate(10 3) rotate(4.4) scale(0.0487) translate(-10 -3)"><path d="M10 2v2"/><path d="M11 3H9"/></g><g opacity="0.481" transform="translate(5 8) rotate(43.3) scale(0.4808) translate(-5 -8)"><path d="M5 6v4"/><path d="M7 8H3"/></g><g opacity="0.826" transform="translate(19 20) rotate(105.6) scale(0.8264) translate(-19 -20)"><path d="M21 20h-4"/><path d="M19 18v4"/></g></g></svg><svg x="552" width="24" height="24" viewBox="0 0 24 24"><g fill="none" stroke="context-fill" stroke-width="1" stroke-linecap="round"><g opacity="0.064" transform="translate(10 3) rotate(5.8) scale(0.0641) translate(-10 -3)"><path d="M10 2v2"/><path d="M11 3H9"/></g><g opacity="0.519" transform="translate(5 8) rotate(46.7) scale(0.5192) translate(-5 -8)"><path d="M5 6v4"/><path d="M7 8H3"/></g><g opacity="0.798" transform="translate(19 20) rotate(108.2) scale(0.7983) translate(-19 -20)"><path d="M21 20h-4"/><path d="M19 18v4"/></g></g></svg><svg x="576" width="24" height="24" viewBox="0 0 24 24"><g fill="none" stroke="context-fill" stroke-width="1" stroke-linecap="round"><g opacity="0.082" transform="translate(10 3) rotate(7.3) scale(0.0817) translate(-10 -3)"><path d="M10 2v2"/><path d="M11 3H9"/></g><g opacity="0.557" transform="translate(5 8) rotate(50.2) scale(0.5573) translate(-5 -8)"><path d="M5 6v4"/><path d="M7 8H3"/></g><g opacity="0.768" transform="translate(19 20) rotate(110.9) scale(0.7682) translate(-19 -20)"><path d="M21 20h-4"/><path d="M19 18v4"/></g></g></svg><svg x="600" width="24" height="24" viewBox="0 0 24 24"><g fill="none" stroke="context-fill" stroke-width="1" stroke-linecap="round"><g opacity="0.101" transform="translate(10 3) rotate(9.1) scale(0.1014) translate(-10 -3)"><path d="M10 2v2"/><path d="M11 3H9"/></g><g opacity="0.595" transform="translate(5 8) rotate(53.6) scale(0.5950) translate(-5 -8)"><path d="M5 6v4"/><path d="M7 8H3"/></g><g opacity="0.736" transform="translate(19 20) rotate(113.7) scale(0.7364) translate(-19 -20)"><path d="M21 20h-4"/><path d="M19 18v4"/></g></g></svg><svg x="624" width="24" height="24" viewBox="0 0 24 24"><g fill="none" stroke="context-fill" stroke-width="1" stroke-linecap="round"><g opacity="0.123" transform="translate(10 3) rotate(11.1) scale(0.1233) translate(-10 -3)"><path d="M10 2v2"/><path d="M11 3H9"/></g><g opacity="0.632" transform="translate(5 8) rotate(56.9) scale(0.6321) translate(-5 -8)"><path d="M5 6v4"/><path d="M7 8H3"/></g><g opacity="0.703" transform="translate(19 20) rotate(116.7) scale(0.7030) translate(-19 -20)"><path d="M21 20h-4"/><path d="M19 18v4"/></g></g></svg><svg x="648" width="24" height="24" viewBox="0 0 24 24"><g fill="none" stroke="context-fill" stroke-width="1" stroke-linecap="round"><g opacity="0.147" transform="translate(10 3) rotate(13.3) scale(0.1474) translate(-10 -3)"><path d="M10 2v2"/><path d="M11 3H9"/></g><g opacity="0.668" transform="translate(5 8) rotate(60.1) scale(0.6681) translate(-5 -8)"><path d="M5 6v4"/><path d="M7 8H3"/></g><g opacity="0.668" transform="translate(19 20) rotate(119.9) scale(0.6681) translate(-19 -20)"><path d="M21 20h-4"/><path d="M19 18v4"/></g></g></svg><svg x="672" width="24" height="24" viewBox="0 0 24 24"><g fill="none" stroke="context-fill" stroke-width="1" stroke-linecap="round"><g opacity="0.174" transform="translate(10 3) rotate(15.6) scale(0.1736) translate(-10 -3)"><path d="M10 2v2"/><path d="M11 3H9"/></g><g opacity="0.703" transform="translate(5 8) rotate(63.3) scale(0.7030) translate(-5 -8)"><path d="M5 6v4"/><path d="M7 8H3"/></g><g opacity="0.632" transform="translate(19 20) rotate(123.1) scale(0.6321) translate(-19 -20)"><path d="M21 20h-4"/><path d="M19 18v4"/></g></g></svg><svg x="696" width="24" height="24" viewBox="0 0 24 24"><g fill="none" stroke="context-fill" stroke-width="1" stroke-linecap="round"><g opacity="0.202" transform="translate(10 3) rotate(18.2) scale(0.2017) translate(-10 -3)"><path d="M10 2v2"/><path d="M11 3H9"/></g><g opacity="0.736" transform="translate(5 8) rotate(66.3) scale(0.7364) translate(-5 -8)"><path d="M5 6v4"/><path d="M7 8H3"/></g><g opacity="0.595" transform="translate(19 20) rotate(126.4) scale(0.5950) translate(-19 -20)"><path d="M21 20h-4"/><path d="M19 18v4"/></g></g></svg><svg x="720" width="24" height="24" viewBox="0 0 24 24"><g fill="none" stroke="context-fill" stroke-width="1" stroke-linecap="round"><g opacity="0.232" transform="translate(10 3) rotate(20.9) scale(0.2318) translate(-10 -3)"><path d="M10 2v2"/><path d="M11 3H9"/></g><g opacity="0.768" transform="translate(5 8) rotate(69.1) scale(0.7682) translate(-5 -8)"><path d="M5 6v4"/><path d="M7 8H3"/></g><g opacity="0.557" transform="translate(19 20) rotate(129.8) scale(0.5573) translate(-19 -20)"><path d="M21 20h-4"/><path d="M19 18v4"/></g></g></svg><svg x="744" width="24" height="24" viewBox="0 0 24 24"><g fill="none" stroke="context-fill" stroke-width="1" stroke-linecap="round"><g opacity="0.264" transform="translate(10 3) rotate(23.7) scale(0.2636) translate(-10 -3)"><path d="M10 2v2"/><path d="M11 3H9"/></g><g opacity="0.798" transform="translate(5 8) rotate(71.8) scale(0.7983) translate(-5 -8)"><path d="M5 6v4"/><path d="M7 8H3"/></g><g opacity="0.519" transform="translate(19 20) rotate(133.3) scale(0.5192) translate(-19 -20)"><path d="M21 20h-4"/><path d="M19 18v4"/></g></g></svg><svg x="768" width="24" height="24" viewBox="0 0 24 24"><g fill="none" stroke="context-fill" stroke-width="1" stroke-linecap="round"><g opacity="0.297" transform="translate(10 3) rotate(26.7) scale(0.2970) translate(-10 -3)"><path d="M10 2v2"/><path d="M11 3H9"/></g><g opacity="0.826" transform="translate(5 8) rotate(74.4) scale(0.8264) translate(-5 -8)"><path d="M5 6v4"/><path d="M7 8H3"/></g><g opacity="0.481" transform="translate(19 20) rotate(136.7) scale(0.4808) translate(-19 -20)"><path d="M21 20h-4"/><path d="M19 18v4"/></g></g></svg><svg x="792" width="24" height="24" viewBox="0 0 24 24"><g fill="none" stroke="context-fill" stroke-width="1" stroke-linecap="round"><g opacity="0.332" transform="translate(10 3) rotate(29.9) scale(0.3319) translate(-10 -3)"><path d="M10 2v2"/><path d="M11 3H9"/></g><g opacity="0.853" transform="translate(5 8) rotate(76.7) scale(0.8526) translate(-5 -8)"><path d="M5 6v4"/><path d="M7 8H3"/></g><g opacity="0.443" transform="translate(19 20) rotate(140.2) scale(0.4427) translate(-19 -20)"><path d="M21 20h-4"/><path d="M19 18v4"/></g></g></svg><svg x="816" width="24" height="24" viewBox="0 0 24 24"><g fill="none" stroke="context-fill" stroke-width="1" stroke-linecap="round"><g opacity="0.368" transform="translate(10 3) rotate(33.1) scale(0.3679) translate(-10 -3)"><path d="M10 2v2"/><path d="M11 3H9"/></g><g opacity="0.877" transform="translate(5 8) rotate(78.9) scale(0.8767) translate(-5 -8)"><path d="M5 6v4"/><path d="M7 8H3"/></g><g opacity="0.405" transform="translate(19 20) rotate(143.6) scale(0.4050) translate(-19 -20)"><path d="M21 20h-4"/><path d="M19 18v4"/></g></g></svg><svg x="840" width="24" height="24" viewBox="0 0 24 24"><g fill="none" stroke="context-fill" stroke-width="1" stroke-linecap="round"><g opacity="0.405" transform="translate(10 3) rotate(36.4) scale(0.4050) translate(-10 -3)"><path d="M10 2v2"/><path d="M11 3H9"/></g><g opacity="0.899" transform="translate(5 8) rotate(80.9) scale(0.8986) translate(-5 -8)"><path d="M5 6v4"/><path d="M7 8H3"/></g><g opacity="0.368" transform="translate(19 20) rotate(146.9) scale(0.3679) translate(-19 -20)"><path d="M21 20h-4"/><path d="M19 18v4"/></g></g></svg><svg x="864" width="24" height="24" viewBox="0 0 24 24"><g fill="none" stroke="context-fill" stroke-width="1" stroke-linecap="round"><g opacity="0.443" transform="translate(10 3) rotate(39.8) scale(0.4427) translate(-10 -3)"><path d="M10 2v2"/><path d="M11 3H9"/></g><g opacity="0.918" transform="translate(5 8) rotate(82.7) scale(0.9183) translate(-5 -8)"><path d="M5 6v4"/><path d="M7 8H3"/></g><g opacity="0.332" transform="translate(19 20) rotate(150.1) scale(0.3319) translate(-19 -20)"><path d="M21 20h-4"/><path d="M19 18v4"/></g></g></svg><svg x="888" width="24" height="24" viewBox="0 0 24 24"><g fill="none" stroke="context-fill" stroke-width="1" stroke-linecap="round"><g opacity="0.481" transform="translate(10 3) rotate(43.3) scale(0.4808) translate(-10 -3)"><path d="M10 2v2"/><path d="M11 3H9"/></g><g opacity="0.936" transform="translate(5 8) rotate(84.2) scale(0.9359) translate(-5 -8)"><path d="M5 6v4"/><path d="M7 8H3"/></g><g opacity="0.297" transform="translate(19 20) rotate(153.3) scale(0.2970) translate(-19 -20)"><path d="M21 20h-4"/><path d="M19 18v4"/></g></g></svg><svg x="912" width="24" height="24" viewBox="0 0 24 24"><g fill="none" stroke="context-fill" stroke-width="1" stroke-linecap="round"><g opacity="0.519" transform="translate(10 3) rotate(46.7) scale(0.5192) translate(-10 -3)"><path d="M10 2v2"/><path d="M11 3H9"/></g><g opacity="0.951" transform="translate(5 8) rotate(85.6) scale(0.9513) translate(-5 -8)"><path d="M5 6v4"/><path d="M7 8H3"/></g><g opacity="0.264" transform="translate(19 20) rotate(156.3) scale(0.2636) translate(-19 -20)"><path d="M21 20h-4"/><path d="M19 18v4"/></g></g></svg><svg x="936" width="24" height="24" viewBox="0 0 24 24"><g fill="none" stroke="context-fill" stroke-width="1" stroke-linecap="round"><g opacity="0.557" transform="translate(10 3) rotate(50.2) scale(0.5573) translate(-10 -3)"><path d="M10 2v2"/><path d="M11 3H9"/></g><g opacity="0.964" transform="translate(5 8) rotate(86.8) scale(0.9645) translate(-5 -8)"><path d="M5 6v4"/><path d="M7 8H3"/></g><g opacity="0.232" transform="translate(19 20) rotate(159.1) scale(0.2318) translate(-19 -20)"><path d="M21 20h-4"/><path d="M19 18v4"/></g></g></svg><svg x="960" width="24" height="24" viewBox="0 0 24 24"><g fill="none" stroke="context-fill" stroke-width="1" stroke-linecap="round"><g opacity="0.595" transform="translate(10 3) rotate(53.6) scale(0.5950) translate(-10 -3)"><path d="M10 2v2"/><path d="M11 3H9"/></g><g opacity="0.976" transform="translate(5 8) rotate(87.8) scale(0.9755) translate(-5 -8)"><path d="M5 6v4"/><path d="M7 8H3"/></g><g opacity="0.202" transform="translate(19 20) rotate(161.8) scale(0.2017) translate(-19 -20)"><path d="M21 20h-4"/><path d="M19 18v4"/></g></g></svg><svg x="984" width="24" height="24" viewBox="0 0 24 24"><g fill="none" stroke="context-fill" stroke-width="1" stroke-linecap="round"><g opacity="0.632" transform="translate(10 3) rotate(56.9) scale(0.6321) translate(-10 -3)"><path d="M10 2v2"/><path d="M11 3H9"/></g><g opacity="0.984" transform="translate(5 8) rotate(88.6) scale(0.9845) translate(-5 -8)"><path d="M5 6v4"/><path d="M7 8H3"/></g><g opacity="0.174" transform="translate(19 20) rotate(164.4) scale(0.1736) translate(-19 -20)"><path d="M21 20h-4"/><path d="M19 18v4"/></g></g></svg><svg x="1008" width="24" height="24" viewBox="0 0 24 24"><g fill="none" stroke="context-fill" stroke-width="1" stroke-linecap="round"><g opacity="0.668" transform="translate(10 3) rotate(60.1) scale(0.6681) translate(-10 -3)"><path d="M10 2v2"/><path d="M11 3H9"/></g><g opacity="0.991" transform="translate(5 8) rotate(89.2) scale(0.9914) translate(-5 -8)"><path d="M5 6v4"/><path d="M7 8H3"/></g><g opacity="0.147" transform="translate(19 20) rotate(166.7) scale(0.1474) translate(-19 -20)"><path d="M21 20h-4"/><path d="M19 18v4"/></g></g></svg><svg x="1032" width="24" height="24" viewBox="0 0 24 24"><g fill="none" stroke="context-fill" stroke-width="1" stroke-linecap="round"><g opacity="0.703" transform="translate(10 3) rotate(63.3) scale(0.7030) translate(-10 -3)"><path d="M10 2v2"/><path d="M11 3H9"/></g><g opacity="0.996" transform="translate(5 8) rotate(89.7) scale(0.9962) translate(-5 -8)"><path d="M5 6v4"/><path d="M7 8H3"/></g><g opacity="0.123" transform="translate(19 20) rotate(168.9) scale(0.1233) translate(-19 -20)"><path d="M21 20h-4"/><path d="M19 18v4"/></g></g></svg><svg x="1056" width="24" height="24" viewBox="0 0 24 24"><g fill="none" stroke="context-fill" stroke-width="1" stroke-linecap="round"><g opacity="0.736" transform="translate(10 3) rotate(66.3) scale(0.7364) translate(-10 -3)"><path d="M10 2v2"/><path d="M11 3H9"/></g><g opacity="0.999" transform="translate(5 8) rotate(89.9) scale(0.9991) translate(-5 -8)"><path d="M5 6v4"/><path d="M7 8H3"/></g><g opacity="0.101" transform="translate(19 20) rotate(170.9) scale(0.1014) translate(-19 -20)"><path d="M21 20h-4"/><path d="M19 18v4"/></g></g></svg><svg x="1080" width="24" height="24" viewBox="0 0 24 24"><g fill="none" stroke="context-fill" stroke-width="1" stroke-linecap="round"><g opacity="0.768" transform="translate(10 3) rotate(69.1) scale(0.7682) translate(-10 -3)"><path d="M10 2v2"/><path d="M11 3H9"/></g><g opacity="1.000" transform="translate(5 8) rotate(90.0) scale(1.0000) translate(-5 -8)"><path d="M5 6v4"/><path d="M7 8H3"/></g><g opacity="0.082" transform="translate(19 20) rotate(172.7) scale(0.0817) translate(-19 -20)"><path d="M21 20h-4"/><path d="M19 18v4"/></g></g></svg><svg x="1104" width="24" height="24" viewBox="0 0 24 24"><g fill="none" stroke="context-fill" stroke-width="1" stroke-linecap="round"><g opacity="0.798" transform="translate(10 3) rotate(71.8) scale(0.7983) translate(-10 -3)"><path d="M10 2v2"/><path d="M11 3H9"/></g><g opacity="0.999" transform="translate(5 8) rotate(90.1) scale(0.9991) translate(-5 -8)"><path d="M5 6v4"/><path d="M7 8H3"/></g><g opacity="0.064" transform="translate(19 20) rotate(174.2) scale(0.0641) translate(-19 -20)"><path d="M21 20h-4"/><path d="M19 18v4"/></g></g></svg><svg x="1128" width="24" height="24" viewBox="0 0 24 24"><g fill="none" stroke="context-fill" stroke-width="1" stroke-linecap="round"><g opacity="0.826" transform="translate(10 3) rotate(74.4) scale(0.8264) translate(-10 -3)"><path d="M10 2v2"/><path d="M11 3H9"/></g><g opacity="0.996" transform="translate(5 8) rotate(90.3) scale(0.9962) translate(-5 -8)"><path d="M5 6v4"/><path d="M7 8H3"/></g><g opacity="0.049" transform="translate(19 20) rotate(175.6) scale(0.0487) translate(-19 -20)"><path d="M21 20h-4"/><path d="M19 18v4"/></g></g></svg><svg x="1152" width="24" height="24" viewBox="0 0 24 24"><g fill="none" stroke="context-fill" stroke-width="1" stroke-linecap="round"><g opacity="0.853" transform="translate(10 3) rotate(76.7) scale(0.8526) translate(-10 -3)"><path d="M10 2v2"/><path d="M11 3H9"/></g><g opacity="0.991" transform="translate(5 8) rotate(90.8) scale(0.9914) translate(-5 -8)"><path d="M5 6v4"/><path d="M7 8H3"/></g><g opacity="0.036" transform="translate(19 20) rotate(176.8) scale(0.0355) translate(-19 -20)"><path d="M21 20h-4"/><path d="M19 18v4"/></g></g></svg><svg x="1176" width="24" height="24" viewBox="0 0 24 24"><g fill="none" stroke="context-fill" stroke-width="1" stroke-linecap="round"><g opacity="0.877" transform="translate(10 3) rotate(78.9) scale(0.8767) translate(-10 -3)"><path d="M10 2v2"/><path d="M11 3H9"/></g><g opacity="0.984" transform="translate(5 8) rotate(91.4) scale(0.9845) translate(-5 -8)"><path d="M5 6v4"/><path d="M7 8H3"/></g><g opacity="0.024" transform="translate(19 20) rotate(177.8) scale(0.0245) translate(-19 -20)"><path d="M21 20h-4"/><path d="M19 18v4"/></g></g></svg><svg x="1200" width="24" height="24" viewBox="0 0 24 24"><g fill="none" stroke="context-fill" stroke-width="1" stroke-linecap="round"><g opacity="0.899" transform="translate(10 3) rotate(80.9) scale(0.8986) translate(-10 -3)"><path d="M10 2v2"/><path d="M11 3H9"/></g><g opacity="0.976" transform="translate(5 8) rotate(92.2) scale(0.9755) translate(-5 -8)"><path d="M5 6v4"/><path d="M7 8H3"/></g><g opacity="0.016" transform="translate(19 20) rotate(178.6) scale(0.0155) translate(-19 -20)"><path d="M21 20h-4"/><path d="M19 18v4"/></g></g></svg><svg x="1224" width="24" height="24" viewBox="0 0 24 24"><g fill="none" stroke="context-fill" stroke-width="1" stroke-linecap="round"><g opacity="0.918" transform="translate(10 3) rotate(82.7) scale(0.9183) translate(-10 -3)"><path d="M10 2v2"/><path d="M11 3H9"/></g><g opacity="0.964" transform="translate(5 8) rotate(93.2) scale(0.9645) translate(-5 -8)"><path d="M5 6v4"/><path d="M7 8H3"/></g><g opacity="0.009" transform="translate(19 20) rotate(179.2) scale(0.0086) translate(-19 -20)"><path d="M21 20h-4"/><path d="M19 18v4"/></g></g></svg><svg x="1248" width="24" height="24" viewBox="0 0 24 24"><g fill="none" stroke="context-fill" stroke-width="1" stroke-linecap="round"><g opacity="0.936" transform="translate(10 3) rotate(84.2) scale(0.9359) translate(-10 -3)"><path d="M10 2v2"/><path d="M11 3H9"/></g><g opacity="0.951" transform="translate(5 8) rotate(94.4) scale(0.9513) translate(-5 -8)"><path d="M5 6v4"/><path d="M7 8H3"/></g></g></svg><svg x="1272" width="24" height="24" viewBox="0 0 24 24"><g fill="none" stroke="context-fill" stroke-width="1" stroke-linecap="round"><g opacity="0.951" transform="translate(10 3) rotate(85.6) scale(0.9513) translate(-10 -3)"><path d="M10 2v2"/><path d="M11 3H9"/></g><g opacity="0.936" transform="translate(5 8) rotate(95.8) scale(0.9359) translate(-5 -8)"><path d="M5 6v4"/><path d="M7 8H3"/></g></g></svg><svg x="1296" width="24" height="24" viewBox="0 0 24 24"><g fill="none" stroke="context-fill" stroke-width="1" stroke-linecap="round"><g opacity="0.964" transform="translate(10 3) rotate(86.8) scale(0.9645) translate(-10 -3)"><path d="M10 2v2"/><path d="M11 3H9"/></g><g opacity="0.918" transform="translate(5 8) rotate(97.3) scale(0.9183) translate(-5 -8)"><path d="M5 6v4"/><path d="M7 8H3"/></g></g></svg><svg x="1320" width="24" height="24" viewBox="0 0 24 24"><g fill="none" stroke="context-fill" stroke-width="1" stroke-linecap="round"><g opacity="0.976" transform="translate(10 3) rotate(87.8) scale(0.9755) translate(-10 -3)"><path d="M10 2v2"/><path d="M11 3H9"/></g><g opacity="0.899" transform="translate(5 8) rotate(99.1) scale(0.8986) translate(-5 -8)"><path d="M5 6v4"/><path d="M7 8H3"/></g></g></svg><svg x="1344" width="24" height="24" viewBox="0 0 24 24"><g fill="none" stroke="context-fill" stroke-width="1" stroke-linecap="round"><g opacity="0.984" transform="translate(10 3) rotate(88.6) scale(0.9845) translate(-10 -3)"><path d="M10 2v2"/><path d="M11 3H9"/></g><g opacity="0.877" transform="translate(5 8) rotate(101.1) scale(0.8767) translate(-5 -8)"><path d="M5 6v4"/><path d="M7 8H3"/></g></g></svg><svg x="1368" width="24" height="24" viewBox="0 0 24 24"><g fill="none" stroke="context-fill" stroke-width="1" stroke-linecap="round"><g opacity="0.991" transform="translate(10 3) rotate(89.2) scale(0.9914) translate(-10 -3)"><path d="M10 2v2"/><path d="M11 3H9"/></g><g opacity="0.853" transform="translate(5 8) rotate(103.3) scale(0.8526) translate(-5 -8)"><path d="M5 6v4"/><path d="M7 8H3"/></g><g opacity="0.009" transform="translate(19 20) rotate(0.8) scale(0.0086) translate(-19 -20)"><path d="M21 20h-4"/><path d="M19 18v4"/></g></g></svg><svg x="1392" width="24" height="24" viewBox="0 0 24 24"><g fill="none" stroke="context-fill" stroke-width="1" stroke-linecap="round"><g opacity="0.996" transform="translate(10 3) rotate(89.7) scale(0.9962) translate(-10 -3)"><path d="M10 2v2"/><path d="M11 3H9"/></g><g opacity="0.826" transform="translate(5 8) rotate(105.6) scale(0.8264) translate(-5 -8)"><path d="M5 6v4"/><path d="M7 8H3"/></g><g opacity="0.016" transform="translate(19 20) rotate(1.4) scale(0.0155) translate(-19 -20)"><path d="M21 20h-4"/><path d="M19 18v4"/></g></g></svg><svg x="1416" width="24" height="24" viewBox="0 0 24 24"><g fill="none" stroke="context-fill" stroke-width="1" stroke-linecap="round"><g opacity="0.999" transform="translate(10 3) rotate(89.9) scale(0.9991) translate(-10 -3)"><path d="M10 2v2"/><path d="M11 3H9"/></g><g opacity="0.798" transform="translate(5 8) rotate(108.2) scale(0.7983) translate(-5 -8)"><path d="M5 6v4"/><path d="M7 8H3"/></g><g opacity="0.024" transform="translate(19 20) rotate(2.2) scale(0.0245) translate(-19 -20)"><path d="M21 20h-4"/><path d="M19 18v4"/></g></g></svg><svg x="1440" width="24" height="24" viewBox="0 0 24 24"><g fill="none" stroke="context-fill" stroke-width="1" stroke-linecap="round"><g opacity="1.000" transform="translate(10 3) rotate(90.0) scale(1.0000) translate(-10 -3)"><path d="M10 2v2"/><path d="M11 3H9"/></g><g opacity="0.768" transform="translate(5 8) rotate(110.9) scale(0.7682) translate(-5 -8)"><path d="M5 6v4"/><path d="M7 8H3"/></g><g opacity="0.036" transform="translate(19 20) rotate(3.2) scale(0.0355) translate(-19 -20)"><path d="M21 20h-4"/><path d="M19 18v4"/></g></g></svg><svg x="1464" width="24" height="24" viewBox="0 0 24 24"><g fill="none" stroke="context-fill" stroke-width="1" stroke-linecap="round"><g opacity="0.999" transform="translate(10 3) rotate(90.1) scale(0.9991) translate(-10 -3)"><path d="M10 2v2"/><path d="M11 3H9"/></g><g opacity="0.736" transform="translate(5 8) rotate(113.7) scale(0.7364) translate(-5 -8)"><path d="M5 6v4"/><path d="M7 8H3"/></g><g opacity="0.049" transform="translate(19 20) rotate(4.4) scale(0.0487) translate(-19 -20)"><path d="M21 20h-4"/><path d="M19 18v4"/></g></g></svg><svg x="1488" width="24" height="24" viewBox="0 0 24 24"><g fill="none" stroke="context-fill" stroke-width="1" stroke-linecap="round"><g opacity="0.996" transform="translate(10 3) rotate(90.3) scale(0.9962) translate(-10 -3)"><path d="M10 2v2"/><path d="M11 3H9"/></g><g opacity="0.703" transform="translate(5 8) rotate(116.7) scale(0.7030) translate(-5 -8)"><path d="M5 6v4"/><path d="M7 8H3"/></g><g opacity="0.064" transform="translate(19 20) rotate(5.8) scale(0.0641) translate(-19 -20)"><path d="M21 20h-4"/><path d="M19 18v4"/></g></g></svg><svg x="1512" width="24" height="24" viewBox="0 0 24 24"><g fill="none" stroke="context-fill" stroke-width="1" stroke-linecap="round"><g opacity="0.991" transform="translate(10 3) rotate(90.8) scale(0.9914) translate(-10 -3)"><path d="M10 2v2"/><path d="M11 3H9"/></g><g opacity="0.668" transform="translate(5 8) rotate(119.9) scale(0.6681) translate(-5 -8)"><path d="M5 6v4"/><path d="M7 8H3"/></g><g opacity="0.082" transform="translate(19 20) rotate(7.3) scale(0.0817) translate(-19 -20)"><path d="M21 20h-4"/><path d="M19 18v4"/></g></g></svg><svg x="1536" width="24" height="24" viewBox="0 0 24 24"><g fill="none" stroke="context-fill" stroke-width="1" stroke-linecap="round"><g opacity="0.984" transform="translate(10 3) rotate(91.4) scale(0.9845) translate(-10 -3)"><path d="M10 2v2"/><path d="M11 3H9"/></g><g opacity="0.632" transform="translate(5 8) rotate(123.1) scale(0.6321) translate(-5 -8)"><path d="M5 6v4"/><path d="M7 8H3"/></g><g opacity="0.101" transform="translate(19 20) rotate(9.1) scale(0.1014) translate(-19 -20)"><path d="M21 20h-4"/><path d="M19 18v4"/></g></g></svg><svg x="1560" width="24" height="24" viewBox="0 0 24 24"><g fill="none" stroke="context-fill" stroke-width="1" stroke-linecap="round"><g opacity="0.976" transform="translate(10 3) rotate(92.2) scale(0.9755) translate(-10 -3)"><path d="M10 2v2"/><path d="M11 3H9"/></g><g opacity="0.595" transform="translate(5 8) rotate(126.4) scale(0.5950) translate(-5 -8)"><path d="M5 6v4"/><path d="M7 8H3"/></g><g opacity="0.123" transform="translate(19 20) rotate(11.1) scale(0.1233) translate(-19 -20)"><path d="M21 20h-4"/><path d="M19 18v4"/></g></g></svg><svg x="1584" width="24" height="24" viewBox="0 0 24 24"><g fill="none" stroke="context-fill" stroke-width="1" stroke-linecap="round"><g opacity="0.964" transform="translate(10 3) rotate(93.2) scale(0.9645) translate(-10 -3)"><path d="M10 2v2"/><path d="M11 3H9"/></g><g opacity="0.557" transform="translate(5 8) rotate(129.8) scale(0.5573) translate(-5 -8)"><path d="M5 6v4"/><path d="M7 8H3"/></g><g opacity="0.147" transform="translate(19 20) rotate(13.3) scale(0.1474) translate(-19 -20)"><path d="M21 20h-4"/><path d="M19 18v4"/></g></g></svg><svg x="1608" width="24" height="24" viewBox="0 0 24 24"><g fill="none" stroke="context-fill" stroke-width="1" stroke-linecap="round"><g opacity="0.951" transform="translate(10 3) rotate(94.4) scale(0.9513) translate(-10 -3)"><path d="M10 2v2"/><path d="M11 3H9"/></g><g opacity="0.519" transform="translate(5 8) rotate(133.3) scale(0.5192) translate(-5 -8)"><path d="M5 6v4"/><path d="M7 8H3"/></g><g opacity="0.174" transform="translate(19 20) rotate(15.6) scale(0.1736) translate(-19 -20)"><path d="M21 20h-4"/><path d="M19 18v4"/></g></g></svg><svg x="1632" width="24" height="24" viewBox="0 0 24 24"><g fill="none" stroke="context-fill" stroke-width="1" stroke-linecap="round"><g opacity="0.936" transform="translate(10 3) rotate(95.8) scale(0.9359) translate(-10 -3)"><path d="M10 2v2"/><path d="M11 3H9"/></g><g opacity="0.481" transform="translate(5 8) rotate(136.7) scale(0.4808) translate(-5 -8)"><path d="M5 6v4"/><path d="M7 8H3"/></g><g opacity="0.202" transform="translate(19 20) rotate(18.2) scale(0.2017) translate(-19 -20)"><path d="M21 20h-4"/><path d="M19 18v4"/></g></g></svg><svg x="1656" width="24" height="24" viewBox="0 0 24 24"><g fill="none" stroke="context-fill" stroke-width="1" stroke-linecap="round"><g opacity="0.918" transform="translate(10 3) rotate(97.3) scale(0.9183) translate(-10 -3)"><path d="M10 2v2"/><path d="M11 3H9"/></g><g opacity="0.443" transform="translate(5 8) rotate(140.2) scale(0.4427) translate(-5 -8)"><path d="M5 6v4"/><path d="M7 8H3"/></g><g opacity="0.232" transform="translate(19 20) rotate(20.9) scale(0.2318) translate(-19 -20)"><path d="M21 20h-4"/><path d="M19 18v4"/></g></g></svg><svg x="1680" width="24" height="24" viewBox="0 0 24 24"><g fill="none" stroke="context-fill" stroke-width="1" stroke-linecap="round"><g opacity="0.899" transform="translate(10 3) rotate(99.1) scale(0.8986) translate(-10 -3)"><path d="M10 2v2"/><path d="M11 3H9"/></g><g opacity="0.405" transform="translate(5 8) rotate(143.6) scale(0.4050) translate(-5 -8)"><path d="M5 6v4"/><path d="M7 8H3"/></g><g opacity="0.264" transform="translate(19 20) rotate(23.7) scale(0.2636) translate(-19 -20)"><path d="M21 20h-4"/><path d="M19 18v4"/></g></g></svg><svg x="1704" width="24" height="24" viewBox="0 0 24 24"><g fill="none" stroke="context-fill" stroke-width="1" stroke-linecap="round"><g opacity="0.877" transform="translate(10 3) rotate(101.1) scale(0.8767) translate(-10 -3)"><path d="M10 2v2"/><path d="M11 3H9"/></g><g opacity="0.368" transform="translate(5 8) rotate(146.9) scale(0.3679) translate(-5 -8)"><path d="M5 6v4"/><path d="M7 8H3"/></g><g opacity="0.297" transform="translate(19 20) rotate(26.7) scale(0.2970) translate(-19 -20)"><path d="M21 20h-4"/><path d="M19 18v4"/></g></g></svg><svg x="1728" width="24" height="24" viewBox="0 0 24 24"><g fill="none" stroke="context-fill" stroke-width="1" stroke-linecap="round"><g opacity="0.853" transform="translate(10 3) rotate(103.3) scale(0.8526) translate(-10 -3)"><path d="M10 2v2"/><path d="M11 3H9"/></g><g opacity="0.332" transform="translate(5 8) rotate(150.1) scale(0.3319) translate(-5 -8)"><path d="M5 6v4"/><path d="M7 8H3"/></g><g opacity="0.332" transform="translate(19 20) rotate(29.9) scale(0.3319) translate(-19 -20)"><path d="M21 20h-4"/><path d="M19 18v4"/></g></g></svg><svg x="1752" width="24" height="24" viewBox="0 0 24 24"><g fill="none" stroke="context-fill" stroke-width="1" stroke-linecap="round"><g opacity="0.826" transform="translate(10 3) rotate(105.6) scale(0.8264) translate(-10 -3)"><path d="M10 2v2"/><path d="M11 3H9"/></g><g opacity="0.297" transform="translate(5 8) rotate(153.3) scale(0.2970) translate(-5 -8)"><path d="M5 6v4"/><path d="M7 8H3"/></g><g opacity="0.368" transform="translate(19 20) rotate(33.1) scale(0.3679) translate(-19 -20)"><path d="M21 20h-4"/><path d="M19 18v4"/></g></g></svg><svg x="1776" width="24" height="24" viewBox="0 0 24 24"><g fill="none" stroke="context-fill" stroke-width="1" stroke-linecap="round"><g opacity="0.798" transform="translate(10 3) rotate(108.2) scale(0.7983) translate(-10 -3)"><path d="M10 2v2"/><path d="M11 3H9"/></g><g opacity="0.264" transform="translate(5 8) rotate(156.3) scale(0.2636) translate(-5 -8)"><path d="M5 6v4"/><path d="M7 8H3"/></g><g opacity="0.405" transform="translate(19 20) rotate(36.4) scale(0.4050) translate(-19 -20)"><path d="M21 20h-4"/><path d="M19 18v4"/></g></g></svg><svg x="1800" width="24" height="24" viewBox="0 0 24 24"><g fill="none" stroke="context-fill" stroke-width="1" stroke-linecap="round"><g opacity="0.768" transform="translate(10 3) rotate(110.9) scale(0.7682) translate(-10 -3)"><path d="M10 2v2"/><path d="M11 3H9"/></g><g opacity="0.232" transform="translate(5 8) rotate(159.1) scale(0.2318) translate(-5 -8)"><path d="M5 6v4"/><path d="M7 8H3"/></g><g opacity="0.443" transform="translate(19 20) rotate(39.8) scale(0.4427) translate(-19 -20)"><path d="M21 20h-4"/><path d="M19 18v4"/></g></g></svg><svg x="1824" width="24" height="24" viewBox="0 0 24 24"><g fill="none" stroke="context-fill" stroke-width="1" stroke-linecap="round"><g opacity="0.736" transform="translate(10 3) rotate(113.7) scale(0.7364) translate(-10 -3)"><path d="M10 2v2"/><path d="M11 3H9"/></g><g opacity="0.202" transform="translate(5 8) rotate(161.8) scale(0.2017) translate(-5 -8)"><path d="M5 6v4"/><path d="M7 8H3"/></g><g opacity="0.481" transform="translate(19 20) rotate(43.3) scale(0.4808) translate(-19 -20)"><path d="M21 20h-4"/><path d="M19 18v4"/></g></g></svg><svg x="1848" width="24" height="24" viewBox="0 0 24 24"><g fill="none" stroke="context-fill" stroke-width="1" stroke-linecap="round"><g opacity="0.703" transform="translate(10 3) rotate(116.7) scale(0.7030) translate(-10 -3)"><path d="M10 2v2"/><path d="M11 3H9"/></g><g opacity="0.174" transform="translate(5 8) rotate(164.4) scale(0.1736) translate(-5 -8)"><path d="M5 6v4"/><path d="M7 8H3"/></g><g opacity="0.519" transform="translate(19 20) rotate(46.7) scale(0.5192) translate(-19 -20)"><path d="M21 20h-4"/><path d="M19 18v4"/></g></g></svg><svg x="1872" width="24" height="24" viewBox="0 0 24 24"><g fill="none" stroke="context-fill" stroke-width="1" stroke-linecap="round"><g opacity="0.668" transform="translate(10 3) rotate(119.9) scale(0.6681) translate(-10 -3)"><path d="M10 2v2"/><path d="M11 3H9"/></g><g opacity="0.147" transform="translate(5 8) rotate(166.7) scale(0.1474) translate(-5 -8)"><path d="M5 6v4"/><path d="M7 8H3"/></g><g opacity="0.557" transform="translate(19 20) rotate(50.2) scale(0.5573) translate(-19 -20)"><path d="M21 20h-4"/><path d="M19 18v4"/></g></g></svg><svg x="1896" width="24" height="24" viewBox="0 0 24 24"><g fill="none" stroke="context-fill" stroke-width="1" stroke-linecap="round"><g opacity="0.632" transform="translate(10 3) rotate(123.1) scale(0.6321) translate(-10 -3)"><path d="M10 2v2"/><path d="M11 3H9"/></g><g opacity="0.123" transform="translate(5 8) rotate(168.9) scale(0.1233) translate(-5 -8)"><path d="M5 6v4"/><path d="M7 8H3"/></g><g opacity="0.595" transform="translate(19 20) rotate(53.6) scale(0.5950) translate(-19 -20)"><path d="M21 20h-4"/><path d="M19 18v4"/></g></g></svg><svg x="1920" width="24" height="24" viewBox="0 0 24 24"><g fill="none" stroke="context-fill" stroke-width="1" stroke-linecap="round"><g opacity="0.595" transform="translate(10 3) rotate(126.4) scale(0.5950) translate(-10 -3)"><path d="M10 2v2"/><path d="M11 3H9"/></g><g opacity="0.101" transform="translate(5 8) rotate(170.9) scale(0.1014) translate(-5 -8)"><path d="M5 6v4"/><path d="M7 8H3"/></g><g opacity="0.632" transform="translate(19 20) rotate(56.9) scale(0.6321) translate(-19 -20)"><path d="M21 20h-4"/><path d="M19 18v4"/></g></g></svg><svg x="1944" width="24" height="24" viewBox="0 0 24 24"><g fill="none" stroke="context-fill" stroke-width="1" stroke-linecap="round"><g opacity="0.557" transform="translate(10 3) rotate(129.8) scale(0.5573) translate(-10 -3)"><path d="M10 2v2"/><path d="M11 3H9"/></g><g opacity="0.082" transform="translate(5 8) rotate(172.7) scale(0.0817) translate(-5 -8)"><path d="M5 6v4"/><path d="M7 8H3"/></g><g opacity="0.668" transform="translate(19 20) rotate(60.1) scale(0.6681) translate(-19 -20)"><path d="M21 20h-4"/><path d="M19 18v4"/></g></g></svg><svg x="1968" width="24" height="24" viewBox="0 0 24 24"><g fill="none" stroke="context-fill" stroke-width="1" stroke-linecap="round"><g opacity="0.519" transform="translate(10 3) rotate(133.3) scale(0.5192) translate(-10 -3)"><path d="M10 2v2"/><path d="M11 3H9"/></g><g opacity="0.064" transform="translate(5 8) rotate(174.2) scale(0.0641) translate(-5 -8)"><path d="M5 6v4"/><path d="M7 8H3"/></g><g opacity="0.703" transform="translate(19 20) rotate(63.3) scale(0.7030) translate(-19 -20)"><path d="M21 20h-4"/><path d="M19 18v4"/></g></g></svg><svg x="1992" width="24" height="24" viewBox="0 0 24 24"><g fill="none" stroke="context-fill" stroke-width="1" stroke-linecap="round"><g opacity="0.481" transform="translate(10 3) rotate(136.7) scale(0.4808) translate(-10 -3)"><path d="M10 2v2"/><path d="M11 3H9"/></g><g opacity="0.049" transform="translate(5 8) rotate(175.6) scale(0.0487) translate(-5 -8)"><path d="M5 6v4"/><path d="M7 8H3"/></g><g opacity="0.736" transform="translate(19 20) rotate(66.3) scale(0.7364) translate(-19 -20)"><path d="M21 20h-4"/><path d="M19 18v4"/></g></g></svg><svg x="2016" width="24" height="24" viewBox="0 0 24 24"><g fill="none" stroke="context-fill" stroke-width="1" stroke-linecap="round"><g opacity="0.443" transform="translate(10 3) rotate(140.2) scale(0.4427) translate(-10 -3)"><path d="M10 2v2"/><path d="M11 3H9"/></g><g opacity="0.036" transform="translate(5 8) rotate(176.8) scale(0.0355) translate(-5 -8)"><path d="M5 6v4"/><path d="M7 8H3"/></g><g opacity="0.768" transform="translate(19 20) rotate(69.1) scale(0.7682) translate(-19 -20)"><path d="M21 20h-4"/><path d="M19 18v4"/></g></g></svg><svg x="2040" width="24" height="24" viewBox="0 0 24 24"><g fill="none" stroke="context-fill" stroke-width="1" stroke-linecap="round"><g opacity="0.405" transform="translate(10 3) rotate(143.6) scale(0.4050) translate(-10 -3)"><path d="M10 2v2"/><path d="M11 3H9"/></g><g opacity="0.024" transform="translate(5 8) rotate(177.8) scale(0.0245) translate(-5 -8)"><path d="M5 6v4"/><path d="M7 8H3"/></g><g opacity="0.798" transform="translate(19 20) rotate(71.8) scale(0.7983) translate(-19 -20)"><path d="M21 20h-4"/><path d="M19 18v4"/></g></g></svg><svg x="2064" width="24" height="24" viewBox="0 0 24 24"><g fill="none" stroke="context-fill" stroke-width="1" stroke-linecap="round"><g opacity="0.368" transform="translate(10 3) rotate(146.9) scale(0.3679) translate(-10 -3)"><path d="M10 2v2"/><path d="M11 3H9"/></g><g opacity="0.016" transform="translate(5 8) rotate(178.6) scale(0.0155) translate(-5 -8)"><path d="M5 6v4"/><path d="M7 8H3"/></g><g opacity="0.826" transform="translate(19 20) rotate(74.4) scale(0.8264) translate(-19 -20)"><path d="M21 20h-4"/><path d="M19 18v4"/></g></g></svg><svg x="2088" width="24" height="24" viewBox="0 0 24 24"><g fill="none" stroke="context-fill" stroke-width="1" stroke-linecap="round"><g opacity="0.332" transform="translate(10 3) rotate(150.1) scale(0.3319) translate(-10 -3)"><path d="M10 2v2"/><path d="M11 3H9"/></g><g opacity="0.009" transform="translate(5 8) rotate(179.2) scale(0.0086) translate(-5 -8)"><path d="M5 6v4"/><path d="M7 8H3"/></g><g opacity="0.853" transform="translate(19 20) rotate(76.7) scale(0.8526) translate(-19 -20)"><path d="M21 20h-4"/><path d="M19 18v4"/></g></g></svg><svg x="2112" width="24" height="24" viewBox="0 0 24 24"><g fill="none" stroke="context-fill" stroke-width="1" stroke-linecap="round"><g opacity="0.297" transform="translate(10 3) rotate(153.3) scale(0.2970) translate(-10 -3)"><path d="M10 2v2"/><path d="M11 3H9"/></g><g opacity="0.877" transform="translate(19 20) rotate(78.9) scale(0.8767) translate(-19 -20)"><path d="M21 20h-4"/><path d="M19 18v4"/></g></g></svg><svg x="2136" width="24" height="24" viewBox="0 0 24 24"><g fill="none" stroke="context-fill" stroke-width="1" stroke-linecap="round"><g opacity="0.264" transform="translate(10 3) rotate(156.3) scale(0.2636) translate(-10 -3)"><path d="M10 2v2"/><path d="M11 3H9"/></g><g opacity="0.899" transform="translate(19 20) rotate(80.9) scale(0.8986) translate(-19 -20)"><path d="M21 20h-4"/><path d="M19 18v4"/></g></g></svg></svg>
