<?xml version="1.0" encoding="UTF-8"?>
<svg xmlns="http://www.w3.org/2000/svg" xmlns:xlink="http://www.w3.org/1999/xlink" viewBox="0 0 80 80"><defs><style>.g{fill:#000;}.g,.h,.i{stroke-width:0px;}.h{fill:url(#e);}.i{fill:#fff;}</style><linearGradient id="e" x1="40" y1="80" x2="40" y2="0" gradientUnits="userSpaceOnUse"><stop offset=".1" stop-color="#fff" stop-opacity=".02"/><stop offset=".9" stop-color="#fff" stop-opacity=".1"/></linearGradient></defs><g id="c"><rect class="g" width="80" height="80" rx="18.25" ry="18.25"/></g><g id="d"><rect class="h" width="80" height="80" rx="18.25" ry="18.25"/></g><g id="f"><path class="i" d="M63.4367,57.6782c-.0536,3.2127-2.7418,5.7593-5.955,5.7593h-24.1527c-.9392,0-1.5768-.9548-1.2169-1.8223l.0082-.0197c1.5882-3.8346,4.1653-7.0703,7.456-9.4308.4093-.2936.9032-.4459,1.407-.4459h16.5948c3.2694,0,5.9133,2.6775,5.8585,5.9594Z"/><path class="i" d="M46.671,16.5625c.9392,0,1.5768.9548,1.2169,1.8223l-.0082.0197c-1.5882,3.8346-4.1653,7.0703-7.456,9.4308-.4093.2936-.9032.4459-1.407.4459h-16.4984c-3.2132,0-5.9014-2.5466-5.955-5.7593-.0547-3.2819,2.5892-5.9594,5.8585-5.9594h24.2491Z"/><path class="i" d="M22.4208,63.4375c-.7473,0-1.5065-.1438-2.2398-.4475-2.9896-1.2383-4.4093-4.6657-3.171-7.6551,1.9045-4.5977,4.6342-8.7196,8.1136-12.251,3.6044-3.6585,7.8551-6.5172,12.6343-8.4968,6.5691-2.7211,11.6853-7.8373,14.4061-14.4061,1.2383-2.9897,4.6658-4.4091,7.6551-3.171,2.9896,1.2383,4.4093,4.6657,3.171,7.6551-1.9045,4.5977-4.6342,8.7196-8.1136,12.251-3.6044,3.6585-7.8551,6.5172-12.6343,8.4968-6.5691,2.7211-11.6853,7.8373-14.4061,14.4061-.9345,2.2562-3.1164,3.6185-5.4153,3.6185Z"/></g></svg>