<?xml version="1.0" encoding="UTF-8"?><svg xmlns="http://www.w3.org/2000/svg" xmlns:xlink="http://www.w3.org/1999/xlink" viewBox="0 0 80 80"><defs><style>.g{fill:url(#e);}.g,.h,.i{stroke-width:0px;}.h{fill:#a570ff;}.i{fill:#fef9fe;}</style><linearGradient id="e" x1="40" y1="80" x2="40" y2="0" gradientUnits="userSpaceOnUse"><stop offset=".1" stop-color="#fff" stop-opacity="0"/><stop offset=".9" stop-color="#fff" stop-opacity=".1"/></linearGradient></defs><g id="c"><rect class="h" width="80" height="80" rx="18.25" ry="18.25"/></g><g id="d"><rect class="g" width="80" height="80" rx="18.25" ry="18.25"/></g><g id="f"><path class="i" d="M63.4352,57.677c-.0536,3.2125-2.7416,5.7589-5.9546,5.7589h-22.0762c-1.1221,0-1.8295-1.2103-1.2751-2.1859,1.4628-2.5738,4.3202-6.7829,8.5529-9.1539.4406-.2468.9366-.3783,1.4416-.3783h13.4532c3.2692,0,5.9129,2.6774,5.8582,5.9591Z"/><path class="i" d="M45.8707,18.7498c-1.4628,2.5738-4.3202,6.7829-8.5529,9.1539-.4406.2468-.9366.3783-1.4416.3783h-13.3567c-3.213,0-5.901-2.5464-5.9546-5.7589-.0547-3.2817,2.589-5.9591,5.8582-5.9591h22.1726c1.1221,0,1.8295,1.2103,1.2751,2.1859Z"/><path class="i" d="M22.4207,63.4375c-.7473,0-1.5065-.1438-2.2398-.4475-2.9896-1.2383-4.4093-4.6657-3.171-7.6551,1.9045-4.5977,4.6342-8.7196,8.1136-12.2511,3.6044-3.6585,7.8551-6.5172,12.6343-8.4968,6.5691-2.7211,11.6853-7.8373,14.4061-14.4061,1.2383-2.9896,4.6658-4.409,7.6551-3.171,2.9896,1.2383,4.4093,4.6657,3.171,7.6551-1.9045,4.5977-4.6342,8.7196-8.1136,12.2511-3.6044,3.6585-7.8551,6.5172-12.6343,8.4968-6.5691,2.7211-11.6853,7.8373-14.4061,14.4061-.9345,2.2562-3.1164,3.6185-5.4153,3.6185Z"/></g></svg>